<svg xmlns="http://www.w3.org/2000/svg" xmlns:xlink="http://www.w3.org/1999/xlink" width="500" zoomAndPan="magnify" viewBox="0 0 375 374.999991" height="500" preserveAspectRatio="xMidYMid meet" version="1.0"><rect x="-37.5" width="450" fill="#ffffff" y="-37.499999" height="449.999989" fill-opacity="1"/><rect x="-37.5" width="450" fill="#ffffff" y="-37.499999" height="449.999989" fill-opacity="1"/><path fill="#000000" d="M 179.222656 215.449219 C 170.867188 215.449219 164.421875 210.820312 161.140625 207.070312 C 151.832031 207.015625 146.90625 200.683594 145.6875 193.011719 C 130.671875 189.421875 128.679688 179.015625 128.550781 174.464844 C 118.761719 168.851562 117.976562 159.234375 121.65625 150.683594 C 119.765625 149.101562 118.257812 146.695312 116.921875 143.324219 C 114.503906 137.222656 118.554688 131.679688 121.039062 129.03125 C 116.566406 119.070312 120.75 111.425781 129.035156 107.699219 C 129.171875 104.46875 130.136719 99.574219 134.175781 97.660156 C 135.042969 90.140625 139.195312 85.117188 145.890625 84.089844 C 146.574219 73.9375 155.324219 70.679688 163.242188 70.695312 C 168.902344 60.042969 190.050781 56.769531 199.148438 76.632812 C 199.324219 77.011719 199.410156 77.421875 199.410156 77.835938 L 199.558594 198.871094 C 199.558594 199.113281 199.527344 199.355469 199.464844 199.601562 C 196.882812 209.5625 188.53125 213.558594 188.070312 213.738281 C 184.945312 214.945312 181.976562 215.449219 179.222656 215.449219 Z M 162.5 201.222656 C 163.425781 201.222656 164.296875 201.664062 164.839844 202.417969 C 165.167969 202.851562 173.0625 213.222656 185.855469 208.375 C 186.566406 208.015625 191.875 205.109375 193.746094 198.488281 L 193.601562 78.488281 C 189.90625 70.871094 183.613281 67.019531 176.671875 68.175781 C 172.683594 68.835938 169.34375 71.109375 168.1875 73.765625 C 168.183594 73.855469 168.175781 73.957031 168.164062 74.046875 C 168.066406 74.855469 167.804688 74.964844 167.769531 75.3125 C 167.433594 78.757812 171.09375 82.195312 177.828125 84.742188 C 181.40625 86.09375 179.347656 91.519531 175.769531 90.164062 C 164.785156 86.011719 162.246094 80.367188 161.964844 76.519531 C 155.730469 76.867188 151.136719 79.324219 151.710938 86.625 C 151.84375 88.363281 150.496094 89.855469 148.46875 89.734375 C 144.476562 89.496094 141.066406 91.832031 140.109375 97.226562 C 143.058594 97.921875 151.578125 100.640625 153.65625 118.65625 C 154.09375 122.445312 148.316406 123.109375 147.882812 119.316406 C 146.273438 105.371094 140.472656 103.414062 139.589844 103.109375 C 138.5625 102.757812 137.175781 102.460938 136.402344 103.066406 C 134.488281 104.542969 134.972656 109.273438 134.832031 110.132812 C 134.652344 111.265625 133.851562 112.140625 132.746094 112.46875 C 132.339844 112.597656 127.28125 114.257812 125.589844 118.328125 C 124.484375 120.980469 125.003906 124.3125 127.117188 128.21875 C 127.8125 129.472656 127.53125 130.972656 126.417969 131.894531 C 126.070312 132.195312 120.65625 136.988281 122.324219 141.191406 C 124.375 146.375 125.863281 147.558594 130.144531 147.320312 C 134.070312 147.105469 140.085938 145.238281 146.417969 137.5625 C 148.839844 134.625 153.324219 138.316406 150.902344 141.25 C 142.886719 150.96875 133.769531 153.964844 126.988281 152.992188 C 124.160156 159.574219 124.707031 166.351562 132.710938 170.101562 C 133.921875 170.664062 134.570312 171.882812 134.375 173.203125 C 134.195312 174.578125 133.363281 184.929688 148.824219 187.746094 C 150.230469 187.984375 151.234375 189.144531 151.261719 190.589844 C 151.269531 190.867188 151.480469 196.046875 154.738281 199.039062 C 156.574219 200.726562 159.054688 201.445312 162.308594 201.230469 C 162.371094 201.230469 162.4375 201.222656 162.5 201.222656 Z M 162.5 201.222656 " fill-opacity="1" fill-rule="evenodd"/><path fill="#000000" d="M 214.082031 215.449219 C 211.753906 215.449219 207.628906 214.875 205.054688 213.65625 C 204.699219 213.492188 196.414062 209.511719 193.839844 199.601562 C 192.882812 195.902344 198.503906 194.449219 199.464844 198.144531 C 201.246094 205.015625 206.75 208.019531 207.445312 208.375 C 220.242188 213.222656 228.136719 202.851562 228.46875 202.40625 C 229.054688 201.617188 230.019531 201.171875 230.996094 201.230469 C 234.253906 201.445312 236.730469 200.726562 238.566406 199.039062 C 241.785156 196.082031 242.027344 191 242.046875 190.59375 C 242.050781 189.226562 243.035156 188.007812 244.433594 187.757812 C 260.976562 184.765625 258.859375 173.414062 258.894531 172.609375 C 258.949219 171.511719 259.59375 170.566406 260.597656 170.101562 C 268.605469 166.355469 269.144531 159.566406 266.320312 152.992188 C 259.539062 153.972656 250.425781 150.96875 242.40625 141.25 C 239.984375 138.316406 244.46875 134.625 246.890625 137.5625 C 253.21875 145.230469 259.234375 147.105469 263.164062 147.320312 C 267.425781 147.558594 268.917969 146.398438 270.980469 141.191406 C 272.765625 136.691406 266.871094 132.035156 266.382812 131.375 C 265.691406 130.445312 265.625 129.226562 266.191406 128.21875 C 268.3125 124.300781 268.824219 120.960938 267.710938 118.296875 C 265.867188 113.925781 260.625 112.609375 259.894531 112.191406 C 258.902344 111.617188 258.355469 110.542969 258.453125 109.402344 C 258.597656 107.417969 258.210938 104.066406 256.902344 103.058594 C 255.914062 102.300781 254.339844 102.972656 253.382812 103.203125 C 252.847656 103.378906 247.003906 105.632812 245.425781 119.316406 C 244.984375 123.109375 239.214844 122.445312 239.652344 118.652344 C 241.726562 100.640625 250.25 97.914062 253.195312 97.226562 C 252.742188 94.644531 251.765625 92.714844 250.285156 91.457031 C 246.855469 88.542969 244.328125 90.714844 242.480469 88.945312 C 241.855469 88.339844 241.527344 87.488281 241.597656 86.625 C 242.175781 79.261719 237.480469 76.832031 231.34375 76.523438 C 231.066406 80.367188 228.519531 86.011719 217.539062 90.164062 C 213.964844 91.519531 211.902344 86.09375 215.484375 84.742188 C 222.210938 82.195312 225.875 78.757812 225.535156 75.3125 C 225.5 74.957031 225.242188 74.855469 225.144531 74.046875 C 225.132812 73.957031 225.128906 73.855469 225.121094 73.765625 C 223.964844 71.109375 220.625 68.835938 216.636719 68.175781 C 209.527344 66.992188 203.101562 71.054688 199.445312 79.046875 C 197.855469 82.519531 192.566406 80.109375 194.160156 76.632812 C 203.253906 56.773438 224.402344 60.039062 230.066406 70.691406 C 238.039062 70.691406 246.734375 73.949219 247.421875 84.089844 C 254.113281 85.113281 258.269531 90.140625 259.132812 97.65625 C 263.171875 99.574219 264.136719 104.460938 264.269531 107.699219 C 272.5625 111.425781 276.742188 119.070312 272.269531 129.03125 C 274.75 131.679688 278.804688 137.222656 276.390625 143.324219 C 275.054688 146.695312 273.542969 149.101562 271.65625 150.683594 C 275.328125 159.230469 274.535156 168.851562 264.757812 174.464844 C 264.628906 179.015625 262.636719 189.421875 247.625 193.011719 C 246.402344 200.679688 241.476562 207.015625 232.167969 207.0625 C 228.886719 210.820312 222.4375 215.449219 214.082031 215.449219 Z M 214.082031 215.449219 " fill-opacity="1" fill-rule="evenodd"/><path fill="#000000" d="M 179.894531 338.441406 C 178.601562 338.441406 177.421875 337.574219 177.082031 336.261719 C 166.648438 295.753906 144.210938 280.972656 102.59375 287.652344 C 102.355469 287.6875 102.109375 287.699219 101.871094 287.675781 C 92.046875 286.824219 85.515625 283.570312 82.472656 278.003906 C 78.078125 269.976562 82.953125 260.542969 83.164062 260.144531 C 84.988281 256.710938 85.441406 253.863281 84.527344 251.671875 C 83.234375 248.585938 79.496094 247.4375 79.457031 247.425781 C 77.480469 246.84375 76.71875 244.414062 78.023438 242.8125 L 83.347656 236.265625 L 76.335938 233.226562 C 74.832031 232.570312 74.164062 230.792969 74.871094 229.3125 C 79.050781 220.625 75.25 214.910156 73.863281 213.238281 C 66.558594 211.300781 61.835938 207.746094 59.820312 202.65625 C 56.351562 193.90625 62.578125 184.125 63.125 183.519531 C 85.96875 158.246094 85.371094 147.085938 85.285156 146.242188 C 85.214844 146.007812 85.21875 145.917969 85.21875 145.648438 C 84.796875 109.066406 98.199219 86.589844 109.511719 74.175781 C 121.464844 61.070312 133.449219 56.183594 134.6875 55.707031 C 165.648438 41.980469 197.019531 38.144531 225.398438 44.601562 C 251.335938 50.503906 274.316406 65.136719 290.105469 85.796875 C 306.144531 106.78125 314.304688 133.320312 313.074219 160.535156 C 311.738281 190.164062 299.554688 219.894531 277.84375 246.546875 C 266.972656 281.273438 299.210938 332.277344 299.539062 332.789062 C 301.601562 336.007812 296.703125 339.128906 294.644531 335.914062 C 293.234375 333.710938 260.273438 281.59375 272.480469 244.238281 C 272.589844 243.894531 272.765625 243.578125 272.992188 243.300781 C 313.921875 193.378906 318.828125 132.933594 285.488281 89.316406 C 252.835938 46.597656 194.542969 35.5 136.976562 61.035156 C 136.726562 61.140625 125.089844 65.605469 113.601562 78.304688 C 103.109375 89.90625 90.6875 110.957031 91.023438 145.347656 C 91.417969 147.988281 91.621094 160.585938 67.605469 187.214844 C 66.925781 188.332031 63.054688 195.09375 65.226562 200.539062 C 66.59375 203.960938 70.246094 206.414062 76.09375 207.824219 C 76.582031 207.9375 77.027344 208.183594 77.398438 208.523438 C 77.765625 208.867188 85.726562 216.539062 81.273438 229.046875 L 89.175781 232.46875 C 90.9375 233.226562 91.484375 235.464844 90.273438 236.957031 L 84.835938 243.636719 C 91.464844 247.902344 92.4375 254.929688 88.304688 262.851562 C 88.277344 262.910156 84.675781 269.96875 87.585938 275.242188 C 89.613281 278.929688 94.46875 281.160156 102.023438 281.867188 C 124.683594 278.253906 142.152344 280.875 155.421875 289.875 C 168.230469 298.558594 177.152344 313.265625 182.707031 334.820312 C 183.183594 336.667969 181.777344 338.441406 179.894531 338.441406 Z M 179.894531 338.441406 " fill-opacity="1" fill-rule="evenodd"/></svg>