<svg xmlns="http://www.w3.org/2000/svg" xmlns:xlink="http://www.w3.org/1999/xlink" width="500" zoomAndPan="magnify" viewBox="0 0 375 374.999991" height="500" preserveAspectRatio="xMidYMid meet" version="1.0"><defs><clipPath id="5502a14b25"><path d="M 45 67.832031 L 336 67.832031 L 336 307.082031 L 45 307.082031 Z M 45 67.832031 " clip-rule="nonzero"/></clipPath><clipPath id="32d8684899"><path d="M 86.496094 0.832031 L 290.921875 0.832031 L 290.921875 240.082031 L 86.496094 240.082031 Z M 86.496094 0.832031 " clip-rule="nonzero"/></clipPath><clipPath id="d23856ec58"><rect x="0" width="291" y="0" height="241"/></clipPath></defs><rect x="-37.5" width="450" fill="#ffffff" y="-37.499999" height="449.999989" fill-opacity="1"/><rect x="-37.5" width="450" fill="#ffffff" y="-37.499999" height="449.999989" fill-opacity="1"/><g clip-path="url(#5502a14b25)"><g transform="matrix(1, 0, 0, 1, 45, 67)"><g clip-path="url(#d23856ec58)"><path fill="#000000" d="M 224.070312 127.953125 C 224.070312 126.4375 225.300781 125.210938 226.816406 125.210938 C 228.332031 125.210938 229.5625 126.4375 229.5625 127.953125 C 229.5625 133.164062 232.667969 137.398438 236.492188 137.398438 C 240.253906 137.398438 243.3125 133.164062 243.3125 127.953125 C 243.3125 123.144531 245.414062 119.671875 247.449219 116.316406 C 249.746094 112.523438 252.117188 108.601562 252.117188 101.933594 C 252.117188 95.519531 248.464844 89.980469 242.574219 87.472656 C 236.699219 84.972656 230.230469 86.140625 225.675781 90.515625 C 224.589844 91.566406 222.851562 91.53125 221.792969 90.441406 C 220.742188 89.351562 220.777344 87.613281 221.871094 86.5625 C 228.027344 80.632812 236.78125 79.050781 244.726562 82.421875 C 252.671875 85.800781 257.609375 93.277344 257.609375 101.933594 C 257.609375 110.136719 254.578125 115.136719 252.144531 119.15625 C 250.28125 122.238281 248.804688 124.671875 248.804688 127.953125 C 248.804688 136.328125 243.398438 142.886719 236.492188 142.886719 C 229.527344 142.886719 224.070312 136.328125 224.070312 127.953125 " fill-opacity="1" fill-rule="nonzero"/><path fill="#000000" d="M 169.730469 191.429688 C 203.773438 176.527344 224.6875 150.867188 224.894531 150.605469 C 225.847656 149.421875 227.578125 149.238281 228.753906 150.191406 C 229.9375 151.140625 230.125 152.867188 229.171875 154.046875 C 228.296875 155.140625 207.257812 180.996094 171.933594 196.457031 C 171.574219 196.617188 171.203125 196.6875 170.832031 196.6875 C 169.777344 196.6875 168.769531 196.074219 168.320312 195.042969 C 167.710938 193.652344 168.34375 192.035156 169.730469 191.429688 " fill-opacity="1" fill-rule="nonzero"/><g clip-path="url(#32d8684899)"><path fill="#000000" d="M 98.386719 110.722656 C 108.8125 96.53125 108.8125 96.53125 108.863281 84.953125 C 108.875 82.777344 108.882812 80.230469 108.953125 77.152344 C 109.875 45.472656 126.929688 20.40625 155.75 8.382812 C 190.378906 -6.105469 232.820312 0.667969 261.375 25.230469 C 286.597656 46.933594 296.328125 78.214844 288.015625 111.253906 C 282.933594 126.535156 277.527344 138.0625 272.765625 148.230469 C 260.601562 174.1875 253.253906 189.859375 267.050781 234.523438 C 267.5 235.972656 266.683594 237.507812 265.234375 237.957031 C 263.78125 238.394531 262.253906 237.589844 261.804688 236.144531 C 247.382812 189.449219 255.503906 172.125 267.796875 145.902344 C 272.496094 135.871094 277.824219 124.5 282.75 109.722656 C 290.476562 78.96875 281.386719 49.691406 257.796875 29.394531 C 230.785156 6.15625 190.625 -0.257812 157.867188 13.445312 C 131.125 24.605469 115.292969 47.882812 114.445312 77.292969 C 114.371094 80.316406 114.359375 82.828125 114.351562 84.972656 C 114.296875 98.339844 113.859375 98.929688 102.8125 113.976562 C 100.839844 116.65625 98.515625 119.824219 95.773438 123.621094 C 92.246094 128.5625 91.199219 132.90625 92.65625 136.53125 C 95.117188 142.648438 103.863281 145.515625 105.898438 145.898438 C 106.710938 146.050781 107.414062 146.5625 107.804688 147.289062 C 108.199219 148.019531 108.246094 148.886719 107.925781 149.648438 C 106.703125 152.589844 106.828125 155.859375 108.246094 157.976562 C 109.195312 159.402344 110.578125 160.125 112.347656 160.125 C 113.355469 160.125 114.273438 160.671875 114.757812 161.550781 C 115.238281 162.429688 115.203125 163.5 114.664062 164.34375 C 110.085938 171.515625 110.832031 172.535156 112.3125 174.5625 C 113.945312 176.785156 116.167969 179.828125 115.847656 186.808594 C 115.492188 195.574219 119.554688 200.9375 127.597656 202.324219 C 131.628906 203.023438 136.089844 202.839844 140.425781 202.667969 C 148.609375 202.332031 157.070312 201.996094 162.339844 207.886719 C 167.140625 213.253906 168.320312 222.765625 166.042969 237.832031 C 165.839844 239.1875 164.667969 240.167969 163.335938 240.167969 C 163.195312 240.167969 163.0625 240.15625 162.917969 240.132812 C 161.421875 239.90625 160.390625 238.507812 160.617188 237.011719 C 162.605469 223.875 161.828125 215.546875 158.246094 211.550781 C 154.707031 207.589844 148.191406 207.851562 140.640625 208.152344 C 136.035156 208.335938 131.273438 208.527344 126.664062 207.738281 C 115.988281 205.894531 109.894531 197.988281 110.367188 186.570312 C 110.597656 181.507812 109.222656 179.628906 107.890625 177.808594 C 105.175781 174.105469 104.515625 171.195312 108.039062 164.738281 C 106.296875 163.972656 104.804688 162.714844 103.679688 161.027344 C 101.738281 158.125 101.144531 154.273438 101.945312 150.476562 C 97.378906 148.898438 90.222656 145.191406 87.5625 138.578125 C 85.359375 133.101562 86.621094 126.996094 91.3125 120.421875 C 94.074219 116.597656 96.40625 113.417969 98.386719 110.722656 " fill-opacity="1" fill-rule="nonzero"/></g><path fill="#000000" d="M 77.105469 137.203125 C 78.179688 138.269531 78.191406 140.007812 77.125 141.085938 C 68.425781 149.871094 68.425781 164.246094 77.132812 173.136719 C 78.195312 174.222656 78.175781 175.960938 77.09375 177.019531 C 76.558594 177.542969 75.863281 177.800781 75.171875 177.800781 C 74.460938 177.800781 73.75 177.527344 73.210938 176.980469 C 62.421875 165.960938 62.421875 148.125 73.222656 137.222656 C 74.292969 136.144531 76.027344 136.132812 77.105469 137.203125 " fill-opacity="1" fill-rule="nonzero"/><path fill="#000000" d="M 54.703125 114.472656 C 55.785156 115.535156 55.792969 117.273438 54.730469 118.355469 C 33.65625 139.742188 33.65625 174.460938 54.730469 195.746094 C 55.792969 196.820312 55.785156 198.558594 54.707031 199.625 C 54.175781 200.15625 53.472656 200.421875 52.777344 200.421875 C 52.070312 200.421875 51.363281 200.148438 50.828125 199.605469 C 27.652344 176.199219 27.652344 138.019531 50.820312 114.5 C 51.882812 113.417969 53.632812 113.40625 54.703125 114.472656 " fill-opacity="1" fill-rule="nonzero"/><path fill="#000000" d="M 28.324219 91.878906 C 29.398438 90.800781 31.128906 90.789062 32.210938 91.855469 C 33.285156 92.925781 33.292969 94.660156 32.226562 95.738281 C -1.246094 129.550781 -1.246094 184.554688 32.226562 218.363281 C 33.292969 219.441406 33.285156 221.175781 32.210938 222.246094 C 31.675781 222.773438 30.972656 223.039062 30.277344 223.039062 C 29.566406 223.039062 28.863281 222.765625 28.324219 222.222656 C -7.257812 186.289062 -7.257812 127.816406 28.324219 91.878906 " fill-opacity="1" fill-rule="nonzero"/></g></g></g></svg>