<svg xmlns="http://www.w3.org/2000/svg" xmlns:xlink="http://www.w3.org/1999/xlink" width="500" zoomAndPan="magnify" viewBox="0 0 375 374.999991" height="500" preserveAspectRatio="xMidYMid meet" version="1.0"><defs><clipPath id="679cb1173f"><path d="M 41 44 L 334.90625 44 L 334.90625 336 L 41 336 Z M 41 44 " clip-rule="nonzero"/></clipPath></defs><rect x="-37.5" width="450" fill="#ffffff" y="-37.499999" height="449.999989" fill-opacity="1"/><rect x="-37.5" width="450" fill="#ffffff" y="-37.499999" height="449.999989" fill-opacity="1"/><g clip-path="url(#679cb1173f)"><path fill="#000000" d="M 305.457031 203.3125 C 313.75 198.671875 318.984375 191.34375 322.496094 182.875 L 298.503906 181.734375 L 286.605469 190.636719 C 285.960938 191.136719 285.226562 191.40625 284.476562 191.496094 L 284.476562 191.515625 L 247.492188 195.828125 L 247.492188 195.847656 L 208.503906 195.847656 C 200.132812 195.847656 200.132812 209.566406 208.503906 209.566406 L 246.023438 209.566406 Z M 250.210938 46.996094 C 254.847656 53.585938 264.683594 54.644531 274.21875 55.667969 C 291.042969 57.472656 307.097656 59.210938 305 84 C 305.058594 84.214844 305.109375 84.429688 305.144531 84.664062 C 307.136719 98.886719 301.238281 114.753906 289.050781 122.671875 L 289.050781 124.425781 C 301.269531 127.648438 312.363281 133.4375 323.402344 141.335938 C 329.4375 145.652344 331.984375 160.628906 333.078125 167.8125 C 333.546875 170.769531 333.6875 173.6875 333.703125 176.015625 C 334.730469 177.714844 334.515625 179.957031 333.039062 181.421875 C 332.789062 181.675781 332.523438 181.890625 332.21875 182.066406 C 330.304688 187.621094 327.757812 192.992188 324.355469 197.796875 C 320.9375 202.597656 316.667969 206.824219 311.277344 210.136719 L 311.960938 233.691406 C 312.066406 235.429688 311.65625 235.589844 311.402344 236.378906 L 304.863281 308.113281 C 304.734375 309.386719 304.089844 310.476562 303.160156 311.199219 L 303.160156 315.25 C 307.78125 315.25 311.550781 314.925781 315.203125 317.582031 C 320.398438 321.359375 320.828125 328.9375 317.695312 333.894531 C 316.921875 335.164062 315.507812 336.023438 313.894531 336.023438 L 234.535156 336.023438 C 230.304688 336.023438 228.761719 330.3125 228.761719 326.835938 C 228.761719 319.925781 233.742188 315.25 241.273438 315.25 L 245.285156 315.25 L 245.285156 311.199219 C 244.335938 310.484375 243.691406 309.390625 243.585938 308.113281 L 236.953125 235.5 C 236.828125 235.070312 236.757812 234.621094 236.757812 234.152344 L 236.902344 218.40625 L 208.667969 218.40625 C 207.535156 218.980469 206.355469 219.429688 205.121094 219.714844 C 197.203125 221.523438 189.710938 216.882812 187.867188 208.808594 C 185.875 200.140625 185.265625 194.339844 178.226562 188.050781 L 167.921875 178.828125 L 167.921875 222.242188 C 167.921875 222.566406 167.882812 222.886719 167.832031 223.171875 L 160.792969 276.867188 C 160.664062 279.214844 158.730469 281.078125 156.367188 281.078125 L 132.878906 281.078125 L 132.878906 297.664062 C 132.878906 298.113281 132.820312 298.542969 132.683594 298.953125 L 132.683594 331.589844 C 132.683594 334.027344 130.710938 336.011719 128.257812 336.011719 L 86.347656 336.011719 C 84.523438 336.011719 82.960938 334.902344 82.285156 333.328125 C 78.164062 324.355469 80.851562 310.21875 93.464844 310.21875 L 96.121094 310.21875 L 96.121094 297.714844 L 89.042969 223.027344 L 88.972656 222.234375 L 88.972656 178.820312 L 78.667969 188.046875 C 71.648438 194.332031 71.035156 200.132812 69.046875 208.800781 C 67.613281 215.050781 63.257812 218.632812 58.335938 219.726562 L 58.335938 325.699219 L 62.09375 325.699219 C 64.546875 325.699219 66.519531 327.671875 66.519531 330.125 C 66.519531 332.5625 64.546875 334.546875 62.09375 334.546875 L 45.710938 334.546875 C 43.269531 334.546875 41.285156 332.554688 41.285156 330.125 C 41.285156 327.671875 43.277344 325.699219 45.710938 325.699219 L 49.472656 325.699219 L 49.472656 218.980469 C 44.042969 216.746094 40.371094 211.496094 41.160156 204.511719 L 43.054688 187.550781 C 43.808594 180.777344 46.25 175.125 50.65625 169.929688 L 79.644531 135.757812 L 79.660156 135.757812 C 81.3125 133.804688 84.535156 131.441406 86.632812 130.261719 C 89.074219 128.902344 91.722656 127.898438 94.679688 127.234375 L 108.605469 124.0625 L 112.347656 117.558594 C 108.765625 114.496094 105.21875 110.304688 101.742188 104.933594 C 99.855469 102.066406 98.945312 99.09375 98.945312 95.691406 L 98.945312 80.289062 C 96.632812 71.765625 96.28125 65.566406 97.960938 60.480469 C 99.824219 54.964844 103.820312 51.21875 110.128906 47.800781 C 110.21875 47.761719 110.292969 47.730469 110.382812 47.691406 C 132.296875 37.519531 158.238281 52.367188 159.976562 76.582031 C 160.101562 78.300781 159.242188 79.84375 157.878906 80.664062 L 157.878906 95.671875 C 157.878906 99.078125 156.949219 102.046875 155.085938 104.914062 C 151.695312 110.167969 148.132812 114.394531 144.457031 117.539062 L 148.199219 124.023438 L 162.214844 127.214844 C 166.441406 128.160156 170.117188 129.8125 173.464844 132.359375 L 214.140625 125.601562 C 214.84375 124.207031 216.273438 123.257812 217.921875 123.203125 C 230.089844 122.792969 241.789062 121.765625 253.453125 121.375 C 242.289062 112.882812 237.09375 97.339844 239.046875 83.601562 C 228.332031 69.65625 232.382812 59.679688 243.761719 46.65625 C 245.519531 44.652344 248.691406 44.867188 250.195312 46.996094 Z M 296.6875 89.496094 C 290.417969 88.980469 284.628906 85.699219 281.042969 80.542969 C 271.011719 86.617188 259.1875 89.25 247.503906 87.992188 C 246.753906 103.988281 257.878906 121.058594 275.476562 118.570312 C 289.058594 116.65625 297.011719 102.558594 296.6875 89.496094 Z M 273.363281 63.8125 C 263.761719 62.789062 253.890625 61.714844 246.972656 55.589844 C 243.496094 59.976562 241.472656 63.617188 241.09375 67.015625 C 240.664062 70.742188 242.316406 74.648438 246.308594 79.589844 C 252.042969 80.449219 257.832031 80.214844 263.382812 78.964844 C 269.351562 77.605469 275.046875 75.019531 280.0625 71.332031 C 282.230469 69.738281 285.386719 70.578125 286.371094 73.175781 C 288.074219 77.667969 292.195312 80.734375 296.910156 81.269531 C 297.050781 66.375 285.457031 65.121094 273.363281 63.8125 Z M 288.269531 133.351562 C 284.433594 145.117188 269.222656 149.128906 260.0625 140.15625 C 257.378906 137.519531 255.582031 134.03125 255.132812 130.140625 C 244.722656 130.460938 233.773438 131.359375 222.648438 131.839844 L 223.78125 158.902344 L 242.023438 159.691406 C 244.464844 159.78125 246.359375 161.839844 246.253906 164.28125 L 246.019531 186.988281 L 247.289062 186.988281 L 282.28125 182.851562 L 292.675781 175.078125 L 286.082031 163.65625 C 284.863281 161.542969 285.582031 158.851562 287.695312 157.640625 C 289.804688 156.402344 292.496094 157.140625 293.730469 159.230469 L 301.699219 173.058594 L 325.65625 174.1875 C 325.226562 173.113281 324.691406 171.445312 324.332031 169.121094 C 323.519531 163.800781 322.269531 157.355469 320.550781 152.765625 C 319.761719 150.636719 318.957031 149.039062 318.238281 148.519531 C 308.515625 141.550781 298.824219 136.359375 288.269531 133.351562 Z M 263.882812 126.539062 C 263.882812 129.367188 263.882812 131.535156 266.246094 133.847656 C 271.371094 138.886719 280.222656 135.316406 280.222656 128.277344 L 280.222656 126.609375 C 274.957031 127.992188 269.117188 127.972656 263.882812 126.539062 Z M 251.984375 303.292969 L 269.796875 303.292969 L 269.796875 253.464844 C 269.796875 251.011719 271.769531 249.039062 274.222656 249.039062 C 276.664062 249.039062 278.648438 251.011719 278.648438 253.464844 L 278.648438 303.292969 L 296.441406 303.292969 L 302.351562 238.613281 L 246.089844 238.613281 Z M 278.648438 312.140625 L 278.648438 327.167969 L 310.808594 327.167969 C 310.9375 324.765625 309.804688 324.082031 307.175781 324.082031 L 298.738281 324.082031 C 296.296875 324.082031 294.3125 322.109375 294.3125 319.660156 L 294.3125 312.132812 L 278.648438 312.132812 Z M 269.796875 312.140625 L 254.121094 312.140625 L 254.121094 319.664062 C 254.121094 322.117188 252.152344 324.089844 249.699219 324.089844 L 241.277344 324.089844 C 238.625 324.089844 237.515625 324.769531 237.644531 327.171875 L 269.804688 327.171875 L 269.804688 312.140625 Z M 196.347656 158.277344 L 214.824219 155.679688 L 213.945312 134.582031 L 180.90625 140.078125 Z M 215.363281 164.53125 L 203.125 166.25 C 206.582031 170.316406 209.238281 173.113281 211.40625 178.144531 C 212.605469 180.886719 213.378906 183.824219 213.769531 186.988281 L 237.207031 186.988281 L 237.382812 168.304688 L 219.355469 167.535156 C 217.511719 167.453125 215.9375 166.234375 215.363281 164.53125 Z M 169.402344 140.441406 C 166.519531 138.039062 164.097656 136.699219 160.28125 135.820312 L 146.898438 132.792969 L 131.527344 148.160156 C 129.804688 149.859375 127.03125 149.859375 125.304688 148.160156 L 109.933594 132.792969 L 96.621094 135.820312 C 92.820312 136.679688 88.953125 138.671875 86.316406 141.550781 L 71.910156 158.53125 L 80.851562 174.257812 L 90.453125 165.675781 C 93.300781 163.128906 97.796875 165.175781 97.796875 168.957031 L 97.816406 168.957031 L 97.816406 217.820312 L 159.058594 217.820312 L 159.058594 168.957031 C 159.058594 165.265625 163.574219 162.847656 166.726562 165.949219 L 176.027344 174.257812 L 184.984375 158.53125 L 170.578125 141.550781 C 170.191406 141.152344 169.792969 140.800781 169.402344 140.441406 Z M 204.914062 187.371094 C 204.210938 182.875 202.460938 179.128906 199.484375 175.617188 L 191.0625 165.675781 L 182.769531 180.273438 C 186.246094 183.386719 188.5625 185.683594 190.90625 189.65625 C 192.320312 192.039062 193.414062 194.597656 194.21875 197.378906 C 195.761719 192.582031 199.363281 188.570312 204.914062 187.371094 Z M 302.527344 212.480469 L 246.929688 218.335938 L 245.710938 218.40625 L 245.601562 229.761719 L 303.007812 229.761719 Z M 53.992188 211.152344 C 54.910156 211.171875 55.210938 211.4375 56.628906 211.066406 C 58.347656 210.617188 59.890625 209.257812 60.445312 206.835938 C 61.863281 200.640625 62.722656 195.179688 66 189.664062 C 68.335938 185.6875 70.660156 183.394531 74.136719 180.28125 L 65.84375 165.683594 L 57.425781 175.621094 C 54.164062 179.4375 52.40625 183.539062 51.847656 188.519531 L 49.953125 205.480469 C 49.585938 208.683594 51.355469 210.671875 53.992188 211.152344 Z M 119.769531 53.820312 C 122.472656 58.332031 123.402344 63.621094 122.816406 68.886719 C 130.988281 74.546875 141.078125 76.140625 150.679688 73.757812 C 147.777344 59.785156 133.636719 50.972656 119.769531 53.820312 Z M 113.820312 69.316406 C 114.628906 65.050781 114.035156 60.714844 111.476562 57.277344 C 108.820312 59.066406 107.121094 60.96875 106.332031 63.292969 C 105.433594 65.960938 105.519531 69.472656 106.5625 74.308594 C 109.230469 73.25 112.101562 71.496094 113.820312 69.316406 Z M 107.804688 83.210938 L 107.804688 95.675781 C 107.804688 97.375 108.214844 98.703125 109.128906 100.121094 C 113.449219 106.765625 120.488281 115.449219 128.480469 115.378906 C 136.398438 115.308594 143.402344 106.746094 147.6875 100.121094 C 148.617188 98.703125 149.035156 97.375 149.035156 95.675781 L 149.035156 83.101562 C 138.554688 84.753906 127.820312 82.652344 118.859375 76.851562 C 115.8125 79.792969 111.808594 81.960938 107.804688 83.210938 Z M 119.789062 122.328125 L 116.917969 127.308594 L 128.402344 138.789062 L 139.90625 127.308594 L 137.023438 122.3125 C 131.378906 124.800781 125.484375 124.820312 119.789062 122.328125 Z M 124.015625 293.242188 L 124.015625 245.792969 C 124.015625 243.355469 126.007812 241.371094 128.441406 241.371094 C 130.894531 241.371094 132.867188 243.359375 132.867188 245.792969 L 132.867188 272.230469 L 152.488281 272.230469 L 158.472656 226.664062 L 98.25 226.664062 L 104.558594 293.242188 Z M 123.839844 302.09375 L 104.972656 302.09375 L 104.972656 314.648438 C 104.972656 317.101562 102.980469 319.070312 100.546875 319.070312 L 93.464844 319.070312 C 91.679688 319.070312 90.636719 319.609375 89.972656 321.203125 C 89.257812 322.902344 89.238281 325.320312 89.542969 327.167969 L 123.839844 327.167969 Z M 123.839844 302.09375 " fill-opacity="1" fill-rule="nonzero"/></g></svg>