<svg xmlns="http://www.w3.org/2000/svg" xmlns:xlink="http://www.w3.org/1999/xlink" width="500" zoomAndPan="magnify" viewBox="0 0 375 374.999991" height="500" preserveAspectRatio="xMidYMid meet" version="1.0"><defs><clipPath id="1fbb4e7109"><path d="M 43.773438 43 L 331 43 L 331 334.839844 L 43.773438 334.839844 Z M 43.773438 43 " clip-rule="nonzero"/></clipPath></defs><rect x="-37.5" width="450" fill="#ffffff" y="-37.499999" height="449.999989" fill-opacity="1"/><rect x="-37.5" width="450" fill="#ffffff" y="-37.499999" height="449.999989" fill-opacity="1"/><g clip-path="url(#1fbb4e7109)"><path fill="#000000" d="M 211.59375 233.136719 C 212.148438 242.289062 212.105469 251.484375 211.507812 260.589844 C 211.035156 267.175781 210.269531 273.804688 209.539062 280.261719 C 207.917969 294.289062 206.378906 307.503906 207.746094 320.847656 L 208.214844 325.636719 L 198.640625 326.621094 L 198.171875 321.832031 C 196.71875 307.460938 198.382812 293.050781 200.007812 279.152344 C 200.734375 272.824219 201.503906 266.320312 201.933594 259.949219 C 202.53125 251.269531 202.574219 242.460938 202.019531 233.777344 L 201.71875 228.988281 L 211.335938 228.390625 Z M 330.683594 111.597656 C 330.125 118.226562 328.628906 124.597656 327.046875 130.84375 C 326.75 131.953125 326.492188 133.066406 326.195312 134.136719 C 323.800781 143.289062 319.738281 151.839844 315.761719 160.136719 C 312.515625 166.980469 309.394531 173.394531 307.214844 180.195312 C 305.933594 184.171875 303.792969 187.933594 301.785156 191.527344 C 299.519531 195.589844 297.339844 199.4375 296.527344 203.160156 C 295.503906 207.90625 294.5625 212.695312 293.664062 217.484375 C 291.742188 227.320312 289.730469 237.5 287.082031 247.421875 C 284.21875 258.109375 282.378906 269.359375 280.585938 280.261719 C 278.148438 295.015625 275.625 310.199219 270.582031 324.652344 C 269.941406 326.535156 269.257812 328.375 268.53125 330.214844 L 266.734375 334.703125 L 258.355469 331.324219 L 257.84375 331.109375 L 259.640625 326.621094 C 265.707031 311.480469 268.316406 295.53125 271.136719 278.636719 C 272.976562 267.519531 274.898438 256.015625 277.847656 244.898438 C 280.414062 235.273438 282.378906 225.269531 284.261719 215.558594 C 285.199219 210.726562 286.140625 205.894531 287.167969 201.105469 C 288.277344 195.929688 290.886719 191.269531 293.449219 186.738281 C 295.332031 183.402344 297.125 180.234375 298.109375 177.15625 C 300.503906 169.757812 303.878906 162.746094 307.128906 155.945312 C 311.0625 147.734375 314.78125 139.953125 316.917969 131.699219 C 318.070312 127.25 319.226562 122.71875 320.039062 118.183594 C 320.507812 115.703125 320.894531 113.222656 321.105469 110.785156 C 321.664062 103.984375 320.9375 98 318.96875 92.953125 C 311.488281 89.875 304.222656 88.890625 296.785156 89.402344 C 288.917969 89.917969 280.882812 92.097656 272.164062 95.132812 C 262.84375 98.382812 254.125 101.847656 245.703125 105.183594 C 239.421875 107.664062 232.921875 110.230469 226.125 112.753906 L 225.355469 112.453125 L 225.527344 112.96875 L 225.527344 113.007812 L 220.996094 114.632812 C 219.84375 115.0625 218.730469 115.445312 217.664062 115.875 C 208.300781 119.511719 202.789062 123.015625 199.027344 126.4375 C 196.035156 129.132812 194.109375 131.785156 192.1875 134.390625 C 191.585938 135.246094 190.945312 136.058594 190.347656 136.914062 C 188.210938 139.738281 189.578125 146.792969 191.246094 150.941406 C 191.800781 152.269531 192.355469 153.292969 192.871094 153.808594 C 195.347656 155.21875 199.453125 155.175781 203.429688 153.550781 C 205.90625 152.523438 209.457031 149.746094 212.574219 147.050781 C 214.027344 145.808594 215.398438 144.613281 216.507812 143.628906 L 221.253906 139.4375 L 224.460938 142.988281 C 225.144531 143.714844 225.699219 144.527344 226.296875 145.296875 C 226.511719 145.554688 226.726562 145.894531 226.9375 146.195312 C 228.519531 145.640625 229.929688 144.570312 231.214844 143.246094 C 232.964844 141.40625 234.375 139.183594 235.445312 137.085938 C 235.53125 136.914062 235.617188 136.746094 235.703125 136.617188 C 236.085938 135.890625 236.429688 135.160156 236.683594 134.519531 C 236.726562 134.476562 236.726562 134.390625 236.769531 134.347656 C 237.070312 133.664062 237.324219 132.980469 237.582031 132.296875 C 238.777344 129.132812 240.316406 125.199219 243.867188 122.589844 C 244.71875 121.949219 245.617188 121.476562 246.558594 121.050781 C 249.082031 119.9375 251.6875 119.636719 253.738281 119.382812 L 258.527344 118.78125 L 258.570312 118.953125 C 260.75 118.824219 262.929688 118.738281 265.066406 118.699219 C 268.65625 118.613281 272.078125 118.527344 275.453125 118.097656 L 285.113281 116.902344 L 285.03125 117.03125 C 291.226562 115.875 296.742188 114.25 301.742188 111.597656 L 305.976562 109.332031 L 310.507812 117.84375 L 306.273438 120.109375 C 298.109375 124.46875 289.304688 126.394531 278.832031 127.761719 C 278.019531 129.175781 277.207031 130.628906 276.4375 131.996094 C 272.292969 139.351562 268.273438 146.410156 262.757812 153.164062 C 268.445312 155.730469 272.804688 158.382812 276.78125 160.777344 C 277.933594 161.503906 279.128906 162.1875 280.285156 162.875 L 284.429688 165.3125 L 279.558594 173.609375 L 275.410156 171.171875 C 274.214844 170.441406 273.019531 169.714844 271.777344 168.988281 C 267.203125 166.210938 262.503906 163.34375 255.878906 160.691406 L 255.75 160.820312 L 252.84375 159.539062 L 248.480469 157.957031 L 248.566406 157.65625 C 245.53125 156.332031 241.042969 154.363281 235.914062 152.183594 C 233.5625 154.105469 231 155.390625 228.261719 155.988281 C 224.585938 156.800781 222.023438 155.132812 220.355469 153.335938 C 218.902344 154.621094 217.449219 155.816406 216.039062 156.972656 C 212.917969 159.496094 209.925781 161.546875 207.148438 162.660156 C 203.984375 163.941406 200.734375 164.585938 197.613281 164.585938 C 194.023438 164.585938 190.648438 163.730469 187.785156 162.105469 C 183.296875 159.539062 181.117188 151.242188 180.515625 148.632812 C 180.429688 148.289062 180.386719 148.078125 180.347656 147.949219 C 178.976562 141.0625 179.832031 135.160156 182.738281 131.3125 C 183.339844 130.542969 183.894531 129.773438 184.449219 129.003906 C 186.332031 126.394531 188.425781 123.53125 191.546875 120.535156 C 188.808594 113.4375 186.757812 106.082031 184.835938 98.898438 C 183.125 92.566406 181.371094 86.023438 179.105469 79.824219 C 174.703125 67.679688 163.546875 57.285156 151.40625 53.78125 C 150.59375 53.523438 149.738281 53.351562 148.929688 53.179688 C 136.105469 50.488281 120.074219 57.757812 112.421875 69.6875 C 111.78125 70.671875 111.226562 71.699219 110.714844 72.726562 C 105.96875 81.707031 104.386719 92.398438 106.695312 100.863281 C 109.601562 111.425781 115.246094 119.167969 122.339844 128.148438 C 130.25 138.199219 137.558594 144.871094 145.082031 149.058594 C 145.550781 148.761719 146.0625 148.417969 146.535156 148.121094 C 144.566406 140.890625 141.191406 134.390625 137 129.945312 L 133.710938 126.4375 L 140.722656 119.808594 L 144.011719 123.316406 C 150.082031 129.773438 154.613281 139.011719 156.75 149.402344 L 157.433594 152.695312 L 154.527344 154.449219 C 152.816406 155.519531 151.152344 156.585938 149.441406 157.699219 L 148.03125 158.640625 C 141.660156 162.875 135.589844 167.449219 129.863281 172.238281 L 147.046875 186.949219 L 140.761719 194.261719 L 122.554688 178.652344 C 122.511719 178.695312 122.46875 178.695312 122.46875 178.738281 L 121.484375 179.636719 L 120.203125 179.9375 C 103.320312 183.65625 87.246094 197.8125 80.191406 215.21875 C 74.894531 228.261719 74.894531 243.441406 80.148438 256.914062 C 82.246094 262.257812 81.175781 268.503906 80.066406 275.132812 C 79.421875 278.980469 78.738281 283 78.613281 287.105469 L 78.441406 291.9375 L 77.714844 291.9375 L 68.824219 291.640625 L 68.992188 286.804688 C 69.078125 284.753906 69.25 282.742188 69.507812 280.777344 C 69.804688 278.253906 70.191406 275.816406 70.574219 273.550781 C 71.472656 268.289062 72.285156 263.328125 71.171875 260.464844 C 65.019531 244.726562 65.0625 226.933594 71.257812 211.625 C 79.039062 192.425781 95.667969 177.15625 114.261719 171.597656 L 104.773438 163.472656 L 43.945312 163.472656 L 43.945312 153.851562 L 108.320312 153.851562 L 122.425781 165.953125 C 126.871094 162.1875 131.488281 158.554688 136.316406 155.089844 C 126.914062 148.847656 119.691406 140.421875 114.730469 134.179688 C 107.207031 124.640625 100.710938 115.789062 97.375 103.472656 C 95.667969 97.1875 95.539062 90.128906 96.90625 83.160156 C 98.144531 76.703125 100.667969 70.289062 104.300781 64.558594 C 114.089844 49.246094 134.09375 40.308594 150.894531 43.816406 C 156.367188 44.96875 161.707031 47.238281 166.582031 50.316406 C 176.285156 56.429688 184.234375 65.882812 188.167969 76.660156 C 190.5625 83.246094 192.355469 89.960938 194.109375 96.503906 C 195.820312 102.746094 197.445312 108.777344 199.496094 114.507812 C 200.691406 113.738281 201.976562 112.964844 203.386719 112.238281 C 203.386719 112.238281 203.429688 112.238281 203.429688 112.238281 C 204.710938 111.554688 206.078125 110.871094 207.53125 110.1875 C 207.789062 110.058594 208.085938 109.929688 208.34375 109.800781 C 209.457031 109.289062 210.652344 108.777344 211.847656 108.261719 C 212.277344 108.089844 212.660156 107.921875 213.089844 107.75 C 214.585938 107.152344 216.167969 106.550781 217.832031 105.953125 C 226.382812 102.917969 234.417969 99.710938 242.199219 96.628906 C 250.703125 93.253906 259.554688 89.746094 269.042969 86.410156 C 274.941406 84.355469 281.054688 82.519531 287.335938 81.320312 C 298.578125 79.226562 310.464844 79.355469 322.945312 84.65625 C 325.253906 85.640625 327.089844 87.523438 327.988281 89.832031 C 330.425781 95.859375 331.367188 103.300781 330.683594 111.597656 Z M 254.9375 128.789062 C 253.484375 128.960938 251.859375 129.175781 250.664062 129.644531 C 250.277344 129.816406 249.894531 129.988281 249.59375 130.199219 C 248.3125 131.140625 247.457031 133.324219 246.558594 135.632812 C 246.257812 136.445312 245.917969 137.257812 245.617188 138.027344 C 245.105469 139.222656 244.59375 140.335938 244.035156 141.40625 C 243.695312 142.046875 243.351562 142.644531 243.011719 143.246094 C 242.796875 143.585938 242.625 143.972656 242.414062 144.3125 C 246.984375 146.28125 250.875 147.992188 253.398438 149.101562 C 259.125 142.644531 263.058594 135.847656 267.375 128.148438 C 266.648438 128.148438 265.964844 128.191406 265.28125 128.191406 C 261.691406 128.277344 258.3125 128.363281 254.9375 128.789062 Z M 122.726562 291.980469 C 123.367188 289.457031 123.75 287.320312 123.964844 285.4375 C 125.203125 272.949219 117.296875 239.292969 116.398438 235.488281 L 115.285156 230.785156 L 105.925781 233.007812 L 107.039062 237.710938 C 109.386719 247.589844 115.328125 275.261719 114.390625 284.453125 C 114.21875 286.207031 113.75 288.515625 112.9375 291.296875 L 112.894531 291.425781 C 110.542969 299.851562 106.269531 310.285156 103.617188 316.3125 C 103.488281 316.65625 103.316406 317 103.191406 317.296875 L 101.265625 321.703125 L 110.070312 325.550781 L 111.652344 321.917969 L 111.996094 321.148438 C 113.664062 317.296875 116.226562 311.226562 118.535156 304.9375 C 119.5625 307.632812 120.117188 310.15625 120.332031 312.765625 C 120.671875 317.640625 121.015625 322.6875 121.015625 327.605469 C 121.015625 328.417969 121.015625 329.230469 121.015625 330 L 120.886719 334.832031 L 130.503906 335.132812 L 130.589844 332.4375 L 130.675781 330.296875 C 130.847656 324.140625 130.417969 318.023438 129.949219 311.609375 C 129.351562 303.996094 125.972656 297.242188 122.726562 291.980469 Z M 245.832031 74.863281 L 241.472656 58.140625 L 232.152344 60.578125 L 236.511719 77.300781 Z M 225.398438 84.699219 L 211.804688 71.914062 L 205.222656 78.925781 L 218.816406 91.710938 Z M 271.265625 69.601562 L 274 60.964844 L 264.8125 58.054688 L 262.714844 64.726562 L 259.167969 75.847656 L 268.359375 78.753906 Z M 58.351562 143.929688 L 58.351562 134.304688 L 48.730469 134.304688 L 48.730469 143.929688 C 54.757812 143.929688 53.261719 143.929688 53.605469 143.929688 C 53.820312 143.929688 54.757812 143.929688 58.351562 143.929688 Z M 77.628906 143.929688 L 77.628906 134.304688 L 68.011719 134.304688 L 68.011719 143.929688 C 77.628906 143.929688 67.96875 143.929688 77.628906 143.929688 Z M 87.246094 143.929688 C 96.863281 143.929688 87.246094 143.929688 96.863281 143.929688 L 96.863281 134.304688 L 87.246094 134.304688 Z M 87.246094 124.640625 L 87.246094 115.019531 L 48.730469 115.019531 L 48.730469 124.640625 Z M 229.160156 186.222656 L 238.308594 184.554688 L 234.933594 165.609375 L 225.441406 167.320312 L 227.152344 176.773438 L 220.953125 177.882812 L 220.398438 181.21875 C 220.140625 182.671875 219.800781 184 219.371094 185.28125 C 218.902344 186.566406 218.347656 187.804688 217.578125 189.046875 L 215.867188 191.996094 L 219.929688 196.828125 L 213.261719 202.472656 L 209.199219 197.640625 L 205.992188 198.839844 C 203.429688 199.824219 200.691406 200.292969 197.828125 200.292969 L 194.453125 200.292969 L 192.316406 206.238281 L 184.105469 203.285156 L 186.246094 197.34375 L 183.59375 195.203125 C 181.414062 193.40625 179.617188 191.3125 178.25 188.875 L 176.585938 185.925781 L 170.386719 187.035156 L 168.847656 178.441406 L 175.046875 177.328125 L 175.601562 173.992188 C 175.859375 172.539062 176.199219 171.210938 176.625 169.929688 L 178.25 165.398438 L 174.148438 163.898438 L 169.1875 162.105469 L 167.566406 166.636719 C 167.265625 167.40625 167.050781 168.175781 166.839844 168.988281 L 157.691406 170.65625 L 162.605469 198.242188 L 171.796875 196.574219 C 172.738281 197.898438 173.804688 199.136719 174.960938 200.335938 L 171.796875 209.144531 L 198.128906 218.640625 L 201.292969 209.828125 C 202.914062 209.660156 204.539062 209.359375 206.121094 208.972656 L 212.148438 216.117188 L 233.519531 197.984375 L 227.535156 190.882812 C 227.878906 190.113281 228.179688 189.34375 228.476562 188.574219 C 228.691406 187.804688 228.949219 187.035156 229.160156 186.222656 Z M 229.160156 186.222656 " fill-opacity="1" fill-rule="nonzero"/></g></svg>