<svg xmlns="http://www.w3.org/2000/svg" xmlns:xlink="http://www.w3.org/1999/xlink" width="500" zoomAndPan="magnify" viewBox="0 0 375 374.999991" height="500" preserveAspectRatio="xMidYMid meet" version="1.0"><defs><clipPath id="0b861b0e43"><path d="M 43.773438 40.089844 L 331.023438 40.089844 L 331.023438 334.839844 L 43.773438 334.839844 Z M 43.773438 40.089844 " clip-rule="nonzero"/></clipPath><clipPath id="b038a36337"><path d="M 1 3 L 288.023438 3 L 288.023438 294.839844 L 1 294.839844 Z M 1 3 " clip-rule="nonzero"/></clipPath><clipPath id="847b07cd30"><rect x="0" width="289" y="0" height="295"/></clipPath></defs><rect x="-37.5" width="450" fill="#ffffff" y="-37.499999" height="449.999989" fill-opacity="1"/><rect x="-37.5" width="450" fill="#ffffff" y="-37.499999" height="449.999989" fill-opacity="1"/><g clip-path="url(#0b861b0e43)"><g transform="matrix(1, 0, 0, 1, 43, 40)"><g clip-path="url(#847b07cd30)"><g clip-path="url(#b038a36337)"><path fill="#000000" d="M 120.402344 193.136719 C 119.847656 202.289062 119.890625 211.484375 120.488281 220.589844 C 120.960938 227.175781 121.730469 233.804688 122.457031 240.261719 C 124.082031 254.289062 125.617188 267.503906 124.25 280.847656 L 123.78125 285.636719 L 133.355469 286.621094 L 133.824219 281.832031 C 135.28125 267.460938 133.613281 253.050781 131.988281 239.152344 C 131.261719 232.824219 130.492188 226.320312 130.066406 219.949219 C 129.464844 211.269531 129.421875 202.460938 129.980469 193.777344 L 130.277344 188.988281 L 120.660156 188.390625 Z M 1.316406 71.597656 C 1.871094 78.226562 3.367188 84.597656 4.949219 90.84375 C 5.246094 91.953125 5.503906 93.066406 5.804688 94.136719 C 8.195312 103.289062 12.257812 111.839844 16.234375 120.136719 C 19.480469 126.980469 22.601562 133.394531 24.78125 140.195312 C 26.066406 144.171875 28.203125 147.933594 30.210938 151.527344 C 32.476562 155.589844 34.65625 159.4375 35.46875 163.160156 C 36.496094 167.90625 37.433594 172.695312 38.332031 177.484375 C 40.257812 187.320312 42.265625 197.5 44.914062 207.421875 C 47.78125 218.109375 49.617188 229.359375 51.414062 240.261719 C 53.847656 255.015625 56.371094 270.199219 61.414062 284.652344 C 62.054688 286.535156 62.738281 288.375 63.46875 290.214844 L 65.261719 294.703125 L 73.640625 291.324219 L 74.152344 291.109375 L 72.359375 286.621094 C 66.289062 271.480469 63.679688 255.53125 60.859375 238.636719 C 59.019531 227.519531 57.097656 216.015625 54.148438 204.898438 C 51.582031 195.273438 49.617188 185.269531 47.738281 175.558594 C 46.796875 170.726562 45.855469 165.894531 44.828125 161.105469 C 43.71875 155.929688 41.109375 151.269531 38.546875 146.738281 C 36.664062 143.402344 34.871094 140.234375 33.886719 137.15625 C 31.492188 129.757812 28.117188 122.746094 24.867188 115.945312 C 20.933594 107.734375 17.214844 99.953125 15.078125 91.699219 C 13.925781 87.25 12.769531 82.71875 11.957031 78.183594 C 11.488281 75.703125 11.105469 73.222656 10.890625 70.785156 C 10.335938 63.984375 11.0625 58 13.027344 52.953125 C 20.507812 49.875 27.773438 48.890625 35.210938 49.402344 C 43.078125 49.917969 51.113281 52.097656 59.832031 55.132812 C 69.152344 58.382812 77.871094 61.847656 86.292969 65.183594 C 92.578125 67.664062 99.074219 70.230469 105.871094 72.753906 L 106.640625 72.453125 L 106.46875 72.96875 L 106.46875 73.007812 L 111 74.632812 C 112.152344 75.0625 113.265625 75.445312 114.335938 75.875 C 123.695312 79.511719 129.210938 83.015625 132.972656 86.4375 C 135.964844 89.132812 137.886719 91.785156 139.808594 94.390625 C 140.410156 95.246094 141.050781 96.058594 141.648438 96.914062 C 143.785156 99.738281 142.417969 106.792969 140.75 110.941406 C 140.195312 112.269531 139.640625 113.292969 139.125 113.808594 C 136.648438 115.21875 132.542969 115.175781 128.566406 113.550781 C 126.089844 112.523438 122.542969 109.746094 119.421875 107.050781 C 117.96875 105.808594 116.597656 104.613281 115.488281 103.628906 L 110.742188 99.4375 L 107.539062 102.988281 C 106.855469 103.714844 106.296875 104.527344 105.699219 105.296875 C 105.484375 105.554688 105.273438 105.894531 105.058594 106.195312 C 103.476562 105.640625 102.066406 104.570312 100.785156 103.246094 C 99.03125 101.40625 97.621094 99.183594 96.550781 97.085938 C 96.464844 96.914062 96.382812 96.746094 96.296875 96.617188 C 95.910156 95.890625 95.570312 95.160156 95.3125 94.519531 C 95.269531 94.476562 95.269531 94.390625 95.226562 94.347656 C 94.925781 93.664062 94.671875 92.980469 94.414062 92.296875 C 93.21875 89.132812 91.679688 85.199219 88.132812 82.589844 C 87.277344 81.949219 86.378906 81.476562 85.4375 81.050781 C 82.917969 79.9375 80.308594 79.636719 78.257812 79.382812 L 73.46875 78.78125 L 73.425781 78.953125 C 71.246094 78.824219 69.066406 78.738281 66.929688 78.699219 C 63.339844 78.613281 59.917969 78.527344 56.542969 78.097656 L 46.882812 76.902344 L 46.96875 77.03125 C 40.769531 75.875 35.253906 74.25 30.253906 71.597656 L 26.023438 69.332031 L 21.492188 77.84375 L 25.722656 80.109375 C 33.886719 84.46875 42.691406 86.394531 53.164062 87.761719 C 53.976562 89.175781 54.789062 90.628906 55.558594 91.996094 C 59.707031 99.351562 63.722656 106.410156 69.238281 113.164062 C 63.550781 115.730469 59.191406 118.382812 55.21875 120.777344 C 54.0625 121.503906 52.867188 122.1875 51.710938 122.875 L 47.566406 125.3125 L 52.4375 133.609375 L 56.585938 131.171875 C 57.78125 130.441406 58.980469 129.714844 60.21875 128.988281 C 64.792969 126.210938 69.492188 123.34375 76.121094 120.691406 L 76.246094 120.820312 L 79.15625 119.539062 L 83.515625 117.957031 L 83.429688 117.65625 C 86.464844 116.332031 90.953125 114.363281 96.082031 112.183594 C 98.433594 114.105469 100.996094 115.390625 103.734375 115.988281 C 107.410156 116.800781 109.972656 115.132812 111.640625 113.335938 C 113.09375 114.621094 114.546875 115.816406 115.957031 116.972656 C 119.078125 119.496094 122.070312 121.546875 124.847656 122.660156 C 128.011719 123.941406 131.261719 124.585938 134.382812 124.585938 C 137.972656 124.585938 141.347656 123.730469 144.214844 122.105469 C 148.703125 119.539062 150.882812 111.242188 151.480469 108.632812 C 151.566406 108.289062 151.609375 108.078125 151.652344 107.949219 C 153.019531 101.0625 152.164062 95.160156 149.257812 91.3125 C 148.660156 90.542969 148.101562 89.773438 147.546875 89.003906 C 145.667969 86.394531 143.570312 83.53125 140.453125 80.535156 C 143.1875 73.4375 145.238281 66.082031 147.164062 58.898438 C 148.871094 52.566406 150.625 46.023438 152.890625 39.824219 C 157.292969 27.679688 168.449219 17.285156 180.589844 13.78125 C 181.402344 13.523438 182.257812 13.351562 183.070312 13.179688 C 195.890625 10.488281 211.921875 17.757812 219.574219 29.6875 C 220.214844 30.671875 220.769531 31.699219 221.285156 32.726562 C 226.027344 41.707031 227.609375 52.398438 225.300781 60.863281 C 222.394531 71.425781 216.753906 79.167969 209.65625 88.148438 C 201.75 98.199219 194.4375 104.871094 186.914062 109.058594 C 186.445312 108.761719 185.933594 108.417969 185.460938 108.121094 C 187.429688 100.890625 190.804688 94.390625 194.996094 89.945312 L 198.285156 86.4375 L 191.277344 79.808594 L 187.984375 83.316406 C 181.914062 89.773438 177.382812 99.011719 175.246094 109.402344 L 174.5625 112.695312 L 177.46875 114.449219 C 179.179688 115.519531 180.847656 116.585938 182.554688 117.699219 L 183.964844 118.640625 C 190.335938 122.875 196.40625 127.449219 202.132812 132.238281 L 184.949219 146.949219 L 191.234375 154.261719 L 209.441406 138.652344 C 209.484375 138.695312 209.527344 138.695312 209.527344 138.738281 L 210.511719 139.636719 L 211.792969 139.9375 C 228.679688 143.65625 244.75 157.8125 251.804688 175.21875 C 257.105469 188.261719 257.105469 203.441406 251.847656 216.914062 C 249.75 222.257812 250.820312 228.503906 251.933594 235.132812 C 252.574219 238.980469 253.257812 243 253.386719 247.105469 L 253.554688 251.9375 L 254.28125 251.9375 L 263.175781 251.640625 L 263.003906 246.804688 C 262.917969 244.753906 262.746094 242.742188 262.488281 240.777344 C 262.191406 238.253906 261.804688 235.816406 261.421875 233.550781 C 260.523438 228.289062 259.710938 223.328125 260.824219 220.464844 C 266.976562 204.726562 266.933594 186.933594 260.738281 171.625 C 252.957031 152.425781 236.328125 137.15625 217.734375 131.597656 L 227.226562 123.472656 L 288.050781 123.472656 L 288.050781 113.851562 L 223.675781 113.851562 L 209.570312 125.953125 C 205.125 122.1875 200.507812 118.554688 195.679688 115.089844 C 205.082031 108.847656 212.308594 100.421875 217.265625 94.179688 C 224.789062 84.640625 231.285156 75.789062 234.621094 63.472656 C 236.328125 57.1875 236.457031 50.128906 235.089844 43.160156 C 233.851562 36.703125 231.328125 30.289062 227.695312 24.558594 C 217.90625 9.246094 197.902344 0.308594 181.101562 3.816406 C 175.632812 4.96875 170.289062 7.238281 165.414062 10.316406 C 155.710938 16.429688 147.761719 25.882812 143.828125 36.660156 C 141.433594 43.246094 139.640625 49.960938 137.886719 56.503906 C 136.175781 62.746094 134.554688 68.777344 132.5 74.507812 C 131.304688 73.738281 130.023438 72.96875 128.609375 72.238281 C 128.609375 72.238281 128.570312 72.238281 128.570312 72.238281 C 127.285156 71.554688 125.917969 70.871094 124.464844 70.1875 C 124.207031 70.058594 123.910156 69.929688 123.652344 69.800781 C 122.542969 69.289062 121.34375 68.777344 120.148438 68.261719 C 119.71875 68.089844 119.335938 67.921875 118.90625 67.75 C 117.410156 67.152344 115.832031 66.550781 114.164062 65.953125 C 105.613281 62.917969 97.578125 59.710938 89.796875 56.628906 C 81.292969 53.253906 72.445312 49.746094 62.953125 46.410156 C 57.054688 44.355469 50.941406 42.519531 44.660156 41.320312 C 33.417969 39.226562 21.535156 39.355469 9.050781 44.65625 C 6.742188 45.640625 4.90625 47.523438 4.007812 49.832031 C 1.570312 55.859375 0.632812 63.300781 1.316406 71.597656 Z M 77.058594 88.789062 C 78.511719 88.960938 80.136719 89.175781 81.335938 89.644531 C 81.71875 89.816406 82.105469 89.988281 82.402344 90.203125 C 83.6875 91.140625 84.539062 93.324219 85.4375 95.632812 C 85.738281 96.445312 86.078125 97.257812 86.378906 98.027344 C 86.890625 99.222656 87.40625 100.335938 87.960938 101.40625 C 88.300781 102.046875 88.644531 102.644531 88.984375 103.246094 C 89.199219 103.585938 89.371094 103.972656 89.585938 104.3125 C 85.011719 106.28125 81.121094 107.992188 78.597656 109.101562 C 72.871094 102.644531 68.9375 95.847656 64.621094 88.148438 C 65.347656 88.148438 66.03125 88.191406 66.714844 88.191406 C 70.304688 88.277344 73.683594 88.363281 77.058594 88.789062 Z M 209.273438 251.980469 C 208.628906 249.457031 208.246094 247.320312 208.03125 245.4375 C 206.792969 232.949219 214.699219 199.292969 215.597656 195.488281 L 216.710938 190.785156 L 226.070312 193.007812 L 224.960938 197.710938 C 222.609375 207.589844 216.667969 235.261719 217.605469 244.453125 C 217.777344 246.207031 218.25 248.515625 219.0625 251.296875 L 219.101562 251.425781 C 221.453125 259.851562 225.730469 270.285156 228.378906 276.3125 C 228.507812 276.65625 228.679688 277 228.808594 277.296875 L 230.730469 281.703125 L 221.925781 285.550781 L 220.34375 281.917969 L 220 281.148438 C 218.335938 277.296875 215.769531 271.226562 213.460938 264.9375 C 212.433594 267.632812 211.878906 270.15625 211.664062 272.765625 C 211.324219 277.640625 210.980469 282.6875 210.980469 287.605469 C 210.980469 288.417969 210.980469 289.230469 210.980469 290 L 211.109375 294.832031 L 201.492188 295.132812 L 201.40625 292.4375 L 201.320312 290.296875 C 201.148438 284.140625 201.578125 278.023438 202.046875 271.609375 C 202.644531 264 206.023438 257.242188 209.273438 251.980469 Z M 86.164062 34.863281 L 90.523438 18.140625 L 99.84375 20.578125 L 95.484375 37.300781 Z M 106.597656 44.699219 L 120.191406 31.914062 L 126.773438 38.925781 L 113.179688 51.710938 Z M 60.730469 29.601562 L 57.996094 20.964844 L 67.1875 18.058594 L 69.28125 24.726562 L 72.828125 35.847656 L 63.636719 38.753906 Z M 273.648438 103.929688 L 273.648438 94.304688 L 283.265625 94.304688 L 283.265625 103.929688 C 277.238281 103.929688 278.734375 103.929688 278.390625 103.929688 C 278.179688 103.929688 277.238281 103.929688 273.648438 103.929688 Z M 254.367188 103.929688 L 254.367188 94.304688 L 263.984375 94.304688 L 263.984375 103.929688 C 254.367188 103.929688 264.027344 103.929688 254.367188 103.929688 Z M 244.75 103.929688 C 235.132812 103.929688 244.75 103.929688 235.132812 103.929688 L 235.132812 94.304688 L 244.75 94.304688 Z M 244.75 84.640625 L 244.75 75.019531 L 283.265625 75.019531 L 283.265625 84.640625 Z M 102.835938 146.222656 L 93.6875 144.554688 L 97.066406 125.609375 L 101.808594 126.464844 L 106.554688 127.320312 L 104.84375 136.773438 L 111.042969 137.882812 L 111.597656 141.21875 C 111.855469 142.671875 112.195312 144 112.625 145.28125 C 113.09375 146.566406 113.648438 147.804688 114.417969 149.046875 L 116.128906 151.996094 L 112.070312 156.828125 L 118.738281 162.472656 L 122.796875 157.640625 L 126.003906 158.839844 C 128.570312 159.824219 131.304688 160.292969 134.167969 160.292969 L 137.546875 160.292969 L 139.683594 166.238281 L 147.890625 163.285156 L 145.753906 157.34375 L 148.402344 155.203125 C 150.582031 153.40625 152.378906 151.3125 153.746094 148.875 L 155.414062 145.925781 L 161.609375 147.035156 L 163.148438 138.441406 L 156.953125 137.328125 L 156.394531 133.992188 C 156.140625 132.539062 155.796875 131.210938 155.371094 129.929688 L 153.746094 125.398438 L 157.847656 123.898438 L 162.808594 122.105469 L 164.433594 126.636719 C 164.730469 127.40625 164.945312 128.175781 165.160156 128.988281 L 174.304688 130.65625 L 169.390625 158.242188 L 160.199219 156.574219 C 159.257812 157.898438 158.191406 159.136719 157.035156 160.335938 L 160.199219 169.144531 L 133.867188 178.640625 L 130.707031 169.828125 C 129.082031 169.660156 127.457031 169.359375 125.875 168.972656 L 119.847656 176.117188 L 98.476562 157.984375 L 104.460938 150.882812 C 104.117188 150.113281 103.820312 149.34375 103.519531 148.574219 C 103.304688 147.804688 103.050781 147.035156 102.835938 146.222656 Z M 102.835938 146.222656 " fill-opacity="1" fill-rule="nonzero"/></g></g></g></g></svg>