<svg xmlns="http://www.w3.org/2000/svg" xmlns:xlink="http://www.w3.org/1999/xlink" width="500" zoomAndPan="magnify" viewBox="0 0 375 374.999991" height="500" preserveAspectRatio="xMidYMid meet" version="1.0"><defs><clipPath id="5298322be0"><path d="M 67 41.871094 L 307 41.871094 L 307 332.871094 L 67 332.871094 Z M 67 41.871094 " clip-rule="nonzero"/></clipPath></defs><rect x="-37.5" width="450" fill="#ffffff" y="-37.499999" height="449.999989" fill-opacity="1"/><rect x="-37.5" width="450" fill="#ffffff" y="-37.499999" height="449.999989" fill-opacity="1"/><g clip-path="url(#5298322be0)"><path fill="#000000" d="M 236.144531 303.839844 L 231.804688 304.304688 C 231.804688 304.613281 231.804688 304.921875 232.117188 305.386719 C 233.511719 308.019531 234.90625 310.65625 236.144531 313.289062 C 236.917969 314.835938 236.300781 316.695312 234.75 317.472656 C 233.199219 318.246094 231.339844 317.625 230.566406 316.078125 C 229.171875 313.445312 227.777344 310.808594 226.539062 308.175781 C 224.988281 304.921875 225.453125 301.359375 227.625 299.191406 C 228.089844 298.726562 228.707031 298.417969 229.328125 298.417969 L 235.371094 297.640625 C 235.988281 297.640625 236.453125 297.175781 236.765625 296.710938 C 237.382812 295.78125 237.847656 294.234375 237.382812 292.21875 L 235.835938 289.585938 C 234.75 287.882812 234.128906 286.953125 233.976562 286.644531 C 233.199219 285.867188 232.269531 285.25 231.1875 285.09375 C 231.03125 285.09375 230.875 285.09375 230.722656 285.09375 C 230.101562 285.09375 229.328125 286.023438 229.019531 287.261719 C 228.398438 290.207031 227.160156 292.683594 225.300781 294.699219 C 224.679688 295.472656 223.90625 296.09375 222.976562 296.710938 C 219.722656 299.347656 215.695312 301.359375 211.203125 302.445312 L 185.484375 308.484375 C 185.019531 308.640625 184.867188 308.949219 184.710938 309.261719 C 184.554688 309.878906 184.710938 310.65625 185.019531 310.964844 C 185.019531 311.121094 185.175781 311.121094 185.175781 311.273438 C 185.332031 311.429688 185.484375 311.585938 185.640625 311.894531 C 185.796875 312.050781 186.105469 312.203125 186.414062 312.515625 C 186.726562 312.667969 187.65625 312.667969 188.273438 312.667969 C 189.203125 312.667969 190.132812 312.824219 191.0625 312.980469 C 193.695312 313.597656 195.867188 315.457031 197.414062 318.554688 C 198.1875 320.105469 197.570312 321.964844 196.175781 322.738281 C 195.710938 323.046875 195.246094 323.046875 194.78125 323.046875 C 193.695312 323.046875 192.613281 322.429688 191.992188 321.34375 C 191.21875 319.949219 190.441406 319.175781 189.667969 318.867188 C 189.359375 318.867188 189.050781 318.710938 188.585938 318.710938 C 188.585938 318.867188 188.585938 319.019531 188.585938 319.332031 C 188.429688 320.878906 187.808594 322.117188 187.34375 323.203125 L 187.035156 323.667969 C 186.726562 324.289062 186.726562 325.21875 187.035156 325.992188 C 187.34375 326.457031 188.121094 326.613281 188.429688 326.613281 C 189.667969 326.613281 190.90625 326.613281 192.300781 326.613281 C 193.078125 326.613281 193.851562 326.457031 194.625 326.457031 L 212.75 326.148438 C 213.214844 326.148438 213.527344 325.992188 213.679688 325.835938 C 214.144531 325.527344 214.300781 324.597656 214.300781 323.976562 C 214.457031 323.359375 214.457031 323.046875 214.457031 322.582031 C 214.457031 321.964844 214.457031 321.035156 214.765625 319.949219 C 214.765625 319.640625 214.921875 319.484375 215.074219 319.332031 C 216.003906 317.78125 217.398438 316.851562 219.101562 316.542969 C 220.652344 316.230469 222.355469 316.851562 223.597656 317.9375 C 223.90625 318.089844 224.058594 318.402344 224.214844 318.710938 L 229.171875 327.542969 C 229.949219 329.089844 229.484375 330.949219 227.933594 331.722656 C 226.382812 332.5 224.523438 332.035156 223.75 330.484375 L 220.496094 324.597656 C 220.496094 324.753906 220.496094 324.90625 220.34375 325.21875 C 220.1875 326.457031 219.722656 328.78125 217.863281 330.484375 C 216.933594 331.414062 215.386719 332.34375 212.75 332.5 L 194.625 332.808594 C 193.851562 332.808594 193.230469 332.808594 192.457031 332.964844 C 191.371094 332.964844 190.441406 333.117188 189.359375 333.117188 C 188.894531 333.117188 188.273438 333.117188 187.808594 333.117188 C 184.710938 332.964844 182.234375 331.257812 181.148438 328.78125 C 180.0625 326.457031 180.0625 323.667969 181.148438 321.34375 L 181.457031 320.722656 C 181.921875 319.949219 182.078125 319.484375 182.078125 319.019531 C 182.078125 318.402344 181.921875 317.78125 181.769531 317.472656 C 181.613281 317.160156 181.457031 317.007812 181.304688 316.695312 C 180.992188 316.386719 180.683594 316.078125 180.375 315.921875 C 180.0625 315.613281 179.753906 315.148438 179.597656 314.835938 C 178.203125 312.824219 177.894531 310.191406 178.667969 307.867188 C 179.445312 305.542969 181.148438 303.839844 183.472656 303.0625 C 183.625 303.0625 183.625 303.0625 183.78125 302.910156 L 209.652344 296.710938 C 213.214844 295.78125 216.46875 294.234375 219.101562 292.066406 C 219.257812 291.910156 219.257812 291.910156 219.414062 291.910156 C 219.878906 291.601562 220.34375 291.289062 220.652344 290.824219 C 221.738281 289.742188 222.511719 288.191406 222.820312 286.179688 C 223.75 281.996094 226.847656 279.207031 230.566406 279.050781 C 231.03125 279.050781 231.496094 279.050781 231.960938 279.207031 C 235.058594 279.671875 237.230469 281.53125 238.15625 282.460938 C 238.46875 282.769531 238.933594 283.234375 241.101562 286.644531 L 242.960938 289.742188 C 243.117188 290.050781 243.269531 290.207031 243.269531 290.515625 C 244.199219 294.078125 243.582031 297.796875 241.722656 300.585938 C 240.636719 302.289062 238.46875 303.683594 236.144531 303.839844 Z M 174.796875 290.359375 C 174.796875 291.445312 174.953125 292.683594 175.417969 293.921875 C 175.726562 295.007812 176.347656 295.9375 177.273438 296.867188 C 178.515625 298.105469 180.21875 298.882812 182.234375 298.882812 C 183.007812 298.882812 183.78125 298.726562 184.710938 298.570312 C 186.105469 298.105469 187.5 297.640625 188.894531 297.023438 C 189.515625 296.710938 190.132812 296.558594 190.753906 296.246094 L 207.019531 290.359375 C 208.878906 289.742188 210.273438 288.5 211.046875 286.953125 C 212.132812 284.785156 211.820312 282.613281 211.667969 281.375 C 211.667969 281.21875 211.667969 281.21875 211.667969 281.066406 C 211.976562 281.375 212.132812 281.53125 212.441406 281.839844 L 216.003906 285.25 C 217.242188 286.488281 219.257812 286.332031 220.34375 285.09375 C 221.582031 283.855469 221.425781 281.839844 220.1875 280.753906 L 216.625 277.347656 C 215.851562 276.726562 214.921875 275.644531 213.992188 275.023438 L 212.75 274.09375 C 212.441406 273.9375 212.285156 273.785156 211.976562 273.628906 C 210.273438 273.011719 208.414062 273.164062 206.863281 274.09375 C 205.46875 275.023438 204.539062 276.574219 204.539062 278.277344 C 204.539062 279.671875 204.851562 280.601562 205.160156 281.21875 C 205.316406 281.53125 205.46875 281.683594 205.46875 282.148438 C 205.625 282.769531 205.625 283.542969 205.46875 284.007812 C 205.316406 284.164062 205.160156 284.320312 204.695312 284.472656 L 188.429688 290.359375 C 187.808594 290.671875 187.035156 290.824219 186.261719 291.136719 C 185.019531 291.601562 183.9375 292.066406 182.851562 292.375 C 182.078125 292.53125 181.613281 292.53125 181.613281 292.375 C 181.457031 292.21875 181.304688 291.910156 181.148438 291.753906 C 181.148438 291.753906 181.148438 291.601562 181.148438 291.601562 C 180.992188 291.289062 180.992188 290.980469 180.992188 290.824219 C 180.992188 290.515625 180.992188 290.359375 181.148438 290.050781 C 181.304688 289.121094 181.457031 288.035156 181.148438 286.796875 C 181.148438 286.644531 180.992188 286.332031 180.992188 286.179688 C 181.304688 286.023438 181.613281 286.023438 181.769531 286.023438 C 182.078125 286.023438 182.386719 286.023438 182.699219 286.179688 C 183.007812 286.332031 183.625 286.644531 184.554688 287.417969 C 185.175781 288.035156 185.949219 288.347656 186.726562 288.347656 C 187.5 288.347656 188.273438 288.035156 188.894531 287.417969 C 190.132812 286.179688 189.976562 284.164062 188.894531 283.078125 C 187.65625 281.839844 186.261719 280.910156 184.867188 280.445312 C 183.625 279.980469 182.386719 279.828125 181.304688 279.980469 C 180.375 280.136719 179.597656 280.289062 178.667969 280.601562 C 178.050781 280.753906 177.273438 281.066406 176.964844 281.066406 C 176.65625 280.910156 176.347656 280.910156 176.035156 280.753906 C 175.726562 280.601562 175.570312 280.445312 175.261719 280.289062 C 174.796875 279.980469 174.175781 278.898438 174.023438 277.8125 C 174.023438 277.503906 173.867188 276.882812 174.175781 276.574219 L 196.175781 264.335938 C 199.429688 262.628906 202.21875 259.996094 205.625 256.277344 L 205.78125 256.125 C 206.246094 255.660156 206.863281 254.882812 207.328125 254.109375 C 208.570312 252.097656 209.34375 249.773438 209.652344 247.136719 C 209.652344 246.207031 210.425781 245.589844 211.203125 245.28125 C 211.355469 245.28125 211.511719 245.28125 211.667969 245.125 C 212.597656 244.96875 213.371094 245.28125 214.144531 245.589844 C 214.765625 245.898438 216.316406 247.292969 217.554688 248.53125 C 218.019531 249.460938 218.019531 250.390625 217.863281 251.320312 C 217.707031 251.785156 217.398438 252.5625 216.625 252.871094 L 211.355469 255.347656 C 210.738281 255.660156 210.273438 255.96875 209.964844 256.589844 C 208.414062 259.222656 209.035156 262.941406 211.511719 265.109375 C 212.132812 265.730469 212.75 266.195312 213.371094 266.8125 C 214.765625 268.050781 216.160156 269.292969 217.398438 270.53125 C 218.636719 271.769531 220.496094 271.769531 221.738281 270.6875 C 222.976562 269.445312 222.976562 267.585938 221.890625 266.347656 C 220.34375 264.800781 218.792969 263.40625 217.398438 262.164062 C 216.78125 261.699219 216.160156 261.082031 215.539062 260.617188 C 215.386719 260.460938 215.386719 260.460938 215.386719 260.304688 L 219.101562 258.601562 C 221.273438 257.519531 222.976562 255.660156 223.75 253.179688 C 224.523438 250.546875 224.058594 247.601562 222.667969 245.125 C 222.511719 244.816406 222.355469 244.660156 222.046875 244.503906 C 217.863281 240.785156 217.089844 240.476562 216.625 240.320312 C 215.695312 239.855469 213.371094 238.929688 210.738281 239.394531 C 210.273438 239.394531 209.964844 239.546875 209.652344 239.703125 C 206.246094 240.632812 203.765625 243.574219 203.457031 246.984375 C 203.300781 248.53125 202.835938 249.925781 202.0625 251.167969 C 201.753906 251.632812 201.441406 252.097656 200.976562 252.40625 L 200.824219 252.5625 C 198.035156 255.8125 195.554688 257.828125 193.078125 259.378906 L 170.921875 271.769531 C 170.769531 271.769531 170.769531 271.925781 170.613281 271.925781 C 168.289062 273.628906 167.359375 276.261719 167.824219 279.515625 C 168.289062 281.839844 169.527344 284.164062 171.234375 285.558594 C 171.542969 285.867188 171.851562 286.179688 172.164062 286.332031 C 172.472656 286.488281 172.78125 286.644531 173.246094 286.796875 C 173.246094 286.796875 173.402344 286.796875 173.402344 286.796875 C 173.710938 286.953125 174.023438 287.105469 174.175781 287.417969 C 174.796875 288.035156 174.953125 288.5 174.953125 288.8125 C 174.953125 289.121094 174.953125 289.585938 174.953125 290.050781 C 174.953125 289.585938 174.953125 289.894531 174.796875 290.359375 Z M 201.753906 225.914062 L 198.652344 226.6875 C 199.894531 227.929688 201.132812 229.011719 202.371094 230.097656 C 203.613281 231.183594 203.765625 233.195312 202.683594 234.433594 C 201.597656 235.675781 199.582031 235.828125 198.34375 234.746094 C 196.949219 233.503906 195.710938 232.265625 194.316406 231.027344 L 193.542969 230.253906 C 192.300781 229.167969 191.683594 227.617188 191.683594 226.070312 C 191.835938 224.367188 192.457031 222.972656 193.542969 222.042969 C 193.851562 221.730469 194.316406 221.421875 194.9375 221.265625 L 200.203125 219.871094 C 201.289062 219.5625 202.0625 218.789062 202.371094 218.324219 C 202.371094 218.167969 202.527344 218.015625 202.527344 217.859375 C 202.371094 217.550781 202.0625 217.238281 201.90625 217.085938 C 201.597656 216.621094 200.824219 215.691406 200.511719 215.226562 C 200.046875 214.914062 199.429688 214.449219 198.34375 214.449219 C 198.1875 214.449219 198.035156 214.449219 197.878906 214.449219 C 197.105469 214.449219 196.332031 214.914062 196.019531 215.535156 C 195.089844 217.703125 193.695312 219.40625 191.835938 220.957031 C 191.0625 221.578125 190.441406 222.042969 189.824219 222.351562 L 189.667969 222.507812 C 186.726562 224.367188 183.164062 226.378906 179.132812 227.464844 L 156.207031 233.660156 C 155.742188 234.589844 156.050781 237.84375 157.289062 239.546875 C 157.601562 240.011719 157.910156 240.320312 158.375 240.632812 C 158.683594 240.785156 158.996094 241.097656 159.460938 241.25 C 159.613281 241.25 160.390625 241.25 160.855469 241.097656 C 161.628906 240.941406 162.558594 240.941406 163.488281 240.941406 C 164.726562 241.097656 165.964844 241.5625 167.050781 242.335938 C 167.671875 242.800781 168.289062 243.265625 168.910156 243.730469 C 169.53125 244.351562 170.148438 244.96875 170.769531 245.746094 C 171.851562 246.984375 171.699219 248.996094 170.457031 250.082031 C 169.839844 250.546875 169.21875 250.855469 168.445312 250.855469 C 167.515625 250.855469 166.742188 250.546875 166.121094 249.773438 C 165.65625 249.308594 165.191406 248.84375 164.726562 248.378906 C 164.726562 248.378906 164.570312 248.378906 164.570312 248.222656 C 164.261719 247.914062 163.953125 247.601562 163.640625 247.449219 C 163.332031 247.292969 163.023438 247.136719 162.867188 247.136719 C 162.867188 247.136719 162.714844 247.136719 162.714844 247.136719 C 162.867188 247.601562 163.023438 247.914062 163.023438 248.378906 C 163.332031 249.617188 163.488281 250.855469 163.488281 251.941406 C 163.488281 252.40625 163.488281 252.714844 163.488281 253.179688 C 163.640625 254.417969 164.417969 256.277344 165.191406 257.054688 C 165.8125 257.828125 166.277344 257.519531 166.585938 257.519531 C 167.515625 257.207031 168.445312 256.589844 169.53125 255.96875 C 170.148438 255.660156 170.769531 255.195312 171.542969 254.882812 L 186.105469 247.292969 C 186.261719 247.292969 186.570312 246.984375 186.726562 246.828125 C 186.878906 246.519531 186.726562 245.898438 186.570312 245.433594 L 186.570312 245.125 C 186.570312 244.816406 186.414062 244.660156 186.261719 244.351562 C 185.949219 243.730469 185.484375 242.800781 185.640625 241.25 C 185.640625 239.703125 186.570312 238.308594 187.808594 237.378906 C 189.203125 236.449219 191.0625 236.140625 192.765625 236.605469 C 193.078125 236.757812 193.386719 236.914062 193.695312 237.070312 L 197.105469 239.546875 L 200.511719 241.871094 C 201.90625 242.800781 202.371094 244.816406 201.441406 246.210938 C 200.511719 247.601562 198.5 248.066406 197.105469 247.136719 L 192.921875 244.195312 L 192.921875 244.351562 C 193.078125 245.433594 193.542969 247.292969 192.765625 249.308594 C 191.992188 251.320312 190.441406 252.40625 189.203125 253.027344 L 174.640625 260.617188 C 174.023438 260.925781 173.558594 261.234375 172.9375 261.546875 C 171.699219 262.320312 170.457031 262.941406 169.066406 263.558594 C 168.136719 263.871094 167.359375 264.023438 166.429688 264.023438 C 164.417969 264.023438 162.558594 263.25 161.007812 261.546875 C 159.304688 259.6875 157.910156 256.589844 157.601562 253.953125 C 157.601562 253.488281 157.601562 252.871094 157.445312 252.40625 C 157.445312 251.476562 157.445312 250.855469 157.136719 250.082031 C 156.671875 248.378906 155.898438 247.136719 155.742188 246.675781 C 155.277344 246.054688 154.96875 245.589844 154.503906 245.28125 C 154.503906 245.28125 154.347656 245.125 154.347656 245.125 C 153.882812 244.816406 153.574219 244.503906 153.261719 244.195312 C 152.953125 243.886719 152.796875 243.574219 152.644531 243.265625 C 152.644531 243.265625 152.488281 243.109375 152.488281 243.109375 C 150.320312 240.011719 149.390625 235.363281 150.472656 231.957031 C 151.09375 229.941406 152.332031 228.394531 154.039062 227.773438 C 154.191406 227.773438 154.191406 227.617188 154.347656 227.617188 L 177.738281 221.265625 C 180.992188 220.335938 183.9375 218.632812 186.570312 217.085938 L 186.726562 216.929688 C 187.191406 216.621094 187.65625 216.308594 188.121094 216 C 189.203125 215.070312 189.976562 213.984375 190.597656 212.746094 C 191.992188 209.804688 195.089844 207.945312 198.34375 208.097656 C 198.652344 208.097656 199.117188 208.097656 199.429688 208.253906 C 202.0625 208.5625 203.609375 209.648438 204.386719 210.269531 C 205.160156 210.734375 205.78125 211.507812 207.019531 213.367188 C 207.328125 213.675781 208.257812 214.914062 208.414062 215.378906 C 209.035156 217.238281 209.035156 219.253906 208.105469 220.957031 C 206.710938 223.4375 204.386719 225.140625 201.753906 225.914062 Z M 144.898438 186.71875 C 144.277344 188.890625 144.277344 191.679688 145.050781 194.15625 C 145.050781 194.15625 145.050781 194.3125 145.050781 194.3125 C 145.050781 194.777344 145.207031 195.085938 145.363281 195.394531 C 145.515625 195.707031 145.671875 196.015625 145.980469 196.480469 C 145.980469 196.480469 145.980469 196.636719 146.136719 196.636719 C 146.445312 197.101562 146.601562 197.410156 146.757812 198.03125 C 146.910156 198.496094 147.066406 199.578125 147.066406 200.816406 C 146.910156 201.4375 146.757812 202.058594 146.601562 202.832031 C 146.445312 203.453125 146.292969 204.070312 146.136719 204.691406 C 145.515625 207.015625 145.828125 210.113281 146.910156 212.589844 C 148.152344 215.535156 150.472656 217.238281 153.417969 217.238281 C 153.417969 217.238281 153.574219 217.238281 153.574219 217.238281 C 154.96875 217.238281 156.359375 216.929688 157.601562 216.621094 C 158.21875 216.464844 158.839844 216.308594 159.460938 216.308594 L 174.953125 213.984375 C 176.191406 213.832031 177.894531 213.210938 179.289062 211.664062 C 180.527344 210.269531 180.992188 208.5625 181.148438 207.480469 L 183.78125 211.042969 C 184.867188 212.4375 186.726562 212.746094 188.121094 211.664062 C 189.515625 210.578125 189.824219 208.71875 188.738281 207.324219 L 184.089844 200.972656 C 183.9375 200.664062 183.625 200.507812 183.472656 200.351562 C 182.078125 199.269531 180.21875 198.960938 178.667969 199.421875 C 177.121094 199.886719 176.035156 200.972656 175.417969 202.367188 C 174.953125 203.761719 174.953125 204.691406 175.105469 205.3125 C 175.105469 205.621094 175.105469 205.777344 175.105469 206.085938 C 175.105469 206.550781 174.953125 207.167969 174.796875 207.480469 C 174.640625 207.632812 174.332031 207.789062 174.175781 207.789062 L 158.683594 210.113281 C 157.910156 210.269531 157.289062 210.421875 156.515625 210.421875 C 155.433594 210.578125 154.347656 210.886719 153.417969 210.886719 C 153.261719 210.886719 152.953125 210.886719 152.644531 210.113281 C 152.179688 208.875 152.023438 207.167969 152.179688 205.929688 C 152.332031 205.464844 152.488281 205 152.488281 204.535156 C 152.796875 203.761719 152.953125 202.675781 153.109375 201.59375 C 153.109375 201.28125 153.109375 200.972656 153.109375 200.664062 C 153.109375 200.664062 153.109375 200.664062 153.261719 200.664062 C 153.726562 200.816406 154.347656 201.746094 155.121094 203.605469 C 155.585938 204.847656 156.824219 205.621094 158.066406 205.621094 C 158.375 205.621094 158.839844 205.621094 159.148438 205.464844 C 160.699219 204.847656 161.628906 203.140625 161.007812 201.4375 C 159.769531 198.03125 158.066406 195.859375 155.742188 194.929688 C 154.96875 194.621094 154.039062 194.464844 153.261719 194.3125 C 152.796875 194.15625 152.179688 194 152.023438 194 C 151.714844 193.691406 151.558594 193.382812 151.402344 193.226562 C 151.09375 192.761719 150.9375 192.605469 150.9375 192.144531 C 150.628906 191.214844 150.472656 189.664062 150.785156 188.425781 C 150.9375 187.648438 151.25 187.339844 151.25 187.183594 L 173.867188 187.648438 C 178.050781 187.648438 181.921875 186.71875 185.019531 185.789062 L 185.175781 185.789062 C 185.796875 185.636719 186.570312 185.328125 187.34375 185.015625 C 189.359375 184.085938 191.0625 182.691406 192.457031 180.832031 C 192.765625 180.367188 193.542969 180.214844 194.160156 180.367188 C 194.316406 180.367188 194.472656 180.523438 194.625 180.523438 C 195.554688 180.832031 196.019531 181.453125 196.332031 181.917969 C 196.640625 182.382812 197.105469 183.777344 197.570312 185.015625 C 197.414062 185.480469 197.105469 185.789062 196.949219 185.945312 C 196.332031 186.410156 195.710938 186.566406 195.089844 186.566406 L 189.824219 186.410156 C 189.203125 186.410156 188.738281 186.566406 188.273438 186.71875 C 185.484375 188.269531 184.402344 191.679688 185.949219 194.464844 L 188.894531 200.199219 C 189.667969 201.746094 191.527344 202.367188 193.078125 201.59375 C 194.625 200.816406 195.246094 198.960938 194.472656 197.410156 L 191.992188 192.761719 L 194.9375 192.917969 C 197.257812 192.917969 199.429688 192.144531 201.132812 190.75 C 202.992188 189.199219 203.921875 186.875 203.921875 184.707031 C 203.921875 184.398438 203.921875 184.085938 203.765625 183.777344 C 202.21875 179.285156 201.753906 178.664062 201.441406 178.355469 C 200.824219 177.582031 199.582031 176.03125 197.257812 175.101562 C 196.949219 174.945312 196.640625 174.792969 196.332031 174.792969 C 193.230469 173.863281 189.824219 174.945312 187.808594 177.425781 C 187.035156 178.511719 186.105469 179.285156 184.867188 179.75 C 184.402344 179.902344 183.9375 180.058594 183.472656 180.214844 L 183.316406 180.214844 C 180.839844 180.988281 177.429688 181.917969 174.175781 181.761719 L 151.25 181.296875 C 151.09375 181.296875 150.9375 181.296875 150.9375 181.296875 C 147.996094 181.453125 145.828125 183.46875 144.898438 186.71875 Z M 147.53125 167.976562 C 147.996094 171.074219 150.007812 173.242188 152.796875 173.863281 C 154.191406 174.171875 155.433594 174.171875 156.671875 174.328125 C 157.289062 174.328125 157.910156 174.328125 158.375 174.480469 L 173.09375 175.875 C 174.796875 176.03125 176.5 175.566406 177.738281 174.636719 C 178.980469 173.707031 179.753906 172.46875 180.21875 171.539062 L 181.769531 175.101562 C 182.234375 176.339844 183.472656 176.960938 184.554688 176.960938 C 185.019531 176.960938 185.332031 176.804688 185.796875 176.652344 C 187.34375 176.03125 188.121094 174.171875 187.5 172.621094 L 184.554688 165.652344 C 184.402344 165.339844 184.246094 165.03125 184.089844 164.878906 C 183.007812 163.636719 181.304688 162.863281 179.753906 163.019531 C 178.203125 163.171875 176.808594 163.792969 176.035156 165.1875 C 175.261719 166.425781 175.105469 167.355469 175.105469 167.976562 C 175.105469 168.285156 175.105469 168.441406 174.953125 168.75 C 174.796875 169.214844 174.640625 169.679688 174.332031 169.835938 C 174.175781 169.988281 174.023438 169.988281 173.710938 169.835938 L 158.996094 168.441406 C 158.375 168.441406 157.601562 168.285156 156.980469 168.285156 C 155.898438 168.285156 154.96875 168.128906 154.039062 167.976562 C 153.882812 167.976562 153.726562 167.976562 153.574219 167.199219 C 153.417969 165.960938 153.574219 164.414062 154.039062 163.328125 C 154.191406 163.019531 154.503906 162.554688 154.65625 162.242188 C 155.121094 161.46875 155.742188 160.539062 156.050781 159.453125 C 156.050781 159.300781 156.207031 158.988281 156.207031 158.835938 C 156.515625 159.144531 156.824219 160.074219 156.980469 161.777344 C 157.136719 163.328125 158.53125 164.566406 160.078125 164.566406 C 160.234375 164.566406 160.234375 164.566406 160.390625 164.566406 C 162.09375 164.414062 163.332031 162.863281 163.175781 161.160156 C 162.867188 157.597656 161.785156 155.117188 159.769531 153.722656 C 159.148438 153.257812 158.375 152.792969 157.601562 152.484375 C 157.289062 152.328125 156.671875 152.019531 156.515625 152.019531 C 156.359375 151.710938 156.207031 151.398438 156.050781 151.089844 C 155.898438 150.625 155.898438 150.316406 155.742188 149.851562 C 155.585938 148.144531 156.671875 145.820312 157.445312 145.355469 L 177.738281 151.398438 C 181.457031 152.484375 185.175781 152.636719 188.429688 152.484375 C 189.050781 152.484375 189.824219 152.484375 190.597656 152.328125 C 192.765625 152.019531 194.625 151.246094 196.484375 150.160156 C 196.949219 149.851562 197.570312 149.851562 198.1875 150.160156 C 198.34375 150.160156 198.34375 150.316406 198.5 150.46875 C 199.117188 150.933594 199.429688 151.554688 199.582031 152.019531 C 199.582031 152.171875 199.738281 152.636719 199.738281 153.722656 C 199.738281 154.1875 199.894531 154.652344 199.894531 154.960938 C 199.738281 155.117188 199.738281 155.117188 199.582031 155.117188 C 199.117188 155.425781 198.34375 155.582031 197.414062 155.273438 L 192.765625 153.878906 C 192.300781 153.722656 191.683594 153.722656 191.21875 153.878906 C 189.824219 154.1875 188.585938 154.960938 187.65625 156.203125 C 186.878906 157.441406 186.570312 158.988281 187.035156 160.539062 L 188.585938 166.269531 C 189.050781 167.976562 190.753906 168.90625 192.300781 168.441406 C 194.007812 167.976562 194.9375 166.269531 194.472656 164.722656 L 193.386719 160.539062 L 195.710938 161.3125 C 198.1875 162.089844 200.667969 161.777344 202.835938 160.539062 C 204.539062 159.453125 205.78125 157.90625 206.089844 156.046875 C 206.089844 155.738281 206.246094 155.273438 206.089844 154.960938 C 206.089844 154.960938 205.933594 154.03125 205.933594 153.257812 C 205.78125 151.089844 205.625 150.46875 205.46875 149.851562 C 205.160156 149.074219 204.386719 147.371094 202.527344 145.820312 C 202.21875 145.667969 201.90625 145.355469 201.753906 145.203125 C 199.117188 143.5 195.867188 143.5 193.230469 145.203125 C 192.148438 145.820312 191.0625 146.285156 189.824219 146.441406 C 189.359375 146.441406 188.894531 146.441406 188.273438 146.597656 C 185.640625 146.597656 182.386719 146.597656 179.597656 145.667969 L 158.683594 139.46875 C 158.53125 139.46875 158.53125 139.46875 158.375 139.316406 C 156.671875 139.003906 154.8125 139.625 153.261719 140.863281 C 150.9375 143.035156 149.234375 147.0625 149.542969 150.46875 C 149.542969 150.46875 149.542969 150.625 149.542969 150.625 C 149.542969 150.933594 149.542969 151.398438 149.699219 151.710938 C 149.699219 152.019531 149.855469 152.484375 150.007812 152.949219 C 150.007812 152.949219 150.007812 153.101562 150.007812 153.101562 C 150.164062 153.566406 150.164062 154.03125 150.320312 154.652344 C 150.320312 155.273438 150.320312 156.355469 149.855469 157.597656 C 149.699219 158.0625 149.390625 158.527344 149.082031 159.144531 C 148.769531 159.609375 148.460938 160.230469 148.152344 160.847656 C 147.53125 162.554688 147.222656 165.496094 147.53125 167.976562 Z M 176.65625 103.683594 C 174.953125 102.910156 173.09375 103.066406 171.386719 103.996094 C 168.601562 105.542969 166.894531 108.640625 166.429688 110.964844 C 166.277344 111.273438 166.277344 111.738281 166.277344 112.050781 C 166.277344 112.359375 166.277344 112.667969 166.277344 113.132812 C 166.277344 113.132812 166.277344 113.289062 166.277344 113.289062 C 166.277344 113.753906 166.277344 114.0625 166.121094 114.527344 C 165.964844 114.992188 165.8125 115.769531 165.191406 116.699219 C 164.882812 117.007812 164.570312 117.316406 164.105469 117.78125 C 163.640625 118.089844 163.175781 118.554688 162.867188 119.019531 C 161.320312 120.570312 160.078125 123.203125 159.769531 125.527344 C 159.304688 128.472656 160.542969 131.105469 163.023438 132.5 C 164.105469 133.117188 165.347656 133.582031 166.429688 133.894531 C 166.894531 134.046875 167.515625 134.203125 167.980469 134.511719 L 180.992188 139.933594 C 182.542969 140.554688 184.246094 140.710938 185.640625 140.246094 C 187.035156 139.78125 187.964844 139.003906 188.585938 138.386719 L 188.894531 141.484375 C 189.050781 143.035156 190.441406 144.273438 191.992188 144.273438 C 192.148438 144.273438 192.148438 144.273438 192.300781 144.273438 C 194.007812 144.117188 195.246094 142.570312 195.089844 140.863281 L 194.472656 133.738281 C 194.472656 133.429688 194.316406 133.117188 194.316406 132.808594 C 193.695312 131.261719 192.457031 130.175781 190.753906 129.710938 C 189.359375 129.402344 187.808594 129.710938 186.570312 130.640625 C 185.484375 131.570312 185.019531 132.34375 184.867188 132.964844 C 184.710938 133.273438 184.710938 133.273438 184.554688 133.582031 C 184.402344 133.894531 183.9375 134.359375 183.78125 134.359375 C 183.78125 134.359375 183.472656 134.359375 183.316406 134.359375 L 170.304688 128.9375 C 169.683594 128.625 169.066406 128.472656 168.445312 128.316406 C 167.515625 128.007812 166.585938 127.695312 165.964844 127.230469 C 165.964844 127.230469 165.8125 127.078125 165.8125 126.613281 C 165.964844 125.527344 166.585938 124.132812 167.359375 123.515625 C 167.671875 123.203125 167.980469 122.894531 168.289062 122.738281 C 168.910156 122.121094 169.683594 121.5 170.304688 120.726562 C 170.304688 120.726562 170.304688 120.726562 170.304688 120.570312 C 170.457031 121.035156 170.457031 121.65625 170.304688 123.050781 C 169.992188 124.753906 171.078125 126.300781 172.78125 126.613281 C 172.9375 126.613281 173.09375 126.613281 173.246094 126.613281 C 174.796875 126.613281 176.035156 125.527344 176.347656 123.980469 C 176.964844 120.726562 176.5 118.246094 175.105469 116.386719 C 174.640625 115.769531 174.023438 115.148438 173.558594 114.683594 C 173.246094 114.375 172.9375 114.0625 172.78125 113.910156 C 172.78125 113.597656 172.628906 113.445312 172.628906 113.132812 C 172.628906 112.824219 172.628906 112.515625 172.628906 112.203125 C 172.78125 111.121094 173.867188 109.882812 174.332031 109.570312 L 191.992188 119.332031 C 194.78125 120.878906 197.878906 121.808594 201.90625 122.429688 C 202.527344 122.585938 203.300781 122.585938 204.230469 122.585938 C 206.398438 122.585938 208.414062 121.964844 210.429688 120.878906 C 210.890625 120.570312 211.511719 120.570312 211.667969 120.878906 C 211.667969 120.878906 211.820312 121.035156 211.820312 121.035156 C 212.285156 121.5 212.285156 122.121094 212.441406 122.738281 C 212.441406 123.359375 212.132812 125.0625 211.820312 126.457031 C 211.511719 126.765625 211.203125 127.078125 210.738281 127.230469 C 210.273438 127.386719 209.808594 127.230469 209.34375 127.078125 L 205.316406 124.597656 C 204.851562 124.289062 204.230469 124.132812 203.613281 124.132812 C 200.667969 124.132812 198.1875 126.613281 198.035156 129.554688 L 197.722656 135.441406 C 197.570312 137.148438 198.964844 138.539062 200.667969 138.695312 C 202.371094 138.695312 203.765625 137.457031 203.921875 135.753906 L 204.074219 131.105469 L 206.089844 132.34375 C 207.949219 133.429688 210.273438 133.738281 212.441406 133.117188 C 214.609375 132.5 216.46875 130.949219 217.398438 128.78125 C 217.554688 128.472656 217.554688 128.316406 217.707031 128.007812 C 218.636719 123.050781 218.484375 122.273438 218.484375 121.964844 C 218.328125 121.035156 218.019531 118.867188 216.46875 117.007812 C 216.316406 116.699219 216.003906 116.386719 215.695312 116.234375 C 213.527344 114.0625 209.964844 113.753906 207.175781 115.304688 C 206.246094 115.921875 205.160156 116.234375 204.074219 116.234375 C 203.609375 116.234375 203.300781 116.234375 202.683594 116.078125 C 199.429688 115.613281 196.949219 114.839844 194.9375 113.753906 L 176.964844 103.839844 C 176.808594 103.839844 176.808594 103.839844 176.65625 103.683594 Z M 181.769531 87.726562 C 181.613281 87.882812 181.304688 88.039062 181.148438 88.347656 C 180.839844 88.503906 180.683594 88.65625 180.375 88.96875 C 179.597656 89.585938 178.824219 90.515625 178.515625 91.445312 C 178.203125 92.066406 177.738281 93.148438 177.585938 94.234375 C 177.273438 96.714844 178.359375 98.882812 180.683594 100.277344 C 181.769531 100.894531 182.699219 101.359375 183.78125 101.824219 C 184.246094 101.980469 184.710938 102.289062 185.175781 102.445312 L 196.949219 108.488281 C 198.5 109.261719 200.046875 109.417969 201.441406 109.105469 C 202.527344 108.796875 203.457031 108.175781 204.074219 107.710938 L 204.074219 110.347656 C 204.074219 112.050781 205.46875 113.445312 207.175781 113.445312 C 208.878906 113.445312 210.273438 112.050781 210.273438 110.347656 L 210.273438 106.78125 C 210.273438 105.851562 210.273438 104.921875 210.273438 104.148438 L 210.273438 103.066406 C 210.273438 102.753906 210.117188 102.445312 210.117188 102.136719 C 209.5 100.585938 208.257812 99.5 206.710938 99.035156 C 205.160156 98.570312 203.765625 98.882812 202.527344 99.8125 C 201.441406 100.585938 201.132812 101.515625 200.824219 101.980469 C 200.667969 102.289062 200.667969 102.289062 200.511719 102.445312 C 200.359375 102.601562 200.046875 103.066406 199.894531 103.066406 C 199.894531 103.066406 199.894531 103.066406 199.738281 102.910156 L 187.964844 96.867188 C 187.5 96.558594 186.878906 96.402344 186.414062 96.09375 C 185.484375 95.628906 184.710938 95.320312 184.089844 94.855469 C 183.9375 94.699219 183.9375 94.699219 183.9375 94.699219 C 183.9375 94.542969 184.089844 94.234375 184.246094 93.769531 C 184.402344 93.613281 184.402344 93.460938 184.554688 93.460938 C 184.710938 93.304688 184.867188 93.148438 185.019531 93.148438 C 185.484375 92.839844 186.261719 92.21875 186.878906 91.445312 C 187.035156 91.601562 187.035156 92.21875 187.035156 92.996094 C 186.878906 94.699219 188.273438 96.25 189.980469 96.25 C 189.980469 96.25 190.132812 96.25 190.132812 96.25 C 191.683594 96.25 193.078125 95.007812 193.230469 93.304688 C 193.386719 90.515625 192.613281 88.191406 191.0625 86.644531 C 190.441406 86.179688 189.824219 85.714844 189.359375 85.25 C 189.050781 85.09375 188.585938 84.785156 188.429688 84.628906 C 188.273438 84.472656 188.273438 84.320312 188.273438 84.164062 C 188.273438 84.007812 188.121094 83.855469 188.121094 83.699219 C 188.121094 83.390625 188.429688 82.925781 188.585938 82.769531 L 206.863281 88.503906 C 209.808594 89.433594 212.90625 89.742188 216.78125 89.433594 C 217.398438 89.433594 218.171875 89.277344 218.949219 89.121094 C 220.960938 88.65625 222.820312 87.574219 224.371094 85.867188 C 224.835938 85.402344 225.144531 85.402344 225.300781 85.402344 C 225.300781 85.402344 225.453125 85.402344 225.453125 85.558594 C 225.917969 85.867188 226.074219 86.488281 226.230469 86.953125 C 226.230469 87.574219 226.382812 89.433594 226.382812 91.136719 C 226.230469 91.445312 226.074219 91.753906 226.074219 91.910156 C 225.765625 92.21875 225.609375 92.53125 225.300781 92.683594 C 225.144531 92.839844 224.679688 92.996094 224.371094 92.839844 L 220.34375 91.136719 C 219.722656 90.824219 219.101562 90.824219 218.484375 90.980469 C 215.695312 91.601562 213.835938 94.234375 213.835938 97.023438 L 213.835938 98.105469 C 213.835938 98.726562 213.835938 99.5 213.835938 100.121094 L 213.679688 103.21875 C 213.527344 104.921875 214.921875 106.316406 216.625 106.472656 C 218.328125 106.472656 219.722656 105.234375 219.878906 103.53125 L 220.03125 100.277344 C 220.03125 99.5 220.03125 98.726562 220.03125 97.953125 L 220.03125 97.640625 L 222.046875 98.417969 C 224.214844 99.347656 226.695312 99.191406 228.707031 97.796875 C 229.636719 97.179688 230.414062 96.402344 231.339844 95.472656 C 231.960938 94.542969 232.425781 93.460938 232.734375 92.21875 C 232.734375 91.910156 232.890625 91.753906 232.890625 91.445312 C 232.890625 86.179688 232.734375 85.402344 232.582031 85.09375 C 232.269531 84.164062 231.652344 82.152344 229.792969 80.445312 C 229.484375 80.136719 229.171875 79.980469 228.863281 79.828125 C 226.230469 78.277344 222.820312 78.742188 220.496094 81.222656 C 219.566406 82.152344 218.636719 82.617188 217.707031 82.925781 C 217.398438 83.082031 216.933594 83.082031 216.46875 83.082031 C 213.527344 83.390625 211.203125 83.082031 209.035156 82.460938 L 190.597656 76.574219 C 190.441406 76.574219 190.441406 76.574219 190.289062 76.574219 C 188.273438 76.109375 186.414062 76.730469 184.867188 77.96875 C 183.164062 79.363281 182.234375 81.6875 182.234375 83.855469 C 182.234375 84.320312 182.234375 84.628906 182.386719 85.09375 C 182.386719 85.25 182.542969 85.558594 182.699219 86.023438 C 182.699219 86.179688 182.699219 86.179688 182.699219 86.332031 C 182.078125 87.109375 181.921875 87.417969 181.769531 87.726562 Z M 235.214844 48.84375 C 234.75 48.070312 233.664062 46.363281 231.496094 45.433594 C 231.1875 45.28125 230.875 45.125 230.566406 45.125 C 227.777344 44.195312 224.679688 45.433594 222.976562 48.222656 C 222.355469 49.152344 221.738281 49.773438 220.960938 50.238281 C 220.652344 50.390625 220.34375 50.546875 220.03125 50.546875 C 219.878906 50.546875 219.878906 50.546875 219.722656 50.703125 C 217.554688 51.320312 215.230469 51.785156 212.90625 51.632812 L 194.78125 50.703125 C 194.625 50.703125 194.625 50.703125 194.472656 50.703125 C 192.148438 50.855469 190.132812 52.25 189.203125 54.574219 C 188.429688 56.28125 188.273438 58.136719 188.738281 59.6875 C 188.738281 60.152344 188.894531 60.460938 189.050781 60.925781 C 189.203125 61.082031 189.359375 61.390625 189.515625 61.703125 C 189.667969 61.855469 189.667969 61.855469 189.667969 62.011719 C 189.667969 62.167969 189.667969 62.476562 189.667969 62.785156 C 189.667969 62.941406 189.359375 63.40625 189.050781 63.714844 L 188.894531 64.023438 C 187.65625 65.574219 187.191406 67.742188 187.5 69.757812 C 187.964844 71.925781 189.515625 73.785156 191.992188 74.40625 C 193.078125 74.714844 194.160156 74.871094 195.246094 75.023438 C 195.710938 75.179688 196.175781 75.179688 196.640625 75.335938 L 208.722656 77.8125 C 210.738281 78.277344 212.285156 77.65625 213.0625 77.195312 C 213.835938 76.730469 214.457031 76.109375 214.921875 75.488281 L 215.539062 77.503906 C 215.851562 78.898438 217.242188 79.828125 218.484375 79.828125 C 218.792969 79.828125 219.101562 79.828125 219.257812 79.671875 C 220.960938 79.207031 221.890625 77.503906 221.425781 75.800781 L 219.566406 69.136719 C 219.414062 68.828125 219.257812 68.519531 219.101562 68.207031 C 218.328125 67.125 217.089844 66.347656 215.539062 66.195312 C 214.144531 66.039062 212.597656 66.660156 211.667969 67.742188 C 211.511719 67.898438 211.355469 68.054688 211.203125 68.363281 C 210.738281 69.292969 210.582031 69.914062 210.425781 70.378906 C 210.425781 70.6875 210.273438 70.839844 210.273438 70.996094 C 210.273438 71.152344 210.117188 71.460938 209.964844 71.617188 L 197.878906 69.136719 C 197.414062 68.984375 196.796875 68.984375 196.175781 68.828125 C 195.246094 68.671875 194.472656 68.519531 193.695312 68.363281 C 193.695312 68.363281 193.542969 68.363281 193.542969 68.363281 C 193.542969 68.207031 193.542969 67.898438 193.695312 67.742188 L 193.851562 67.589844 C 194.316406 66.96875 194.78125 66.347656 195.246094 65.574219 C 195.402344 65.882812 195.554688 66.195312 195.710938 66.660156 C 196.019531 68.054688 197.257812 68.984375 198.652344 68.984375 C 198.964844 68.984375 199.117188 68.984375 199.429688 68.828125 C 201.132812 68.363281 202.0625 66.660156 201.597656 65.109375 C 200.976562 62.476562 199.582031 60.617188 197.722656 59.6875 C 197.105469 59.378906 196.332031 59.066406 195.867188 58.914062 C 195.554688 58.757812 195.089844 58.757812 194.9375 58.601562 C 194.78125 58.449219 194.78125 58.449219 194.78125 58.292969 C 194.625 58.136719 194.625 57.984375 194.625 57.984375 C 194.625 57.828125 194.625 57.519531 194.78125 56.898438 L 212.441406 57.828125 C 215.539062 57.984375 218.636719 57.519531 221.582031 56.433594 C 222.355469 56.28125 222.976562 55.96875 223.597656 55.660156 C 225.300781 54.730469 226.695312 53.335938 227.933594 51.632812 C 228.089844 51.320312 228.398438 51.167969 228.398438 51.167969 C 228.398438 51.167969 228.554688 51.167969 228.554688 51.167969 C 229.019531 51.320312 229.328125 51.785156 229.484375 52.097656 C 229.636719 52.5625 230.101562 54.109375 230.414062 55.503906 C 230.414062 55.96875 230.257812 56.433594 229.949219 56.746094 C 229.636719 57.054688 229.484375 57.054688 229.171875 57.054688 L 225.144531 56.433594 C 224.523438 56.28125 223.90625 56.433594 223.285156 56.746094 C 220.808594 57.984375 219.566406 60.925781 220.34375 63.5625 L 221.890625 69.292969 C 222.355469 70.996094 224.0625 71.925781 225.765625 71.460938 C 227.46875 70.996094 228.398438 69.292969 227.933594 67.589844 L 226.695312 62.785156 L 228.398438 63.097656 C 230.566406 63.40625 232.734375 62.632812 234.441406 60.925781 C 235.835938 59.378906 236.609375 57.207031 236.609375 55.039062 C 236.609375 54.730469 236.609375 54.574219 236.453125 54.265625 C 235.835938 49.773438 235.371094 49.152344 235.214844 48.84375 Z M 67.4375 281.21875 C 68.523438 290.980469 79.210938 295.164062 86.804688 298.105469 C 88.199219 298.726562 89.589844 299.191406 90.832031 299.8125 C 97.027344 302.445312 107.097656 306.9375 116.703125 306.9375 C 123.828125 306.9375 130.644531 304.613281 135.601562 297.332031 C 136.53125 295.9375 136.222656 293.925781 134.828125 292.996094 C 133.433594 292.066406 131.417969 292.375 130.488281 293.769531 C 122.28125 305.542969 107.097656 300.121094 93.308594 294.078125 C 91.914062 293.460938 90.519531 292.996094 88.972656 292.375 C 82.464844 289.742188 74.253906 286.644531 73.480469 280.445312 C 72.859375 274.714844 79.210938 269.445312 84.945312 265.417969 C 98.578125 255.96875 119.644531 249.308594 133.742188 256.742188 C 134.984375 257.363281 136.066406 258.136719 137.152344 258.914062 C 139.011719 260.460938 140.40625 262.320312 141.023438 264.488281 C 141.644531 266.039062 143.347656 266.96875 144.898438 266.347656 C 146.445312 265.730469 147.375 264.023438 146.757812 262.476562 C 145.671875 259.222656 143.65625 256.433594 141.023438 254.109375 C 139.628906 253.027344 138.234375 251.941406 136.53125 251.167969 C 119.957031 242.492188 96.871094 249.460938 81.226562 260.304688 C 76.886719 263.558594 66.199219 270.996094 67.4375 281.21875 Z M 167.359375 332.964844 C 167.515625 332.964844 167.671875 332.964844 167.824219 332.964844 C 169.375 332.964844 170.613281 331.878906 170.921875 330.328125 C 172.007812 323.359375 172.628906 309.878906 164.417969 296.246094 C 153.109375 277.65625 133.277344 273.476562 128.785156 272.855469 C 117.785156 268.980469 107.71875 269.910156 101.054688 271.304688 C 99.351562 271.617188 98.265625 273.320312 98.730469 275.023438 C 99.042969 276.726562 100.746094 277.8125 102.449219 277.347656 C 106.167969 276.574219 111.125 275.953125 116.855469 276.417969 C 115.308594 277.65625 113.757812 279.363281 112.675781 281.683594 C 111.898438 283.234375 112.519531 285.09375 114.070312 285.867188 C 115.617188 286.644531 117.476562 286.023438 118.25 284.472656 C 120.886719 278.898438 126.925781 278.898438 127.855469 278.898438 C 131.730469 279.515625 149.234375 283.078125 159.304688 299.5 C 166.742188 311.738281 165.8125 324.441406 165.035156 329.398438 C 164.570312 331.105469 165.65625 332.652344 167.359375 332.964844 Z M 294.394531 156.667969 C 300.433594 151.089844 308.800781 143.5 306.320312 133.894531 C 303.6875 123.980469 290.984375 120.878906 285.5625 119.640625 C 267.128906 115.304688 243.117188 117.164062 230.722656 131.261719 C 229.484375 132.652344 228.398438 134.203125 227.625 135.597656 C 225.917969 138.695312 225.144531 142.105469 225.300781 145.511719 C 225.300781 147.214844 226.847656 148.457031 228.554688 148.457031 C 230.257812 148.457031 231.652344 146.90625 231.496094 145.203125 C 231.339844 142.878906 231.960938 140.710938 233.199219 138.539062 C 233.820312 137.457031 234.59375 136.371094 235.523438 135.289062 C 246.058594 123.203125 268.210938 121.808594 284.167969 125.683594 C 290.984375 127.230469 298.886719 129.867188 300.28125 135.441406 C 301.828125 141.328125 295.324219 147.371094 290.054688 152.019531 C 288.816406 153.101562 287.730469 154.1875 286.648438 155.273438 C 276.113281 165.804688 263.71875 176.496094 251.789062 168.441406 C 250.398438 167.511719 248.382812 167.820312 247.453125 169.214844 C 246.523438 170.609375 246.832031 172.621094 248.226562 173.550781 C 252.253906 176.339844 256.4375 177.425781 260.3125 177.425781 C 273.015625 177.425781 284.480469 165.960938 290.832031 159.609375 C 292.070312 158.679688 293.152344 157.75 294.394531 156.667969 Z M 260.3125 155.425781 C 261.550781 156.667969 263.566406 156.511719 264.648438 155.273438 C 265.886719 154.03125 265.734375 152.019531 264.496094 150.933594 C 262.636719 149.230469 260.621094 148.144531 258.761719 147.527344 C 263.875 145.046875 268.675781 143.808594 272.394531 143.1875 C 274.097656 142.878906 275.183594 141.328125 275.027344 139.625 C 274.71875 137.921875 273.167969 136.835938 271.464844 136.992188 C 264.804688 138.078125 255.042969 140.863281 246.214844 148.457031 C 241.101562 151.398438 225.300781 162.242188 221.425781 183.15625 C 218.636719 198.804688 224.058594 211.199219 227.625 217.238281 C 228.242188 218.167969 229.171875 218.789062 230.257812 218.789062 C 230.722656 218.789062 231.339844 218.632812 231.804688 218.324219 C 233.355469 217.394531 233.820312 215.535156 232.890625 214.140625 C 230.414062 209.804688 224.835938 198.496094 227.46875 184.242188 C 230.875 165.339844 245.902344 155.738281 249.3125 153.722656 C 250.242188 153.414062 255.820312 151.246094 260.3125 155.425781 Z M 127.703125 222.660156 C 126.617188 222.972656 125.6875 223.746094 125.222656 224.675781 C 124.601562 225.605469 124.601562 226.84375 124.914062 227.929688 C 125.222656 229.011719 125.996094 229.941406 126.925781 230.40625 C 127.546875 230.71875 128.167969 230.871094 128.941406 230.871094 C 129.40625 230.871094 129.714844 230.871094 130.179688 230.71875 C 132.347656 230.097656 133.742188 227.773438 132.96875 225.449219 C 132.347656 223.28125 130.023438 222.042969 127.703125 222.660156 Z M 128.011719 199.578125 C 127.855469 198.496094 127.390625 197.410156 126.617188 196.636719 C 125.6875 195.859375 124.601562 195.550781 123.519531 195.707031 C 121.195312 195.859375 119.492188 197.875 119.644531 200.199219 C 119.800781 201.28125 120.265625 202.367188 121.195312 203.140625 C 121.96875 203.761719 122.898438 204.070312 123.984375 204.070312 C 124.136719 204.070312 124.292969 204.070312 124.449219 204.070312 C 126.617188 203.917969 128.167969 201.902344 128.011719 199.578125 Z M 123.519531 176.960938 C 123.671875 176.960938 123.828125 176.960938 123.828125 176.960938 C 125.996094 176.960938 127.855469 175.410156 128.011719 173.242188 C 128.320312 170.917969 126.617188 168.90625 124.292969 168.59375 C 123.207031 168.441406 122.125 168.75 121.195312 169.523438 C 120.265625 170.300781 119.800781 171.230469 119.644531 172.3125 C 119.492188 173.398438 119.800781 174.480469 120.574219 175.410156 C 121.351562 176.339844 122.433594 176.804688 123.519531 176.960938 Z M 130.800781 142.257812 C 129.714844 141.949219 128.632812 141.949219 127.546875 142.414062 C 126.460938 142.878906 125.84375 143.808594 125.378906 144.894531 C 124.601562 147.0625 125.84375 149.539062 128.167969 150.160156 C 128.632812 150.316406 128.941406 150.316406 129.40625 150.316406 C 131.109375 150.316406 132.8125 149.230469 133.433594 147.371094 C 134.207031 145.355469 132.96875 142.878906 130.800781 142.257812 Z M 143.191406 117.9375 C 142.265625 117.316406 141.023438 117.164062 139.941406 117.472656 C 138.855469 117.78125 137.925781 118.402344 137.304688 119.484375 C 136.6875 120.414062 136.53125 121.65625 136.839844 122.738281 C 137.152344 123.824219 137.769531 124.753906 138.855469 125.371094 C 139.476562 125.683594 140.25 125.992188 141.023438 125.992188 C 142.417969 125.992188 143.8125 125.21875 144.585938 123.980469 C 145.828125 121.65625 145.207031 119.175781 143.191406 117.9375 Z M 154.65625 94.390625 C 153.726562 93.925781 152.488281 93.769531 151.402344 94.078125 C 150.320312 94.390625 149.390625 95.164062 148.925781 96.09375 C 147.839844 98.105469 148.617188 100.585938 150.628906 101.671875 C 151.25 101.980469 152.023438 102.136719 152.644531 102.136719 C 153.109375 102.136719 153.417969 102.136719 153.882812 101.980469 C 154.96875 101.671875 155.898438 100.894531 156.359375 99.964844 C 157.445312 98.105469 156.671875 95.628906 154.65625 94.390625 Z M 164.105469 68.984375 C 161.9375 68.519531 159.769531 69.757812 159.148438 71.925781 C 158.839844 73.011719 158.996094 74.09375 159.460938 75.179688 C 160.078125 76.109375 160.855469 76.882812 162.09375 77.195312 C 162.402344 77.347656 162.867188 77.347656 163.175781 77.347656 C 165.035156 77.347656 166.742188 76.109375 167.207031 74.25 C 167.515625 73.164062 167.359375 71.925781 166.742188 70.996094 C 166.277344 69.914062 165.191406 69.292969 164.105469 68.984375 Z M 164.105469 41.871094 C 161.785156 41.871094 159.925781 43.730469 159.925781 46.054688 C 159.925781 46.210938 159.925781 46.210938 159.925781 46.363281 C 160.078125 48.535156 161.9375 50.238281 164.105469 50.238281 C 164.261719 50.238281 164.261719 50.238281 164.417969 50.238281 C 165.5 50.082031 166.585938 49.617188 167.359375 48.84375 C 167.980469 48.070312 168.445312 46.984375 168.289062 45.898438 C 168.289062 44.816406 167.824219 43.886719 167.050781 43.113281 C 166.277344 42.335938 165.191406 41.871094 164.105469 41.871094 Z M 260.621094 301.667969 C 259.382812 301.667969 258.453125 302.132812 257.679688 302.910156 C 256.902344 303.683594 256.4375 304.769531 256.4375 305.851562 C 256.4375 308.175781 258.296875 310.035156 260.621094 310.035156 C 261.707031 310.035156 262.789062 309.570312 263.566406 308.796875 C 264.339844 308.019531 264.804688 306.9375 264.804688 305.851562 C 264.804688 303.527344 262.945312 301.667969 260.621094 301.667969 Z M 258.761719 282.925781 C 259.847656 282.769531 260.777344 281.996094 261.394531 281.066406 C 262.015625 280.136719 262.171875 279.050781 262.015625 277.96875 C 261.859375 276.882812 261.085938 275.953125 260.15625 275.332031 C 259.226562 274.714844 258.140625 274.558594 257.058594 274.714844 C 254.890625 275.179688 253.339844 277.503906 253.804688 279.671875 C 254.269531 281.683594 255.972656 283.078125 257.988281 283.078125 C 258.140625 283.078125 258.453125 283.078125 258.761719 282.925781 Z M 250.863281 249.152344 C 249.777344 248.6875 248.539062 248.84375 247.609375 249.308594 C 245.59375 250.238281 244.664062 252.714844 245.59375 254.882812 C 246.058594 255.96875 246.832031 256.742188 247.917969 257.054688 C 248.382812 257.207031 248.847656 257.363281 249.3125 257.363281 C 249.933594 257.363281 250.550781 257.207031 251.171875 256.898438 C 253.183594 255.96875 254.113281 253.488281 253.183594 251.320312 C 252.71875 250.390625 251.789062 249.460938 250.863281 249.152344 Z M 234.75 225.761719 C 233.820312 226.378906 233.046875 227.308594 232.890625 228.394531 C 232.582031 229.476562 232.734375 230.5625 233.355469 231.492188 C 233.976562 232.421875 234.90625 233.195312 235.988281 233.351562 C 236.300781 233.503906 236.609375 233.503906 237.074219 233.503906 C 237.847656 233.503906 238.621094 233.351562 239.242188 232.886719 C 240.171875 232.265625 240.945312 231.335938 241.101562 230.253906 C 241.410156 229.167969 241.257812 228.082031 240.636719 227 C 239.398438 225.296875 236.765625 224.675781 234.75 225.761719 Z M 234.75 225.761719 " fill-opacity="1" fill-rule="nonzero"/></g></svg>