<svg xmlns="http://www.w3.org/2000/svg" xmlns:xlink="http://www.w3.org/1999/xlink" width="500" zoomAndPan="magnify" viewBox="0 0 375 374.999991" height="500" preserveAspectRatio="xMidYMid meet" version="1.0"><defs><clipPath id="ebc747d49c"><path d="M 32 31.726562 L 342.976562 31.726562 L 342.976562 342.976562 L 32 342.976562 Z M 32 31.726562 " clip-rule="nonzero"/></clipPath></defs><rect x="-37.5" width="450" fill="#ffffff" y="-37.499999" height="449.999989" fill-opacity="1"/><rect x="-37.5" width="450" fill="#ffffff" y="-37.499999" height="449.999989" fill-opacity="1"/><path fill="#000000" d="M 201.480469 131.648438 C 199.414062 137.460938 193.871094 141.640625 187.351562 141.640625 C 180.832031 141.640625 175.292969 137.460938 173.222656 131.648438 Z M 162.371094 126.652344 C 162.371094 140.429688 173.574219 151.632812 187.351562 151.632812 C 201.128906 151.632812 212.332031 140.429688 212.332031 126.652344 L 212.332031 121.65625 L 162.371094 121.65625 L 162.371094 126.652344 " fill-opacity="1" fill-rule="nonzero"/><path fill="#000000" d="M 162.371094 96.675781 C 162.371094 99.425781 164.617188 101.671875 167.367188 101.671875 C 170.121094 101.671875 172.363281 99.425781 172.363281 96.675781 C 172.363281 93.921875 170.121094 91.679688 167.367188 91.679688 C 164.617188 91.679688 162.371094 93.921875 162.371094 96.675781 " fill-opacity="1" fill-rule="nonzero"/><path fill="#000000" d="M 207.335938 91.679688 C 204.585938 91.679688 202.339844 93.921875 202.339844 96.675781 C 202.339844 99.425781 204.585938 101.671875 207.335938 101.671875 C 210.085938 101.671875 212.332031 99.425781 212.332031 96.675781 C 212.332031 93.921875 210.085938 91.679688 207.335938 91.679688 " fill-opacity="1" fill-rule="nonzero"/><path fill="#000000" d="M 196.347656 78.683594 L 181.359375 58.699219 L 173.359375 64.707031 L 188.347656 84.691406 L 196.347656 78.683594 " fill-opacity="1" fill-rule="nonzero"/><path fill="#000000" d="M 216.332031 78.683594 L 201.34375 58.699219 L 193.34375 64.707031 L 208.332031 84.691406 L 216.332031 78.683594 " fill-opacity="1" fill-rule="nonzero"/><g clip-path="url(#ebc747d49c)"><path fill="#000000" d="M 283.171875 212.011719 C 281.242188 211.757812 279.289062 211.582031 277.28125 211.582031 C 269.902344 211.582031 262.957031 213.398438 256.808594 216.558594 C 247.402344 207.035156 234.636719 201.589844 221.09375 201.589844 C 219.105469 201.589844 217.152344 201.746094 215.199219 201.980469 L 220.273438 191.382812 C 220.957031 191.441406 221.621094 191.597656 222.324219 191.597656 L 232.316406 191.597656 C 274.703125 191.597656 309.402344 158.402344 312 116.660156 L 332.234375 116.660156 L 332.234375 122.339844 C 332.234375 158.949219 313.910156 192.320312 283.171875 212.011719 Z M 312.25 256.546875 C 312.25 275.828125 296.5625 291.519531 277.28125 291.519531 C 258 291.519531 242.308594 275.828125 242.308594 256.546875 C 242.308594 237.265625 258 221.574219 277.28125 221.574219 C 296.5625 221.574219 312.25 237.265625 312.25 256.546875 Z M 142.386719 256.546875 C 142.386719 259.296875 140.144531 261.542969 137.390625 261.542969 C 134.640625 261.542969 132.394531 259.296875 132.394531 256.546875 C 132.394531 253.796875 134.640625 251.550781 137.390625 251.550781 C 140.144531 251.550781 142.386719 253.796875 142.386719 256.546875 Z M 128.960938 286.445312 C 118.597656 278.675781 112.414062 266.304688 112.414062 253.347656 C 112.414062 243.6875 115.808594 234.28125 121.996094 226.863281 L 122.65625 226.082031 C 130.328125 216.871094 141.609375 211.582031 153.609375 211.582031 C 164.363281 211.582031 174.492188 215.777344 182.101562 223.390625 L 187.351562 228.640625 L 192.601562 223.390625 C 200.214844 215.777344 210.339844 211.582031 221.09375 211.582031 C 231.28125 211.582031 240.921875 215.425781 248.320312 222.21875 C 239.75 229.460938 233.917969 239.820312 232.609375 251.550781 L 213.953125 251.550781 L 207.179688 268.46875 L 191.527344 231.9375 L 176.832031 280.882812 L 165.847656 251.550781 L 151.464844 251.550781 C 149.394531 245.753906 143.890625 241.558594 137.390625 241.558594 C 129.117188 241.558594 122.40625 248.273438 122.40625 256.546875 C 122.40625 264.820312 129.117188 271.535156 137.390625 271.535156 C 143.890625 271.535156 149.394531 267.339844 151.464844 261.542969 L 158.898438 261.542969 L 177.886719 312.148438 L 193.167969 261.171875 L 207.492188 294.582031 L 220.703125 261.542969 L 232.609375 261.542969 C 233.722656 271.476562 238.074219 280.414062 244.589844 287.324219 L 187.351562 330.238281 Z M 42.46875 122.339844 L 42.46875 116.660156 L 62.707031 116.660156 C 65.300781 158.402344 100 191.597656 142.386719 191.597656 L 152.378906 191.597656 C 153.082031 191.597656 153.746094 191.441406 154.429688 191.382812 L 159.503906 201.980469 C 157.550781 201.746094 155.601562 201.589844 153.609375 201.589844 C 138.640625 201.589844 124.550781 208.1875 114.988281 219.683594 L 114.324219 220.460938 C 113.796875 221.105469 113.308594 221.789062 112.800781 222.472656 C 70.609375 207.269531 42.46875 167.515625 42.46875 122.339844 Z M 52.460938 66.699219 C 57.964844 66.699219 62.453125 71.1875 62.453125 76.691406 L 62.453125 96.675781 L 67.449219 96.675781 C 70.199219 96.675781 72.445312 98.917969 72.445312 101.671875 C 72.445312 104.421875 70.199219 106.667969 67.449219 106.667969 L 42.46875 106.667969 L 42.46875 76.691406 C 42.46875 71.1875 46.957031 66.699219 52.460938 66.699219 Z M 132.394531 143.003906 L 132.394531 86.683594 C 132.394531 61.898438 152.554688 41.71875 177.359375 41.71875 L 197.34375 41.71875 C 222.148438 41.71875 242.308594 61.898438 242.308594 86.683594 L 242.308594 143.003906 C 242.308594 153.679688 238.152344 163.710938 230.597656 171.261719 L 220.449219 181.410156 C 213.152344 180.496094 207.492188 174.367188 207.355469 166.851562 C 222.128906 159.476562 232.316406 144.253906 232.316406 126.652344 L 232.316406 81.6875 L 222.324219 81.6875 L 222.324219 126.652344 C 222.324219 145.933594 206.632812 161.621094 187.351562 161.621094 C 168.070312 161.621094 152.378906 145.933594 152.378906 126.652344 L 152.378906 91.679688 C 152.378906 86.175781 156.867188 81.6875 162.371094 81.6875 L 167.367188 81.6875 L 167.367188 71.695312 L 162.371094 71.695312 C 151.347656 71.695312 142.386719 80.652344 142.386719 91.679688 L 142.386719 126.652344 C 142.386719 144.253906 152.574219 159.476562 167.347656 166.851562 C 167.210938 174.367188 161.550781 180.496094 154.253906 181.410156 L 144.105469 171.261719 C 136.554688 163.710938 132.394531 153.679688 132.394531 143.003906 Z M 191 211.582031 C 189.753906 212.519531 188.523438 213.535156 187.351562 214.589844 C 186.179688 213.535156 184.953125 212.519531 183.703125 211.582031 Z M 201.167969 201.589844 L 173.535156 201.589844 C 171.640625 201.589844 169.925781 200.535156 169.105469 198.917969 L 164.128906 188.515625 C 170.921875 184.867188 175.78125 178.25 176.96875 170.367188 C 180.328125 171.148438 183.78125 171.613281 187.351562 171.613281 C 190.921875 171.613281 194.378906 171.148438 197.734375 170.367188 C 198.925781 178.25 203.785156 184.867188 210.574219 188.515625 L 205.617188 198.839844 C 204.78125 200.535156 203.0625 201.589844 201.167969 201.589844 Z M 307.253906 96.675781 L 312.25 96.675781 L 312.25 76.691406 C 312.25 71.1875 316.742188 66.699219 322.242188 66.699219 C 327.746094 66.699219 332.234375 71.1875 332.234375 76.691406 L 332.234375 106.667969 L 307.253906 106.667969 C 304.503906 106.667969 302.261719 104.421875 302.261719 101.671875 C 302.261719 98.917969 304.503906 96.675781 307.253906 96.675781 Z M 342.226562 122.339844 L 342.226562 76.691406 C 342.226562 65.664062 333.269531 56.707031 322.242188 56.707031 C 311.21875 56.707031 302.261719 65.664062 302.261719 76.691406 L 302.261719 87.542969 C 296.445312 89.609375 292.269531 95.152344 292.269531 101.671875 C 292.269531 108.128906 296.386719 113.671875 302.144531 115.761719 C 300.054688 151.707031 270.683594 180.378906 234.480469 181.488281 L 237.664062 178.328125 C 247.109375 168.882812 252.300781 156.335938 252.300781 143.003906 L 252.300781 86.683594 C 252.300781 56.375 227.652344 31.726562 197.34375 31.726562 L 177.359375 31.726562 C 147.050781 31.726562 122.40625 56.375 122.40625 86.683594 L 122.40625 143.003906 C 122.40625 156.335938 127.59375 168.882812 137.039062 178.328125 L 140.222656 181.488281 C 104.019531 180.378906 74.648438 151.707031 72.5625 115.761719 C 78.320312 113.671875 82.4375 108.128906 82.4375 101.671875 C 82.4375 95.152344 78.261719 89.609375 72.445312 87.542969 L 72.445312 76.691406 C 72.445312 65.664062 63.488281 56.707031 52.460938 56.707031 C 41.433594 56.707031 32.476562 65.664062 32.476562 76.691406 L 32.476562 122.339844 C 32.476562 171.070312 62.414062 214.023438 107.496094 231.15625 C 104.195312 238.046875 102.421875 245.617188 102.421875 253.347656 C 102.421875 269.425781 110.089844 284.785156 122.96875 294.425781 L 187.351562 342.726562 L 251.734375 294.445312 C 251.949219 294.269531 252.144531 294.09375 252.359375 293.9375 C 259.480469 298.71875 268.070312 301.511719 277.28125 301.511719 C 302.085938 301.511719 322.242188 281.351562 322.242188 256.546875 C 322.242188 238.28125 311.277344 222.570312 295.605469 215.523438 C 324.957031 193.589844 342.226562 159.496094 342.226562 122.339844 " fill-opacity="1" fill-rule="nonzero"/></g><path fill="#000000" d="M 292.269531 251.550781 L 292.269531 261.542969 L 282.277344 261.542969 L 282.277344 271.535156 L 272.285156 271.535156 L 272.285156 261.542969 L 262.292969 261.542969 L 262.292969 251.550781 L 272.285156 251.550781 L 272.285156 241.558594 L 282.277344 241.558594 L 282.277344 251.550781 Z M 262.292969 241.558594 C 256.789062 241.558594 252.300781 246.046875 252.300781 251.550781 L 252.300781 261.542969 C 252.300781 267.046875 256.789062 271.535156 262.292969 271.535156 C 262.292969 277.039062 266.78125 281.527344 272.285156 281.527344 L 282.277344 281.527344 C 287.78125 281.527344 292.269531 277.039062 292.269531 271.535156 C 297.769531 271.535156 302.261719 267.046875 302.261719 261.542969 L 302.261719 251.550781 C 302.261719 246.046875 297.769531 241.558594 292.269531 241.558594 C 292.269531 236.054688 287.78125 231.566406 282.277344 231.566406 L 272.285156 231.566406 C 266.78125 231.566406 262.292969 236.054688 262.292969 241.558594 " fill-opacity="1" fill-rule="nonzero"/></svg>