<svg xmlns="http://www.w3.org/2000/svg" xmlns:xlink="http://www.w3.org/1999/xlink" width="500" zoomAndPan="magnify" viewBox="0 0 375 374.999991" height="500" preserveAspectRatio="xMidYMid meet" version="1.0"><defs><clipPath id="c9b9740a16"><path d="M 56.363281 35.457031 L 318.863281 35.457031 L 318.863281 339.207031 L 56.363281 339.207031 Z M 56.363281 35.457031 " clip-rule="nonzero"/></clipPath><clipPath id="e894991306"><rect x="0" width="263" y="0" height="305"/></clipPath></defs><rect x="-37.5" width="450" fill="#ffffff" y="-37.499999" height="449.999989" fill-opacity="1"/><rect x="-37.5" width="450" fill="#ffffff" y="-37.499999" height="449.999989" fill-opacity="1"/><g clip-path="url(#c9b9740a16)"><g transform="matrix(1, 0, 0, 1, 56, 35)"><g clip-path="url(#e894991306)"><path fill="#000000" d="M 139.765625 180.449219 C 148.121094 180.449219 154.566406 175.820312 157.847656 172.070312 C 167.15625 172.015625 172.082031 165.683594 173.304688 158.011719 C 188.316406 154.421875 190.308594 144.015625 190.4375 139.464844 C 200.226562 133.851562 201.011719 124.234375 197.332031 115.683594 C 199.222656 114.101562 200.730469 111.695312 202.070312 108.324219 C 204.484375 102.222656 200.4375 96.679688 197.949219 94.03125 C 202.421875 84.070312 198.238281 76.425781 189.953125 72.699219 C 189.816406 69.46875 188.851562 64.574219 184.8125 62.660156 C 183.945312 55.140625 179.792969 50.117188 173.097656 49.089844 C 172.414062 38.9375 163.664062 35.679688 155.746094 35.695312 C 150.085938 25.042969 128.9375 21.769531 119.839844 41.632812 C 119.664062 42.011719 119.578125 42.421875 119.578125 42.835938 L 119.429688 163.871094 C 119.429688 164.113281 119.460938 164.355469 119.523438 164.601562 C 122.105469 174.5625 130.460938 178.558594 130.917969 178.738281 C 134.042969 179.945312 137.011719 180.449219 139.765625 180.449219 Z M 156.488281 166.222656 C 155.566406 166.222656 154.691406 166.664062 154.148438 167.417969 C 153.820312 167.851562 145.925781 178.222656 133.132812 173.375 C 132.421875 173.015625 127.113281 170.109375 125.242188 163.488281 L 125.386719 43.488281 C 129.082031 35.871094 135.375 32.019531 142.316406 33.175781 C 146.304688 33.835938 149.644531 36.109375 150.800781 38.765625 C 150.804688 38.855469 150.8125 38.957031 150.824219 39.046875 C 150.921875 39.855469 151.183594 39.964844 151.21875 40.3125 C 151.554688 43.757812 147.894531 47.195312 141.160156 49.742188 C 137.582031 51.09375 139.640625 56.519531 143.21875 55.164062 C 154.203125 51.011719 156.742188 45.367188 157.023438 41.519531 C 163.257812 41.867188 167.851562 44.324219 167.277344 51.625 C 167.144531 53.363281 168.492188 54.855469 170.519531 54.734375 C 174.511719 54.496094 177.921875 56.832031 178.878906 62.226562 C 175.929688 62.921875 167.410156 65.640625 165.332031 83.65625 C 164.894531 87.445312 170.671875 88.109375 171.105469 84.316406 C 172.714844 70.371094 178.515625 68.414062 179.398438 68.109375 C 180.425781 67.757812 181.816406 67.460938 182.585938 68.066406 C 184.5 69.542969 184.015625 74.273438 184.15625 75.132812 C 184.335938 76.265625 185.136719 77.140625 186.242188 77.46875 C 186.648438 77.597656 191.710938 79.257812 193.398438 83.328125 C 194.503906 85.980469 193.988281 89.3125 191.871094 93.21875 C 191.175781 94.472656 191.460938 95.972656 192.570312 96.894531 C 192.917969 97.195312 198.332031 101.988281 196.664062 106.191406 C 194.613281 111.375 193.125 112.558594 188.84375 112.320312 C 184.917969 112.105469 178.902344 110.238281 172.570312 102.5625 C 170.148438 99.625 165.664062 103.316406 168.085938 106.25 C 176.101562 115.96875 185.21875 118.964844 192 117.992188 C 194.828125 124.574219 194.28125 131.351562 186.277344 135.101562 C 185.066406 135.664062 184.417969 136.882812 184.613281 138.203125 C 184.796875 139.578125 185.625 149.929688 170.164062 152.746094 C 168.757812 152.984375 167.753906 154.144531 167.726562 155.589844 C 167.71875 155.867188 167.511719 161.046875 164.25 164.039062 C 162.414062 165.726562 159.933594 166.445312 156.679688 166.230469 C 156.617188 166.230469 156.550781 166.222656 156.488281 166.222656 Z M 156.488281 166.222656 " fill-opacity="1" fill-rule="evenodd"/><path fill="#000000" d="M 104.90625 180.449219 C 107.234375 180.449219 111.363281 179.875 113.933594 178.65625 C 114.289062 178.492188 122.574219 174.511719 125.148438 164.601562 C 126.105469 160.902344 120.484375 159.449219 119.523438 163.144531 C 117.742188 170.015625 112.238281 173.019531 111.542969 173.375 C 98.746094 178.222656 90.851562 167.851562 90.519531 167.40625 C 89.933594 166.617188 88.96875 166.171875 87.992188 166.230469 C 84.734375 166.445312 82.257812 165.726562 80.421875 164.039062 C 77.203125 161.082031 76.960938 156 76.941406 155.59375 C 76.9375 154.226562 75.953125 153.007812 74.554688 152.757812 C 58.011719 149.765625 60.128906 138.414062 60.09375 137.609375 C 60.039062 136.511719 59.394531 135.566406 58.390625 135.101562 C 50.382812 131.355469 49.84375 124.566406 52.667969 117.992188 C 59.449219 118.972656 68.5625 115.96875 76.582031 106.25 C 79.003906 103.316406 74.519531 99.625 72.097656 102.5625 C 65.769531 110.230469 59.757812 112.105469 55.824219 112.320312 C 51.5625 112.558594 50.070312 111.398438 48.007812 106.191406 C 46.222656 101.691406 52.117188 97.035156 52.605469 96.375 C 53.296875 95.445312 53.363281 94.226562 52.796875 93.21875 C 50.675781 89.300781 50.164062 85.960938 51.277344 83.296875 C 53.121094 78.925781 58.363281 77.609375 59.09375 77.191406 C 60.085938 76.617188 60.632812 75.542969 60.535156 74.402344 C 60.390625 72.417969 60.777344 69.066406 62.085938 68.058594 C 63.074219 67.300781 64.648438 67.972656 65.605469 68.203125 C 66.140625 68.378906 71.988281 70.632812 73.5625 84.316406 C 74.003906 88.109375 79.773438 87.445312 79.335938 83.652344 C 77.261719 65.640625 68.738281 62.914062 65.792969 62.226562 C 66.246094 59.644531 67.222656 57.714844 68.703125 56.457031 C 72.132812 53.542969 74.660156 55.714844 76.507812 53.945312 C 77.132812 53.339844 77.460938 52.488281 77.390625 51.625 C 76.816406 44.261719 81.507812 41.832031 87.644531 41.523438 C 87.921875 45.367188 90.46875 51.011719 101.449219 55.164062 C 105.023438 56.519531 107.085938 51.09375 103.507812 49.742188 C 96.777344 47.195312 93.113281 43.757812 93.453125 40.3125 C 93.488281 39.957031 93.746094 39.855469 93.84375 39.046875 C 93.855469 38.957031 93.863281 38.855469 93.867188 38.765625 C 95.023438 36.109375 98.363281 33.835938 102.351562 33.175781 C 109.460938 31.992188 115.886719 36.054688 119.542969 44.046875 C 121.132812 47.519531 126.421875 45.109375 124.828125 41.632812 C 115.738281 21.773438 94.585938 25.039062 88.921875 35.691406 C 80.953125 35.691406 72.253906 38.949219 71.566406 49.089844 C 64.875 50.113281 60.722656 55.140625 59.855469 62.65625 C 55.816406 64.574219 54.851562 69.460938 54.71875 72.699219 C 46.429688 76.425781 42.246094 84.070312 46.71875 94.03125 C 44.238281 96.679688 40.183594 102.222656 42.597656 108.324219 C 43.933594 111.695312 45.445312 114.101562 47.335938 115.683594 C 43.664062 124.230469 44.453125 133.851562 54.230469 139.464844 C 54.359375 144.015625 56.351562 154.421875 71.363281 158.011719 C 72.585938 165.679688 77.511719 172.015625 86.820312 172.0625 C 90.101562 175.820312 96.550781 180.449219 104.90625 180.449219 Z M 104.90625 180.449219 " fill-opacity="1" fill-rule="evenodd"/><path fill="#000000" d="M 139.09375 303.441406 C 140.386719 303.441406 141.566406 302.574219 141.90625 301.261719 C 152.339844 260.753906 174.777344 245.972656 216.394531 252.652344 C 216.632812 252.6875 216.878906 252.699219 217.117188 252.675781 C 226.941406 251.824219 233.472656 248.570312 236.515625 243.003906 C 240.910156 234.976562 236.035156 225.542969 235.824219 225.144531 C 234 221.710938 233.546875 218.863281 234.460938 216.671875 C 235.753906 213.585938 239.492188 212.4375 239.53125 212.425781 C 241.507812 211.84375 242.269531 209.414062 240.96875 207.8125 L 235.640625 201.265625 L 242.652344 198.226562 C 244.15625 197.570312 244.824219 195.792969 244.117188 194.3125 C 239.9375 185.625 243.738281 179.910156 245.128906 178.238281 C 252.429688 176.300781 257.152344 172.746094 259.171875 167.65625 C 262.640625 158.90625 256.410156 149.125 255.863281 148.519531 C 233.019531 123.246094 233.617188 112.085938 233.703125 111.242188 C 233.773438 111.007812 233.769531 110.917969 233.769531 110.648438 C 234.191406 74.066406 220.789062 51.589844 209.476562 39.175781 C 197.523438 26.070312 185.539062 21.183594 184.300781 20.707031 C 153.339844 6.980469 121.96875 3.144531 93.589844 9.601562 C 67.652344 15.503906 44.671875 30.136719 28.882812 50.796875 C 12.84375 71.78125 4.683594 98.320312 5.914062 125.535156 C 7.25 155.164062 19.433594 184.894531 41.144531 211.546875 C 52.015625 246.273438 19.777344 297.277344 19.453125 297.789062 C 17.390625 301.007812 22.285156 304.128906 24.34375 300.914062 C 25.753906 298.710938 58.714844 246.59375 46.507812 209.238281 C 46.398438 208.894531 46.222656 208.578125 45.996094 208.300781 C 5.066406 158.378906 0.160156 97.933594 33.5 54.316406 C 66.152344 11.597656 124.445312 0.5 182.011719 26.035156 C 182.261719 26.140625 193.898438 30.605469 205.386719 43.304688 C 215.878906 54.90625 228.300781 75.957031 227.964844 110.347656 C 227.570312 112.988281 227.367188 125.585938 251.382812 152.214844 C 252.0625 153.332031 255.933594 160.09375 253.761719 165.539062 C 252.394531 168.960938 248.742188 171.414062 242.894531 172.824219 C 242.40625 172.9375 241.960938 173.183594 241.589844 173.523438 C 241.222656 173.867188 233.261719 181.539062 237.714844 194.046875 L 229.8125 197.46875 C 228.050781 198.226562 227.503906 200.464844 228.714844 201.957031 L 234.152344 208.636719 C 227.523438 212.902344 226.550781 219.929688 230.683594 227.851562 C 230.710938 227.910156 234.316406 234.96875 231.402344 240.242188 C 229.375 243.929688 224.519531 246.160156 216.964844 246.867188 C 194.304688 243.253906 176.835938 245.875 163.566406 254.875 C 150.757812 263.558594 141.835938 278.265625 136.28125 299.820312 C 135.804688 301.667969 137.210938 303.441406 139.09375 303.441406 Z M 139.09375 303.441406 " fill-opacity="1" fill-rule="evenodd"/></g></g></g></svg>