<svg xmlns="http://www.w3.org/2000/svg" xmlns:xlink="http://www.w3.org/1999/xlink" width="500" zoomAndPan="magnify" viewBox="0 0 375 374.999991" height="500" preserveAspectRatio="xMidYMid meet" version="1.0"><defs><clipPath id="03a3a1326c"><path d="M 43.710938 165 L 70 165 L 70 190 L 43.710938 190 Z M 43.710938 165 " clip-rule="nonzero"/></clipPath><clipPath id="562ad95df4"><path d="M 230 292 L 240 292 L 240 334.960938 L 230 334.960938 Z M 230 292 " clip-rule="nonzero"/></clipPath></defs><rect x="-37.5" width="450" fill="#ffffff" y="-37.499999" height="449.999989" fill-opacity="1"/><rect x="-37.5" width="450" fill="#ffffff" y="-37.499999" height="449.999989" fill-opacity="1"/><path fill="#000000" d="M 293.246094 224.78125 L 282.589844 224.78125 C 282.335938 224.78125 282.101562 224.648438 281.96875 224.429688 L 255.105469 180.324219 C 253.828125 178.234375 251.855469 176.640625 249.546875 175.839844 C 244.167969 173.972656 237.355469 171.324219 234.835938 169.105469 C 231.910156 169.511719 212.984375 171.757812 207.609375 163.320312 C 206.175781 163.15625 200.851562 162.453125 195.355469 160.53125 C 187.210938 157.683594 182.539062 153.433594 181.785156 148.210938 C 177.769531 148.464844 158.417969 149.183594 148.335938 140.292969 C 144.570312 136.96875 142.550781 132.667969 142.339844 127.503906 C 141.941406 117.722656 143.207031 109.972656 146.101562 104.480469 C 147.835938 101.179688 149.679688 99.699219 150.441406 99.191406 C 150.625 97.414062 151.589844 89.597656 154.785156 81.738281 C 159.585938 69.933594 167.230469 63.332031 176.902344 62.628906 C 178.78125 60.851562 193.488281 47.644531 212.582031 49.285156 C 213.773438 48.445312 219.375 44.757812 228.339844 42.765625 C 237.445312 40.742188 251.84375 40.207031 268.828125 49.089844 C 269.941406 48.792969 273.976562 47.878906 279.292969 48.699219 C 284.925781 49.566406 293.089844 52.632812 300.078125 62.3125 C 300.910156 62.804688 305.210938 65.445312 309.570312 69.703125 C 315.855469 75.839844 319.207031 82.4375 319.273438 88.792969 C 319.863281 89.816406 322.777344 95.074219 324.996094 102.5625 C 327.230469 110.097656 329.117188 121.347656 325.46875 132.265625 C 325.910156 134.269531 328.890625 149.058594 323.015625 159.121094 C 322.628906 160.46875 318.640625 173.402344 307.222656 178.457031 C 299.992188 181.660156 291.414062 180.945312 281.707031 176.339844 L 293.953125 223.867188 C 294.007812 224.085938 293.960938 224.320312 293.824219 224.496094 C 293.683594 224.675781 293.472656 224.78125 293.246094 224.78125 Z M 283 223.320312 L 292.304688 223.320312 L 279.902344 175.167969 C 279.828125 174.890625 279.925781 174.597656 280.148438 174.417969 C 280.375 174.238281 280.683594 174.203125 280.9375 174.332031 C 290.820312 179.355469 299.460938 180.296875 306.625 177.125 C 317.785156 172.191406 321.601562 158.773438 321.640625 158.636719 C 321.65625 158.574219 321.683594 158.515625 321.714844 158.460938 C 327.660156 148.378906 324.042969 132.550781 324.003906 132.394531 C 323.972656 132.261719 323.980469 132.121094 324.023438 131.992188 C 330.941406 111.65625 318.050781 89.585938 317.921875 89.367188 C 317.855469 89.253906 317.820312 89.125 317.820312 88.992188 C 317.820312 74.394531 299.398438 63.601562 299.214844 63.496094 C 299.125 63.445312 299.046875 63.375 298.984375 63.289062 C 292.292969 53.953125 284.5 50.992188 279.140625 50.152344 C 273.316406 49.238281 269.011719 50.554688 268.96875 50.566406 C 268.78125 50.625 268.582031 50.609375 268.410156 50.515625 C 259.207031 45.660156 244.847656 40.617188 228.726562 44.175781 C 219.070312 46.304688 213.28125 50.578125 213.222656 50.621094 C 213.078125 50.726562 212.898438 50.78125 212.71875 50.761719 C 192.894531 48.917969 177.878906 63.707031 177.730469 63.855469 C 177.605469 63.980469 177.4375 64.054688 177.261719 64.066406 C 167.933594 64.640625 160.832031 70.761719 156.148438 82.261719 C 152.605469 90.949219 151.863281 99.597656 151.859375 99.683594 C 151.835938 99.933594 151.6875 100.160156 151.460938 100.273438 C 151.445312 100.28125 149.3125 101.433594 147.308594 105.3125 C 145.441406 108.929688 143.320312 115.703125 143.796875 127.445312 C 143.992188 132.191406 145.839844 136.144531 149.296875 139.195312 C 159.875 148.523438 182.144531 146.722656 182.371094 146.703125 C 182.566406 146.6875 182.757812 146.746094 182.90625 146.875 C 183.054688 147 183.144531 147.179688 183.160156 147.375 C 184.050781 159.441406 207.871094 161.882812 208.113281 161.90625 C 208.347656 161.929688 208.554688 162.0625 208.675781 162.265625 C 213.582031 170.757812 234.753906 167.644531 234.96875 167.613281 C 235.195312 167.578125 235.429688 167.652344 235.59375 167.816406 C 237.179688 169.410156 242.441406 171.828125 250.023438 174.460938 C 252.652344 175.371094 254.898438 177.183594 256.347656 179.566406 Z M 283 223.320312 " fill-opacity="1" fill-rule="nonzero"/><path fill="#000000" d="M 293.246094 224.78125 L 282.589844 224.78125 C 282.335938 224.78125 282.101562 224.648438 281.96875 224.429688 L 255.105469 180.324219 C 253.828125 178.234375 251.855469 176.640625 249.546875 175.839844 C 246.664062 174.839844 242.539062 173.320312 239.273438 171.761719 C 239.003906 171.636719 238.839844 171.355469 238.859375 171.058594 L 239.769531 156.3125 C 239.921875 153.816406 241.730469 151.691406 244.164062 151.144531 L 248.261719 150.226562 L 263.273438 144.9375 C 266.101562 143.941406 269.214844 145.339844 270.359375 148.121094 L 281.28125 174.707031 C 281.292969 174.738281 281.304688 174.769531 281.3125 174.804688 L 293.953125 223.867188 C 294.007812 224.085938 293.960938 224.320312 293.824219 224.5 C 293.683594 224.675781 293.472656 224.78125 293.246094 224.78125 Z M 283 223.320312 L 292.304688 223.320312 L 279.914062 175.214844 L 269.011719 148.675781 C 268.164062 146.613281 265.855469 145.578125 263.757812 146.316406 L 248.703125 151.621094 C 248.675781 151.628906 248.648438 151.636719 248.621094 151.644531 L 244.484375 152.570312 C 242.675781 152.976562 241.335938 154.550781 241.222656 156.402344 L 240.34375 170.652344 C 243.472656 172.109375 247.304688 173.515625 250.023438 174.460938 C 252.652344 175.371094 254.898438 177.183594 256.347656 179.566406 Z M 283 223.320312 " fill-opacity="1" fill-rule="nonzero"/><path fill="#000000" d="M 324.710938 132.957031 C 324.582031 132.957031 324.449219 132.921875 324.332031 132.847656 C 324.230469 132.785156 314.285156 126.714844 303.816406 127.023438 C 303.421875 127.035156 303.078125 126.71875 303.066406 126.316406 C 303.054688 125.914062 303.371094 125.578125 303.773438 125.5625 C 314.6875 125.230469 324.675781 131.34375 325.097656 131.605469 C 325.4375 131.816406 325.542969 132.269531 325.332031 132.609375 C 325.195312 132.832031 324.957031 132.957031 324.710938 132.957031 Z M 324.710938 132.957031 " fill-opacity="1" fill-rule="nonzero"/><path fill="#000000" d="M 296.582031 81.042969 C 296.472656 81.042969 296.363281 81.019531 296.257812 80.96875 C 295.898438 80.785156 295.75 80.347656 295.929688 79.988281 C 299.089844 73.660156 298.851562 62.988281 298.847656 62.882812 C 298.839844 62.480469 299.15625 62.144531 299.558594 62.132812 C 299.960938 62.125 300.292969 62.441406 300.304688 62.84375 C 300.316406 63.296875 300.554688 73.984375 297.234375 80.640625 C 297.105469 80.898438 296.847656 81.042969 296.582031 81.042969 Z M 296.582031 81.042969 " fill-opacity="1" fill-rule="nonzero"/><path fill="#000000" d="M 183.910156 148.21875 C 183.367188 148.21875 182.851562 148.199219 182.367188 148.15625 C 181.96875 148.121094 181.671875 147.765625 181.707031 147.363281 C 181.742188 146.964844 182.097656 146.667969 182.5 146.703125 C 189.914062 147.367188 206.691406 142.128906 206.859375 142.078125 C 207.242188 141.957031 207.652344 142.171875 207.773438 142.554688 C 207.890625 142.941406 207.679688 143.347656 207.292969 143.46875 C 206.636719 143.675781 192.074219 148.222656 183.910156 148.222656 Z M 183.910156 148.21875 " fill-opacity="1" fill-rule="nonzero"/><path fill="#000000" d="M 163.609375 102.871094 C 163.355469 102.871094 163.105469 102.738281 162.972656 102.496094 C 160.296875 97.671875 151.429688 100.292969 151.34375 100.320312 C 150.957031 100.4375 150.550781 100.21875 150.433594 99.835938 C 150.316406 99.449219 150.535156 99.039062 150.917969 98.921875 C 151.328125 98.800781 161 95.933594 164.246094 101.785156 C 164.441406 102.140625 164.316406 102.582031 163.964844 102.78125 C 163.851562 102.84375 163.730469 102.871094 163.609375 102.871094 Z M 163.609375 102.871094 " fill-opacity="1" fill-rule="nonzero"/><path fill="#000000" d="M 207.074219 63.59375 C 206.753906 63.59375 206.457031 63.378906 206.371094 63.050781 C 205.574219 60.046875 206.363281 56.738281 208.65625 53.472656 C 210.351562 51.0625 212.25 49.527344 212.332031 49.464844 C 212.644531 49.214844 213.105469 49.265625 213.355469 49.578125 C 213.605469 49.894531 213.554688 50.355469 213.242188 50.605469 C 213.167969 50.664062 206.117188 56.40625 207.78125 62.675781 C 207.882812 63.066406 207.652344 63.464844 207.261719 63.570312 C 207.199219 63.585938 207.136719 63.59375 207.074219 63.59375 Z M 207.074219 63.59375 " fill-opacity="1" fill-rule="nonzero"/><path fill="#000000" d="M 203.3125 92.84375 C 203.105469 92.84375 202.898438 92.753906 202.753906 92.578125 C 197.804688 86.628906 198.460938 77.714844 198.492188 77.339844 C 198.527344 76.9375 198.875 76.636719 199.277344 76.671875 C 199.679688 76.703125 199.976562 77.054688 199.945312 77.457031 C 199.9375 77.542969 199.308594 86.160156 203.871094 91.644531 C 204.128906 91.953125 204.089844 92.414062 203.78125 92.671875 C 203.644531 92.785156 203.476562 92.839844 203.3125 92.839844 Z M 203.3125 92.84375 " fill-opacity="1" fill-rule="nonzero"/><path fill="#000000" d="M 200.046875 95.445312 C 199.742188 95.445312 199.460938 95.253906 199.355469 94.949219 C 199.226562 94.570312 199.429688 94.152344 199.808594 94.023438 C 205.035156 92.222656 209.105469 84.496094 209.144531 84.417969 C 209.328125 84.0625 209.769531 83.921875 210.128906 84.109375 C 210.484375 84.292969 210.621094 84.734375 210.4375 85.09375 C 210.261719 85.433594 206.050781 93.417969 200.28125 95.402344 C 200.203125 95.429688 200.125 95.445312 200.046875 95.445312 Z M 200.046875 95.445312 " fill-opacity="1" fill-rule="nonzero"/><path fill="#000000" d="M 216.898438 119.636719 C 216.550781 119.636719 216.246094 119.390625 216.183594 119.035156 C 214.324219 108.683594 215.59375 100.539062 219.953125 94.820312 C 225.167969 87.984375 232.84375 87.226562 233.167969 87.199219 C 233.578125 87.164062 233.921875 87.460938 233.957031 87.859375 C 233.992188 88.261719 233.699219 88.617188 233.296875 88.652344 C 233.222656 88.660156 225.910156 89.398438 221.097656 95.726562 C 217.007812 101.101562 215.835938 108.859375 217.617188 118.777344 C 217.6875 119.171875 217.425781 119.554688 217.027344 119.625 C 216.984375 119.632812 216.941406 119.636719 216.898438 119.636719 Z M 216.898438 119.636719 " fill-opacity="1" fill-rule="nonzero"/><path fill="#000000" d="M 243.136719 104.144531 C 242.882812 104.144531 242.640625 104.015625 242.503906 103.78125 C 242.421875 103.640625 240.507812 100.285156 239.996094 95.488281 C 239.535156 91.144531 244.777344 82.625 246.1875 80.425781 C 243.488281 78.078125 237.453125 76.464844 237.390625 76.449219 C 237 76.34375 236.769531 75.945312 236.871094 75.554688 C 236.972656 75.164062 237.371094 74.933594 237.761719 75.035156 C 238.054688 75.113281 244.941406 76.957031 247.660156 79.808594 C 247.894531 80.058594 247.925781 80.433594 247.738281 80.71875 C 245.855469 83.550781 241.058594 91.695312 241.445312 95.332031 C 241.925781 99.824219 243.746094 103.019531 243.765625 103.050781 C 243.96875 103.398438 243.847656 103.84375 243.5 104.046875 C 243.386719 104.113281 243.257812 104.144531 243.136719 104.144531 Z M 243.136719 104.144531 " fill-opacity="1" fill-rule="nonzero"/><path fill="#000000" d="M 247.128906 81.042969 C 247 81.042969 246.867188 81.007812 246.75 80.9375 C 246.40625 80.726562 246.300781 80.273438 246.511719 79.929688 C 248.464844 76.746094 255.265625 77.78125 257.464844 78.210938 C 258.273438 76.492188 261.265625 71.742188 269.816406 70.863281 C 280.027344 69.8125 286.050781 78.269531 286.300781 78.632812 C 286.53125 78.960938 286.449219 79.417969 286.121094 79.648438 C 285.789062 79.878906 285.335938 79.796875 285.105469 79.464844 C 285.023438 79.351562 279.296875 71.355469 269.96875 72.316406 C 260.644531 73.277344 258.617188 79.214844 258.597656 79.273438 C 258.480469 79.632812 258.113281 79.84375 257.742188 79.761719 C 257.722656 79.757812 255.570312 79.273438 253.21875 79.191406 C 250.355469 79.085938 248.414062 79.621094 247.753906 80.695312 C 247.613281 80.921875 247.375 81.042969 247.128906 81.042969 Z M 247.128906 81.042969 " fill-opacity="1" fill-rule="nonzero"/><path fill="#000000" d="M 221.589844 68.464844 C 221.1875 68.464844 220.863281 68.140625 220.863281 67.734375 C 220.863281 64.9375 223.300781 59.851562 230.019531 57.304688 C 235.792969 55.117188 236.152344 52.722656 236.15625 52.699219 C 236.179688 52.296875 236.535156 52 236.925781 52.027344 C 237.328125 52.054688 237.632812 52.410156 237.609375 52.8125 C 237.585938 53.144531 237.210938 56.140625 230.535156 58.671875 C 224.550781 60.941406 222.320312 65.433594 222.320312 67.734375 C 222.320312 68.140625 221.992188 68.464844 221.589844 68.464844 Z M 221.589844 68.464844 " fill-opacity="1" fill-rule="nonzero"/><path fill="#000000" d="M 177.273438 81.582031 C 176.480469 81.582031 175.621094 81.445312 174.824219 81.050781 C 173.542969 80.414062 172.671875 79.25 172.238281 77.585938 C 170.78125 72.03125 176.367188 63.308594 176.605469 62.941406 C 176.824219 62.601562 177.273438 62.503906 177.613281 62.726562 C 177.949219 62.945312 178.046875 63.394531 177.828125 63.734375 C 177.773438 63.820312 172.355469 72.285156 173.644531 77.214844 C 173.96875 78.449219 174.582031 79.296875 175.464844 79.738281 C 177.289062 80.648438 179.761719 79.648438 179.785156 79.640625 C 180.160156 79.484375 180.582031 79.664062 180.738281 80.035156 C 180.890625 80.40625 180.714844 80.832031 180.34375 80.988281 C 180.261719 81.023438 178.894531 81.582031 177.273438 81.582031 Z M 177.273438 81.582031 " fill-opacity="1" fill-rule="nonzero"/><path fill="#000000" d="M 172.722656 92.84375 C 172.449219 92.84375 172.1875 92.6875 172.0625 92.425781 C 172.011719 92.320312 170.839844 89.816406 170.269531 86.675781 C 169.492188 82.390625 170.242188 79.003906 172.433594 76.875 C 172.722656 76.59375 173.183594 76.601562 173.464844 76.890625 C 173.746094 77.179688 173.738281 77.640625 173.449219 77.921875 C 168.96875 82.273438 173.335938 91.703125 173.382812 91.800781 C 173.550781 92.164062 173.398438 92.597656 173.035156 92.773438 C 172.933594 92.820312 172.828125 92.84375 172.722656 92.84375 Z M 172.722656 92.84375 " fill-opacity="1" fill-rule="nonzero"/><path fill="#000000" d="M 167.179688 138.023438 C 166.832031 138.023438 166.523438 137.769531 166.460938 137.414062 C 166.394531 137.015625 166.664062 136.640625 167.058594 136.574219 C 167.117188 136.5625 170.308594 135.976562 171.925781 133.332031 C 173.089844 131.429688 173.199219 128.902344 172.246094 125.820312 C 171.523438 123.488281 170.226562 121.914062 168.382812 121.140625 C 163.957031 119.277344 157.765625 122.417969 157.703125 122.449219 C 157.347656 122.632812 156.90625 122.492188 156.722656 122.132812 C 156.539062 121.773438 156.679688 121.332031 157.039062 121.148438 C 157.316406 121.007812 163.902344 117.671875 168.949219 119.792969 C 171.207031 120.746094 172.785156 122.625 173.636719 125.386719 C 174.722656 128.898438 174.5625 131.832031 173.160156 134.109375 C 171.179688 137.332031 167.457031 137.988281 167.300781 138.011719 C 167.261719 138.019531 167.21875 138.023438 167.179688 138.023438 Z M 167.179688 138.023438 " fill-opacity="1" fill-rule="nonzero"/><path fill="#000000" d="M 172.941406 126.335938 C 172.890625 126.335938 172.839844 126.328125 172.785156 126.316406 C 172.394531 126.230469 172.144531 125.84375 172.230469 125.449219 C 173.1875 121.046875 176.96875 117.8125 183.164062 116.085938 C 187.730469 114.816406 191.957031 114.800781 192.132812 114.800781 C 192.535156 114.800781 192.863281 115.128906 192.863281 115.53125 C 192.863281 115.933594 192.535156 116.261719 192.132812 116.261719 C 191.96875 116.261719 175.695312 116.378906 173.652344 125.757812 C 173.578125 126.101562 173.277344 126.335938 172.941406 126.335938 Z M 172.941406 126.335938 " fill-opacity="1" fill-rule="nonzero"/><path fill="#000000" d="M 169.539062 111.90625 C 169.445312 111.90625 169.351562 111.890625 169.257812 111.851562 C 168.886719 111.695312 168.714844 111.269531 168.867188 110.898438 C 168.90625 110.800781 173.015625 101.375 187.144531 106.007812 C 187.527344 106.132812 187.738281 106.546875 187.613281 106.929688 C 187.488281 107.3125 187.078125 107.519531 186.691406 107.394531 C 173.882812 103.195312 170.355469 111.121094 170.210938 111.460938 C 170.09375 111.738281 169.824219 111.90625 169.539062 111.90625 Z M 169.539062 111.90625 " fill-opacity="1" fill-rule="nonzero"/><path fill="#000000" d="M 245.328125 120.367188 C 234.925781 120.367188 228.949219 107.75 228.882812 107.605469 C 228.710938 107.238281 228.871094 106.804688 229.238281 106.636719 C 229.601562 106.464844 230.035156 106.625 230.203125 106.988281 C 230.265625 107.125 235.855469 118.898438 245.359375 118.898438 C 246.628906 118.898438 247.964844 118.6875 249.367188 118.214844 C 261.304688 114.179688 258.152344 97.488281 258.121094 97.320312 C 258.042969 96.925781 258.300781 96.539062 258.695312 96.460938 C 259.089844 96.382812 259.472656 96.640625 259.550781 97.035156 C 259.585938 97.214844 262.988281 115.152344 249.835938 119.597656 C 248.253906 120.132812 246.75 120.367188 245.328125 120.367188 Z M 245.328125 120.367188 " fill-opacity="1" fill-rule="nonzero"/><path fill="#000000" d="M 222.90625 133.875 C 222.859375 133.875 222.8125 133.871094 222.765625 133.863281 C 222.371094 133.785156 222.113281 133.402344 222.191406 133.007812 C 222.265625 132.625 224.050781 123.632812 229.226562 121.140625 C 234 118.84375 237.101562 116.492188 237.132812 116.46875 C 237.453125 116.222656 237.910156 116.285156 238.15625 116.605469 C 238.398438 116.925781 238.335938 117.382812 238.019531 117.628906 C 237.886719 117.730469 234.777344 120.09375 229.859375 122.457031 C 225.34375 124.628906 223.636719 133.199219 223.621094 133.285156 C 223.554688 133.632812 223.25 133.875 222.90625 133.875 Z M 222.90625 133.875 " fill-opacity="1" fill-rule="nonzero"/><path fill="#000000" d="M 231.351562 143.570312 C 230.964844 143.570312 230.566406 143.546875 230.15625 143.5 C 229.753906 143.453125 229.46875 143.089844 229.515625 142.6875 C 229.5625 142.289062 229.929688 142 230.324219 142.046875 C 234.898438 142.589844 237.382812 139.535156 239.792969 136.582031 C 240.484375 135.734375 241.140625 134.929688 241.835938 134.226562 C 243.253906 132.789062 244.847656 132.839844 246.863281 132.902344 C 249.957031 133 254.636719 133.148438 263.242188 128.609375 C 276.980469 121.359375 273.699219 88.335938 273.664062 88 C 273.621094 87.601562 273.910156 87.242188 274.3125 87.199219 C 274.707031 87.15625 275.070312 87.449219 275.113281 87.851562 C 275.121094 87.933594 275.992188 96.472656 275.085938 105.824219 C 273.855469 118.539062 270.097656 126.640625 263.921875 129.898438 C 254.972656 134.621094 250.0625 134.464844 246.816406 134.363281 C 244.753906 134.296875 243.804688 134.308594 242.871094 135.253906 C 242.222656 135.90625 241.589844 136.683594 240.917969 137.507812 C 238.699219 140.230469 235.976562 143.570312 231.351562 143.570312 Z M 231.351562 143.570312 " fill-opacity="1" fill-rule="nonzero"/><path fill="#000000" d="M 266.417969 138.023438 C 266.335938 138.023438 266.257812 138.011719 266.175781 137.980469 C 265.796875 137.847656 265.597656 137.433594 265.730469 137.050781 C 265.746094 137.003906 267.355469 132.289062 266.621094 126.371094 C 266.574219 125.972656 266.855469 125.605469 267.257812 125.558594 C 267.648438 125.507812 268.019531 125.792969 268.070312 126.191406 C 268.847656 132.464844 267.175781 137.332031 267.105469 137.535156 C 267 137.835938 266.71875 138.023438 266.417969 138.023438 Z M 266.417969 138.023438 " fill-opacity="1" fill-rule="nonzero"/><path fill="#000000" d="M 286.335938 121.554688 C 284.972656 121.554688 283.664062 121.164062 282.503906 120.203125 C 276.953125 115.597656 275.457031 111.601562 275.394531 111.433594 C 275.257812 111.054688 275.453125 110.632812 275.832031 110.496094 C 276.210938 110.359375 276.628906 110.554688 276.765625 110.933594 C 276.78125 110.96875 278.21875 114.75 283.433594 119.078125 C 285.429688 120.734375 288.382812 120.367188 292.214844 117.992188 C 295.226562 116.125 297.625 113.671875 297.648438 113.648438 C 297.929688 113.359375 298.390625 113.351562 298.679688 113.632812 C 298.96875 113.914062 298.972656 114.378906 298.695312 114.667969 C 298.359375 115.011719 291.917969 121.554688 286.332031 121.554688 Z M 286.335938 121.554688 " fill-opacity="1" fill-rule="nonzero"/><path fill="#000000" d="M 282.136719 139.753906 C 281.84375 139.753906 281.566406 139.574219 281.457031 139.28125 C 281.3125 138.90625 281.503906 138.484375 281.878906 138.339844 C 282.304688 138.175781 292.265625 134.15625 288.394531 120.515625 C 288.285156 120.128906 288.511719 119.726562 288.898438 119.613281 C 289.285156 119.503906 289.6875 119.730469 289.796875 120.117188 C 294.039062 135.078125 282.515625 139.660156 282.398438 139.703125 C 282.3125 139.738281 282.226562 139.75 282.136719 139.75 Z M 282.136719 139.753906 " fill-opacity="1" fill-rule="nonzero"/><path fill="#000000" d="M 310.925781 119.636719 C 310.75 119.636719 310.570312 119.570312 310.429688 119.441406 C 310.136719 119.167969 310.117188 118.707031 310.390625 118.410156 C 310.441406 118.355469 315.339844 112.84375 312.84375 102.492188 C 310.339844 92.09375 303.0625 88.621094 302.992188 88.589844 C 302.625 88.421875 302.464844 87.988281 302.632812 87.621094 C 302.800781 87.253906 303.230469 87.09375 303.597656 87.261719 C 303.921875 87.410156 311.582031 91.027344 314.261719 102.148438 C 316.949219 113.304688 311.6875 119.160156 311.460938 119.402344 C 311.316406 119.558594 311.121094 119.636719 310.925781 119.636719 Z M 310.925781 119.636719 " fill-opacity="1" fill-rule="nonzero"/><path fill="#000000" d="M 321.558594 118.589844 C 321.394531 118.589844 321.230469 118.535156 321.097656 118.421875 C 320.863281 118.230469 315.355469 113.574219 313.085938 103.578125 C 312.996094 103.183594 313.242188 102.792969 313.632812 102.703125 C 314.027344 102.617188 314.417969 102.859375 314.507812 103.253906 C 316.660156 112.734375 321.972656 117.253906 322.027344 117.300781 C 322.335938 117.558594 322.378906 118.015625 322.121094 118.328125 C 321.976562 118.5 321.769531 118.589844 321.558594 118.589844 Z M 321.558594 118.589844 " fill-opacity="1" fill-rule="nonzero"/><path fill="#000000" d="M 313.539062 158.3125 C 302.738281 158.3125 296.023438 149.566406 295.734375 149.1875 C 295.492188 148.863281 295.558594 148.40625 295.878906 148.164062 C 296.199219 147.921875 296.65625 147.984375 296.898438 148.304688 C 296.96875 148.394531 303.777344 157.242188 314.261719 156.839844 C 314.675781 156.824219 315.003906 157.136719 315.015625 157.539062 C 315.03125 157.945312 314.71875 158.28125 314.316406 158.296875 C 314.054688 158.308594 313.796875 158.3125 313.539062 158.3125 Z M 313.539062 158.3125 " fill-opacity="1" fill-rule="nonzero"/><path fill="#000000" d="M 297.027344 169.679688 C 296.804688 169.679688 296.582031 169.574219 296.4375 169.378906 C 296.203125 169.050781 296.273438 168.597656 296.601562 168.359375 C 296.679688 168.300781 304.578125 162.457031 302.183594 154.664062 C 302.0625 154.277344 302.28125 153.867188 302.664062 153.75 C 303.046875 153.632812 303.457031 153.847656 303.574219 154.234375 C 306.28125 163.035156 297.542969 169.480469 297.453125 169.542969 C 297.324219 169.636719 297.175781 169.679688 297.027344 169.679688 Z M 297.027344 169.679688 " fill-opacity="1" fill-rule="nonzero"/><path fill="#000000" d="M 311.289062 145.953125 C 309.601562 145.953125 307.769531 145.492188 305.808594 144.570312 C 305.445312 144.398438 305.289062 143.964844 305.457031 143.597656 C 305.628906 143.234375 306.0625 143.074219 306.429688 143.246094 C 309.289062 144.59375 311.789062 144.851562 313.855469 144.007812 C 316.679688 142.855469 317.78125 139.984375 317.792969 139.957031 C 317.933594 139.578125 318.351562 139.386719 318.730469 139.527344 C 319.105469 139.664062 319.296875 140.085938 319.160156 140.460938 C 319.109375 140.601562 317.84375 143.945312 314.425781 145.351562 C 313.449219 145.753906 312.398438 145.953125 311.289062 145.953125 Z M 311.289062 145.953125 " fill-opacity="1" fill-rule="nonzero"/><path fill="#000000" d="M 235.078125 169.0625 C 235.007812 169.0625 234.941406 169.054688 234.875 169.035156 C 216.558594 163.726562 215.398438 151.21875 215.359375 150.6875 C 215.328125 150.285156 215.628906 149.933594 216.03125 149.90625 C 216.433594 149.875 216.78125 150.175781 216.8125 150.578125 C 216.851562 151.082031 217.996094 162.625 235.277344 167.632812 C 235.664062 167.746094 235.886719 168.148438 235.777344 168.539062 C 235.683594 168.855469 235.394531 169.066406 235.078125 169.066406 Z M 235.078125 169.0625 " fill-opacity="1" fill-rule="nonzero"/><path fill="#000000" d="M 248.191406 60.980469 C 248.128906 60.980469 248.0625 60.972656 248 60.957031 C 247.613281 60.851562 247.382812 60.449219 247.488281 60.0625 C 247.523438 59.933594 248.378906 56.839844 251.464844 53.941406 C 256.574219 49.140625 263.71875 48.683594 268.816406 49.144531 C 269.214844 49.179688 269.511719 49.535156 269.476562 49.9375 C 269.4375 50.339844 269.082031 50.640625 268.683594 50.597656 C 252.183594 49.109375 249.019531 59.980469 248.894531 60.445312 C 248.804688 60.769531 248.511719 60.980469 248.191406 60.980469 Z M 248.191406 60.980469 " fill-opacity="1" fill-rule="nonzero"/><path fill="#000000" d="M 206.796875 137.449219 C 203.679688 137.449219 201.125 136.628906 199.160156 134.992188 C 195.253906 131.738281 195.210938 126.503906 195.210938 126.28125 C 195.210938 125.878906 195.535156 125.550781 195.9375 125.550781 C 196.339844 125.550781 196.667969 125.878906 196.667969 126.28125 C 196.667969 126.355469 196.730469 131.082031 200.101562 133.878906 C 202.503906 135.875 206.019531 136.457031 210.550781 135.617188 C 210.945312 135.542969 211.328125 135.804688 211.398438 136.199219 C 211.472656 136.597656 211.210938 136.976562 210.816406 137.050781 C 209.386719 137.316406 208.046875 137.449219 206.796875 137.449219 Z M 196.667969 126.28125 L 196.671875 126.28125 Z M 196.667969 126.28125 " fill-opacity="1" fill-rule="nonzero"/><path fill="#000000" d="M 105.183594 245.910156 C 105.050781 245.910156 104.917969 245.875 104.800781 245.800781 C 104.585938 245.667969 104.457031 245.433594 104.457031 245.179688 C 104.457031 245.097656 104.390625 237.0625 99.648438 233.929688 C 96.9375 232.136719 93.152344 232.257812 88.402344 234.285156 C 88.089844 234.421875 87.730469 234.320312 87.53125 234.042969 C 87.328125 233.769531 87.347656 233.390625 87.570312 233.136719 C 87.898438 232.757812 95.527344 223.769531 87.628906 216.554688 C 82.109375 211.515625 77.226562 211.71875 74.636719 212.382812 C 73.425781 212.898438 72.597656 213.167969 72.527344 213.191406 C 72.175781 213.304688 71.792969 213.132812 71.640625 212.792969 C 71.488281 212.453125 71.617188 212.054688 71.9375 211.867188 C 71.960938 211.851562 72.671875 211.449219 73.890625 211.105469 C 77.378906 209.628906 84.660156 205.824219 84.128906 199.992188 C 83.433594 192.335938 70.054688 189.855469 69.917969 189.832031 C 69.53125 189.761719 69.269531 189.394531 69.328125 189.003906 C 69.386719 188.613281 69.742188 188.339844 70.136719 188.386719 C 70.273438 188.40625 84.039062 190.03125 91.265625 185.824219 C 98.328125 181.714844 97.6875 168.507812 97.679688 168.375 C 97.660156 167.976562 97.957031 167.636719 98.351562 167.605469 C 98.75 167.574219 99.09375 167.867188 99.132812 168.261719 C 99.144531 168.382812 100.4375 180.375 107.285156 184.054688 C 114.175781 187.757812 127.367188 182.457031 127.5 182.402344 C 127.789062 182.285156 128.125 182.367188 128.328125 182.605469 C 128.53125 182.847656 128.558594 183.1875 128.398438 183.457031 C 128.328125 183.570312 121.625 194.777344 125.414062 202.363281 C 129.257812 210.066406 138.730469 213.789062 138.828125 213.824219 C 139.144531 213.945312 139.335938 214.273438 139.289062 214.609375 C 139.238281 214.945312 138.964844 215.207031 138.628906 215.234375 C 138.519531 215.242188 127.855469 216.203125 124.882812 221.6875 C 123.65625 223.949219 123.914062 226.746094 125.65625 230 C 125.789062 230.253906 125.765625 230.5625 125.589844 230.792969 C 125.414062 231.019531 125.125 231.125 124.84375 231.054688 C 124.75 231.035156 115.640625 228.90625 111.480469 233.03125 C 109.398438 235.09375 108.871094 238.449219 109.910156 243.007812 C 109.984375 243.335938 109.828125 243.671875 109.527344 243.820312 L 105.511719 245.832031 C 105.40625 245.886719 105.296875 245.910156 105.183594 245.910156 Z M 95.148438 231.207031 C 97.164062 231.207031 98.9375 231.710938 100.457031 232.714844 C 104.738281 235.546875 105.660156 241.503906 105.859375 244.027344 L 108.367188 242.769531 C 107.382812 237.96875 108.082031 234.34375 110.457031 231.992188 C 114.148438 228.335938 120.78125 228.886719 123.722656 229.355469 C 122.34375 226.1875 122.304688 223.378906 123.601562 220.988281 C 126.011719 216.546875 132.421875 214.785156 136.007812 214.132812 C 132.789062 212.480469 127.027344 208.863281 124.109375 203.015625 C 120.863281 196.511719 124.382812 188.039062 126.207031 184.429688 C 124.785156 184.914062 122.660156 185.566406 120.234375 186.070312 C 114.359375 187.292969 109.769531 187.046875 106.597656 185.34375 C 102.316406 183.042969 100.039062 178.054688 98.859375 174.082031 C 98.277344 178.550781 96.609375 184.402344 91.996094 187.085938 C 87.535156 189.683594 80.988281 190.214844 76.183594 190.1875 C 76.605469 190.359375 77.039062 190.542969 77.472656 190.746094 C 82.445312 193.039062 85.246094 196.191406 85.582031 199.859375 C 85.914062 203.539062 83.730469 207.023438 79.261719 209.933594 C 78.875 210.183594 78.492188 210.417969 78.113281 210.640625 C 81.023438 210.789062 84.710938 211.917969 88.609375 215.476562 C 95.199219 221.496094 92.171875 228.679688 90.078125 232.097656 C 91.90625 231.503906 93.597656 231.207031 95.148438 231.207031 Z M 95.148438 231.207031 " fill-opacity="1" fill-rule="nonzero"/><path fill="#000000" d="M 216.191406 286.847656 C 215.753906 286.847656 215.3125 286.789062 214.871094 286.667969 C 212.984375 286.140625 210.917969 285.675781 208.730469 285.28125 C 206.066406 284.800781 204.253906 282.320312 204.613281 279.636719 L 204.628906 279.53125 C 204.8125 278.148438 205.53125 276.933594 206.660156 276.109375 C 207.785156 275.289062 209.15625 274.972656 210.527344 275.21875 C 213.03125 275.671875 215.417969 276.210938 217.617188 276.820312 C 218.957031 277.191406 220.089844 278.121094 220.726562 279.363281 C 221.371094 280.617188 221.460938 282.097656 220.976562 283.421875 L 220.941406 283.527344 C 220.199219 285.550781 218.257812 286.847656 216.191406 286.847656 Z M 215.261719 285.257812 C 217.042969 285.753906 218.933594 284.769531 219.570312 283.023438 L 219.609375 282.917969 C 219.953125 281.976562 219.890625 280.921875 219.429688 280.027344 C 218.972656 279.136719 218.1875 278.496094 217.226562 278.226562 C 215.070312 277.628906 212.730469 277.101562 210.265625 276.65625 C 209.292969 276.480469 208.316406 276.707031 207.515625 277.289062 C 206.714844 277.875 206.203125 278.738281 206.074219 279.722656 L 206.058594 279.828125 C 205.804688 281.738281 207.089844 283.503906 208.988281 283.84375 C 211.21875 284.246094 213.332031 284.722656 215.261719 285.257812 Z M 215.261719 285.257812 " fill-opacity="1" fill-rule="nonzero"/><path fill="#000000" d="M 201.0625 284.207031 C 200.902344 284.207031 200.742188 284.199219 200.578125 284.183594 C 198.671875 284.003906 196.667969 283.863281 194.625 283.761719 C 191.867188 283.628906 189.75 281.367188 189.804688 278.609375 L 189.808594 278.5 C 189.835938 277.125 190.40625 275.847656 191.410156 274.90625 C 192.414062 273.96875 193.722656 273.484375 195.085938 273.550781 C 197.304688 273.660156 199.480469 273.8125 201.554688 274.007812 C 202.929688 274.140625 204.160156 274.808594 205.019531 275.890625 C 205.882812 276.976562 206.257812 278.335938 206.074219 279.710938 L 206.058594 279.820312 C 205.722656 282.359375 203.574219 284.207031 201.0625 284.207031 Z M 200.714844 282.730469 C 202.632812 282.914062 204.359375 281.550781 204.613281 279.628906 L 204.628906 279.519531 C 204.757812 278.539062 204.492188 277.574219 203.878906 276.800781 C 203.269531 276.03125 202.394531 275.554688 201.417969 275.460938 C 199.367188 275.269531 197.210938 275.117188 195.015625 275.011719 C 194.042969 274.960938 193.117188 275.304688 192.40625 275.972656 C 191.691406 276.640625 191.285156 277.550781 191.265625 278.53125 L 191.261719 278.640625 C 191.222656 280.601562 192.730469 282.210938 194.691406 282.304688 C 196.761719 282.402344 198.785156 282.546875 200.714844 282.730469 Z M 200.714844 282.730469 " fill-opacity="1" fill-rule="nonzero"/><path fill="#000000" d="M 180.382812 283.699219 C 177.722656 283.699219 175.476562 281.585938 175.335938 278.910156 C 175.335938 278.910156 175.328125 278.800781 175.328125 278.800781 C 175.257812 277.433594 175.726562 276.125 176.652344 275.113281 C 177.578125 274.105469 178.835938 273.523438 180.203125 273.480469 C 182.238281 273.410156 184.257812 273.375 186.210938 273.367188 C 187.566406 273.367188 188.855469 273.894531 189.816406 274.871094 C 190.777344 275.851562 191.292969 277.148438 191.265625 278.527344 L 191.261719 278.636719 C 191.207031 281.402344 188.996094 283.574219 186.230469 283.585938 C 184.390625 283.59375 182.480469 283.632812 180.546875 283.695312 C 180.492188 283.699219 180.4375 283.699219 180.382812 283.699219 Z M 176.792969 278.832031 C 176.894531 280.773438 178.550781 282.304688 180.5 282.234375 C 182.445312 282.171875 184.371094 282.136719 186.222656 282.125 C 188.191406 282.117188 189.765625 280.570312 189.804688 278.605469 L 189.808594 278.496094 C 189.828125 277.515625 189.460938 276.59375 188.777344 275.894531 C 188.097656 275.203125 187.195312 274.824219 186.230469 274.824219 L 186.21875 274.824219 C 184.28125 274.832031 182.273438 274.871094 180.25 274.9375 C 179.28125 274.972656 178.386719 275.382812 177.726562 276.101562 C 177.070312 276.820312 176.734375 277.75 176.785156 278.722656 Z M 176.792969 278.832031 " fill-opacity="1" fill-rule="nonzero"/><path fill="#000000" d="M 164.511719 284.710938 C 163.238281 284.710938 162.03125 284.234375 161.089844 283.351562 C 160.066406 282.394531 159.5 281.097656 159.488281 279.695312 L 159.484375 279.585938 C 159.460938 276.890625 161.554688 274.65625 164.25 274.496094 C 165.046875 274.445312 165.859375 274.386719 166.660156 274.316406 C 168.246094 274.175781 169.839844 274.050781 171.402344 273.941406 C 172.757812 273.847656 174.066406 274.289062 175.085938 275.195312 C 176.109375 276.101562 176.714844 277.351562 176.785156 278.71875 L 176.792969 278.828125 C 176.933594 281.566406 174.828125 283.945312 172.09375 284.140625 C 170.601562 284.246094 169.074219 284.367188 167.554688 284.5 C 166.636719 284.578125 165.714844 284.648438 164.816406 284.699219 C 164.714844 284.707031 164.613281 284.710938 164.511719 284.710938 Z M 171.761719 275.386719 C 171.675781 275.386719 171.589844 275.390625 171.503906 275.398438 C 169.949219 275.507812 168.363281 275.632812 166.789062 275.769531 C 165.972656 275.84375 165.148438 275.902344 164.335938 275.953125 C 162.417969 276.066406 160.925781 277.65625 160.945312 279.570312 L 160.945312 279.683594 C 160.953125 280.679688 161.359375 281.601562 162.085938 282.285156 C 162.808594 282.960938 163.746094 283.300781 164.730469 283.242188 C 165.617188 283.191406 166.523438 283.125 167.425781 283.042969 C 168.953125 282.910156 170.492188 282.789062 171.992188 282.683594 C 173.9375 282.546875 175.4375 280.851562 175.335938 278.90625 L 175.332031 278.796875 C 175.277344 277.824219 174.851562 276.933594 174.121094 276.289062 C 173.460938 275.703125 172.632812 275.386719 171.761719 275.386719 Z M 171.761719 275.386719 " fill-opacity="1" fill-rule="nonzero"/><path fill="#000000" d="M 154.605469 284.75 C 154.464844 284.75 154.324219 284.746094 154.183594 284.734375 C 151.707031 284.578125 149.34375 284.277344 146.285156 283.734375 C 144.910156 283.488281 143.6875 282.675781 142.933594 281.5 C 142.171875 280.324219 141.933594 278.867188 142.277344 277.511719 L 142.304688 277.40625 C 142.949219 274.847656 145.484375 273.207031 148.066406 273.667969 C 150.648438 274.128906 153.363281 274.425781 156.144531 274.558594 C 158.8125 274.683594 160.921875 276.882812 160.945312 279.5625 C 160.945312 279.621094 160.9375 279.679688 160.921875 279.738281 C 160.21875 282.699219 157.597656 284.746094 154.601562 284.746094 Z M 154.277344 283.277344 C 156.699219 283.4375 158.878906 281.84375 159.484375 279.488281 C 159.421875 277.625 157.941406 276.105469 156.074219 276.019531 C 153.234375 275.882812 150.453125 275.578125 147.8125 275.105469 C 145.976562 274.78125 144.175781 275.945312 143.71875 277.765625 L 143.691406 277.867188 C 143.441406 278.851562 143.609375 279.859375 144.15625 280.707031 C 144.703125 281.554688 145.546875 282.121094 146.539062 282.296875 C 149.539062 282.832031 151.855469 283.125 154.277344 283.277344 Z M 154.277344 283.277344 " fill-opacity="1" fill-rule="nonzero"/><path fill="#000000" d="M 138.785156 281.671875 C 138.234375 281.671875 137.683594 281.582031 137.148438 281.402344 C 133.671875 280.222656 130.339844 278.730469 127.238281 276.960938 C 126.003906 276.253906 125.117188 275.054688 124.804688 273.671875 C 124.492188 272.292969 124.773438 270.832031 125.578125 269.671875 L 125.644531 269.582031 C 127.144531 267.417969 130.011719 266.777344 132.3125 268.089844 C 134.839844 269.53125 137.570312 270.753906 140.425781 271.722656 C 142.917969 272.566406 144.363281 275.214844 143.71875 277.757812 L 143.691406 277.863281 C 143.34375 279.242188 142.464844 280.375 141.21875 281.054688 C 140.46875 281.464844 139.628906 281.671875 138.785156 281.671875 Z M 129.777344 268.875 C 128.636719 268.875 127.535156 269.414062 126.839844 270.414062 L 126.777344 270.507812 C 126.195312 271.34375 126 272.351562 126.226562 273.347656 C 126.449219 274.335938 127.082031 275.1875 127.960938 275.691406 C 130.980469 277.414062 134.226562 278.871094 137.617188 280.019531 C 138.578125 280.34375 139.636719 280.253906 140.523438 279.773438 C 141.40625 279.289062 142.03125 278.484375 142.277344 277.507812 L 142.304688 277.398438 C 142.761719 275.589844 141.734375 273.707031 139.960938 273.105469 C 137.015625 272.109375 134.199219 270.847656 131.589844 269.359375 C 131.015625 269.03125 130.390625 268.875 129.777344 268.875 Z M 129.777344 268.875 " fill-opacity="1" fill-rule="nonzero"/><path fill="#000000" d="M 122.625 272.6875 C 121.460938 272.6875 120.328125 272.28125 119.429688 271.53125 C 116.921875 269.4375 114.582031 267.085938 112.472656 264.542969 C 111.582031 263.472656 111.179688 262.0625 111.367188 260.675781 C 111.554688 259.269531 112.328125 258 113.488281 257.191406 L 113.578125 257.128906 C 115.742188 255.617188 118.660156 256.019531 120.367188 258.070312 C 122.054688 260.09375 123.917969 261.964844 125.914062 263.636719 C 127.941406 265.339844 128.34375 268.246094 126.851562 270.398438 L 126.777344 270.507812 C 125.96875 271.671875 124.695312 272.449219 123.292969 272.640625 C 123.070312 272.671875 122.84375 272.6875 122.625 272.6875 Z M 116.453125 257.679688 C 115.746094 257.679688 115.035156 257.890625 114.410156 258.324219 L 114.324219 258.386719 C 113.496094 258.964844 112.945312 259.871094 112.8125 260.871094 C 112.675781 261.867188 112.953125 262.839844 113.59375 263.609375 C 115.644531 266.082031 117.925781 268.371094 120.363281 270.410156 C 121.128906 271.050781 122.101562 271.328125 123.097656 271.195312 C 124.097656 271.058594 125.003906 270.503906 125.578125 269.671875 L 125.65625 269.5625 C 126.714844 268.035156 126.421875 265.96875 124.976562 264.757812 C 122.917969 263.03125 120.992188 261.09375 119.25 259.003906 C 118.523438 258.132812 117.496094 257.679688 116.457031 257.679688 Z M 116.453125 257.679688 " fill-opacity="1" fill-rule="nonzero"/><path fill="#000000" d="M 111.429688 259.296875 C 111.066406 259.296875 110.699219 259.257812 110.339844 259.179688 C 108.964844 258.875 107.769531 257.996094 107.0625 256.777344 C 105.828125 254.640625 104.742188 252.4375 103.828125 250.230469 C 103.269531 248.878906 103.328125 247.355469 103.984375 246.046875 C 104.648438 244.730469 105.84375 243.769531 107.269531 243.414062 L 107.378906 243.386719 C 109.785156 242.777344 112.320312 244.054688 113.269531 246.351562 C 114.003906 248.125 114.882812 249.898438 115.875 251.621094 C 117.207031 253.929688 116.578125 256.8125 114.410156 258.328125 L 114.320312 258.390625 C 113.46875 258.984375 112.457031 259.296875 111.429688 259.296875 Z M 108.324219 256.046875 C 108.835938 256.925781 109.660156 257.53125 110.65625 257.753906 C 111.648438 257.972656 112.65625 257.773438 113.488281 257.191406 L 113.578125 257.128906 C 115.117188 256.050781 115.5625 253.996094 114.613281 252.351562 C 113.585938 250.574219 112.683594 248.742188 111.921875 246.910156 C 111.25 245.277344 109.445312 244.371094 107.734375 244.800781 L 107.625 244.828125 C 106.609375 245.085938 105.757812 245.769531 105.289062 246.703125 C 104.820312 247.632812 104.78125 248.714844 105.175781 249.671875 C 106.0625 251.820312 107.121094 253.964844 108.324219 256.046875 Z M 108.324219 256.046875 " fill-opacity="1" fill-rule="nonzero"/><path fill="#000000" d="M 98.410156 169.0625 C 98.402344 169.0625 98.394531 169.0625 98.386719 169.0625 C 97.984375 169.050781 97.667969 168.714844 97.679688 168.3125 C 97.734375 166.578125 98.511719 165.183594 99.261719 163.832031 C 99.753906 162.945312 100.21875 162.109375 100.503906 161.175781 C 101.195312 158.890625 100.550781 156.503906 99.863281 153.980469 C 99.269531 151.796875 98.65625 149.535156 98.921875 147.238281 C 98.96875 146.835938 99.332031 146.550781 99.730469 146.597656 C 100.128906 146.640625 100.414062 147.003906 100.371094 147.40625 C 100.136719 149.421875 100.6875 151.453125 101.269531 153.597656 C 101.980469 156.210938 102.714844 158.914062 101.898438 161.601562 C 101.566406 162.683594 101.042969 163.628906 100.535156 164.542969 C 99.839844 165.796875 99.179688 166.980469 99.136719 168.359375 C 99.125 168.753906 98.800781 169.066406 98.410156 169.066406 Z M 98.410156 169.0625 " fill-opacity="1" fill-rule="nonzero"/><path fill="#000000" d="M 100.234375 170.957031 C 99.792969 170.957031 99.347656 170.910156 98.898438 170.796875 C 98.507812 170.703125 98.265625 170.308594 98.363281 169.917969 C 98.457031 169.523438 98.851562 169.285156 99.242188 169.378906 C 101.128906 169.835938 103.070312 168.855469 104.371094 167.953125 C 105.046875 167.480469 105.707031 166.9375 106.34375 166.410156 C 107.261719 165.652344 108.214844 164.871094 109.277344 164.242188 C 111.898438 162.691406 115.105469 162.179688 118.078125 162.839844 C 118.472656 162.929688 118.71875 163.316406 118.632812 163.710938 C 118.546875 164.105469 118.15625 164.351562 117.761719 164.265625 C 115.148438 163.6875 112.328125 164.136719 110.019531 165.5 C 109.050781 166.070312 108.1875 166.785156 107.269531 167.539062 C 106.609375 168.082031 105.925781 168.644531 105.203125 169.152344 C 103.945312 170.027344 102.15625 170.957031 100.234375 170.957031 Z M 100.234375 170.957031 " fill-opacity="1" fill-rule="nonzero"/><path fill="#000000" d="M 98.417969 170.957031 C 98.28125 170.957031 98.140625 170.917969 98.019531 170.835938 C 97.03125 170.1875 95.867188 169.402344 94.636719 168.570312 C 92.996094 167.460938 91.296875 166.3125 89.957031 165.457031 C 88.230469 164.355469 86.191406 163.902344 84.03125 163.429688 C 81.601562 162.894531 79.09375 162.339844 77.046875 160.773438 C 76.726562 160.527344 76.667969 160.070312 76.910156 159.75 C 77.15625 159.429688 77.613281 159.371094 77.933594 159.613281 C 79.722656 160.984375 81.964844 161.476562 84.34375 162 C 86.53125 162.484375 88.796875 162.984375 90.738281 164.226562 C 92.097656 165.09375 93.804688 166.246094 95.453125 167.359375 C 96.679688 168.1875 97.835938 168.972656 98.816406 169.613281 C 99.152344 169.835938 99.25 170.289062 99.027344 170.625 C 98.886719 170.839844 98.65625 170.957031 98.417969 170.957031 Z M 98.417969 170.957031 " fill-opacity="1" fill-rule="nonzero"/><path fill="#000000" d="M 110.605469 165.085938 C 110.238281 165.085938 109.921875 164.808594 109.882812 164.433594 L 109.113281 157.242188 C 109.070312 156.839844 109.359375 156.480469 109.761719 156.4375 C 110.15625 156.394531 110.519531 156.683594 110.5625 157.085938 L 111.332031 164.277344 C 111.375 164.679688 111.085938 165.039062 110.683594 165.082031 C 110.65625 165.085938 110.632812 165.085938 110.605469 165.085938 Z M 110.605469 165.085938 " fill-opacity="1" fill-rule="nonzero"/><path fill="#000000" d="M 101.140625 157.714844 C 100.960938 157.714844 100.777344 157.648438 100.632812 157.511719 C 100.257812 157.144531 99.648438 157.070312 98.941406 156.980469 C 98.457031 156.917969 97.957031 156.855469 97.46875 156.691406 C 96.296875 156.292969 95.289062 155.277344 94.773438 153.976562 C 94.371094 152.957031 94.242188 151.777344 94.371094 150.371094 C 94.410156 149.972656 94.761719 149.675781 95.164062 149.714844 C 95.566406 149.75 95.859375 150.109375 95.824219 150.507812 C 95.714844 151.679688 95.816406 152.636719 96.132812 153.4375 C 96.488281 154.347656 97.164062 155.042969 97.9375 155.308594 C 98.285156 155.425781 98.695312 155.476562 99.125 155.53125 C 99.96875 155.636719 100.925781 155.757812 101.652344 156.464844 C 101.9375 156.746094 101.945312 157.207031 101.664062 157.496094 C 101.523438 157.644531 101.332031 157.714844 101.140625 157.714844 Z M 101.140625 157.714844 " fill-opacity="1" fill-rule="nonzero"/><path fill="#000000" d="M 100.308594 152.90625 C 100.042969 152.90625 99.785156 152.757812 99.65625 152.503906 C 99.476562 152.140625 99.625 151.703125 99.984375 151.523438 C 101.34375 150.84375 102.472656 149.722656 103.160156 148.363281 C 103.847656 147.003906 104.082031 145.429688 103.820312 143.929688 C 103.753906 143.53125 104.015625 143.152344 104.414062 143.085938 C 104.8125 143.015625 105.1875 143.28125 105.257812 143.679688 C 105.570312 145.488281 105.289062 147.386719 104.460938 149.023438 C 103.632812 150.660156 102.273438 152.015625 100.632812 152.832031 C 100.527344 152.882812 100.417969 152.910156 100.308594 152.910156 Z M 100.308594 152.90625 " fill-opacity="1" fill-rule="nonzero"/><path fill="#000000" d="M 90.222656 165.179688 C 90.144531 165.179688 90.070312 165.167969 89.996094 165.140625 L 89.5625 165 C 89.179688 164.875 88.972656 164.460938 89.101562 164.078125 C 89.179688 163.835938 89.371094 163.664062 89.597656 163.601562 C 89.921875 160.34375 88.867188 156.996094 86.707031 154.527344 C 86.441406 154.222656 86.472656 153.761719 86.777344 153.496094 C 87.078125 153.230469 87.539062 153.261719 87.804688 153.566406 C 90.410156 156.546875 91.582031 160.660156 90.941406 164.566406 C 90.90625 164.777344 90.78125 164.964844 90.601562 165.074219 C 90.484375 165.144531 90.351562 165.179688 90.222656 165.179688 Z M 90.222656 165.179688 " fill-opacity="1" fill-rule="nonzero"/><path fill="#000000" d="M 128.074219 183.925781 C 127.734375 183.925781 127.429688 183.6875 127.359375 183.339844 C 127.28125 182.945312 127.535156 182.558594 127.929688 182.480469 C 131.4375 181.777344 134.632812 178.699219 136.074219 174.632812 C 137.511719 170.5625 137.253906 166.011719 136.867188 162.5 C 136.824219 162.097656 137.113281 161.738281 137.511719 161.695312 C 137.910156 161.648438 138.273438 161.9375 138.316406 162.339844 C 138.722656 166.007812 138.988281 170.773438 137.445312 175.121094 C 135.816406 179.730469 132.277344 183.097656 128.21875 183.914062 C 128.167969 183.921875 128.121094 183.925781 128.074219 183.925781 Z M 128.074219 183.925781 " fill-opacity="1" fill-rule="nonzero"/><path fill="#000000" d="M 128.074219 183.925781 C 128.058594 183.925781 128.042969 183.925781 128.027344 183.925781 C 127.691406 183.90625 127.425781 183.65625 127.359375 183.339844 C 127.1875 183.203125 126.644531 182.929688 125.472656 182.625 C 124.832031 182.457031 124.230469 182.171875 123.6875 181.769531 C 123.242188 181.441406 122.773438 181.074219 122.402344 180.574219 C 121.359375 179.171875 121.574219 177.410156 121.792969 176.488281 C 121.988281 175.667969 122.300781 174.90625 122.605469 174.167969 C 122.773438 173.769531 122.929688 173.390625 123.066406 173.003906 C 123.519531 171.742188 123.613281 170.734375 123.355469 169.914062 C 123.234375 169.53125 123.449219 169.121094 123.832031 169 C 124.214844 168.875 124.625 169.089844 124.746094 169.476562 C 125.105469 170.609375 125.003906 171.925781 124.441406 173.496094 C 124.289062 173.917969 124.117188 174.328125 123.953125 174.726562 C 123.65625 175.445312 123.378906 176.121094 123.210938 176.824219 C 122.9375 177.976562 123.066406 179.027344 123.570312 179.703125 C 123.824219 180.042969 124.179688 180.320312 124.554688 180.59375 C 124.945312 180.882812 125.378906 181.089844 125.839844 181.210938 C 127.972656 181.765625 128.855469 182.371094 128.800781 183.242188 C 128.777344 183.628906 128.457031 183.925781 128.074219 183.925781 Z M 127.40625 183.382812 L 127.410156 183.382812 Z M 127.40625 183.382812 " fill-opacity="1" fill-rule="nonzero"/><path fill="#000000" d="M 144.414062 192.085938 C 144.105469 192.085938 143.816406 191.886719 143.71875 191.574219 C 143.234375 190.042969 141.570312 189.203125 140.175781 188.929688 C 139.007812 188.699219 137.8125 188.726562 136.542969 188.757812 C 136.007812 188.769531 135.453125 188.785156 134.910156 188.777344 L 134.792969 188.773438 C 132.074219 188.71875 129.601562 187.125 128.335938 184.617188 C 128.058594 184.070312 127.867188 183.871094 127.792969 183.808594 C 127.449219 183.824219 127.125 183.574219 127.058594 183.214844 C 126.984375 182.820312 127.242188 182.4375 127.636719 182.363281 C 128.726562 182.152344 129.414062 183.511719 129.636719 183.960938 C 130.660156 185.984375 132.644531 187.269531 134.816406 187.316406 L 134.929688 187.316406 C 135.449219 187.324219 135.984375 187.3125 136.503906 187.296875 C 137.796875 187.265625 139.132812 187.234375 140.460938 187.496094 C 142.261719 187.851562 144.429688 188.996094 145.109375 191.132812 C 145.230469 191.519531 145.019531 191.929688 144.632812 192.050781 C 144.5625 192.074219 144.488281 192.085938 144.414062 192.085938 Z M 144.414062 192.085938 " fill-opacity="1" fill-rule="nonzero"/><path fill="#000000" d="M 138.785156 181.933594 C 136.96875 181.933594 135.148438 181.597656 133.472656 180.929688 C 133.097656 180.777344 132.917969 180.355469 133.066406 179.980469 C 133.214844 179.605469 133.636719 179.421875 134.011719 179.570312 C 136.796875 180.683594 140.019531 180.773438 142.863281 179.820312 C 143.242188 179.691406 143.65625 179.898438 143.785156 180.28125 C 143.910156 180.660156 143.707031 181.074219 143.324219 181.203125 C 141.871094 181.691406 140.328125 181.933594 138.785156 181.933594 Z M 138.785156 181.933594 " fill-opacity="1" fill-rule="nonzero"/><path fill="#000000" d="M 137.03125 175.339844 C 136.648438 175.339844 136.328125 175.042969 136.304688 174.65625 C 136.28125 174.253906 136.585938 173.90625 136.988281 173.882812 C 138.628906 173.78125 140.53125 173.574219 142.214844 172.820312 C 143.914062 172.054688 145.164062 170.785156 145.640625 169.339844 C 145.765625 168.957031 146.175781 168.746094 146.558594 168.875 C 146.941406 169 147.148438 169.414062 147.023438 169.796875 C 146.421875 171.632812 144.886719 173.21875 142.8125 174.152344 C 140.914062 175.003906 138.847656 175.230469 137.078125 175.339844 C 137.0625 175.339844 137.046875 175.339844 137.03125 175.339844 Z M 137.03125 175.339844 " fill-opacity="1" fill-rule="nonzero"/><g clip-path="url(#03a3a1326c)"><path fill="#000000" d="M 68.9375 189.976562 C 68.914062 189.976562 68.894531 189.976562 68.871094 189.972656 L 57.722656 188.917969 C 55.488281 188.707031 52.707031 188.445312 50.644531 186.746094 C 49.335938 185.671875 48.511719 184.175781 47.707031 182.730469 C 46.757812 181.007812 45.855469 179.382812 44.265625 178.675781 C 43.898438 178.511719 43.730469 178.078125 43.894531 177.710938 C 44.058594 177.34375 44.492188 177.175781 44.859375 177.339844 C 46.894531 178.246094 47.957031 180.167969 48.984375 182.023438 C 49.75 183.410156 50.476562 184.71875 51.570312 185.621094 C 53.289062 187.03125 55.820312 187.273438 57.859375 187.464844 L 68.410156 188.464844 C 68.679688 187.234375 68.453125 185.722656 67.640625 185.171875 C 67.199219 184.878906 66.730469 184.621094 66.230469 184.351562 C 65.300781 183.851562 64.339844 183.332031 63.566406 182.511719 C 61.972656 180.824219 61.71875 178.535156 61.472656 176.320312 C 61.398438 175.625 61.324219 174.96875 61.210938 174.332031 C 60.683594 171.308594 59.128906 168.523438 56.835938 166.492188 C 56.53125 166.222656 56.503906 165.761719 56.773438 165.460938 C 57.039062 165.160156 57.5 165.128906 57.800781 165.398438 C 60.339844 167.648438 62.0625 170.734375 62.648438 174.078125 C 62.769531 174.761719 62.847656 175.472656 62.921875 176.15625 C 63.152344 178.222656 63.371094 180.175781 64.625 181.507812 C 65.238281 182.15625 66.054688 182.597656 66.921875 183.066406 C 67.429688 183.339844 67.957031 183.625 68.453125 183.960938 C 70.050781 185.042969 70.304688 187.679688 69.621094 189.503906 C 69.511719 189.789062 69.238281 189.976562 68.9375 189.976562 Z M 68.9375 189.976562 " fill-opacity="1" fill-rule="nonzero"/></g><path fill="#000000" d="M 71.949219 189.902344 C 71.886719 189.902344 71.824219 189.894531 71.757812 189.878906 C 71.371094 189.773438 71.140625 189.371094 71.246094 188.984375 L 72.929688 182.707031 C 73.390625 180.988281 73.914062 179.039062 73.636719 177.222656 C 73.300781 175 71.808594 173.046875 70.496094 171.324219 C 70.25 171.003906 70.3125 170.542969 70.632812 170.300781 C 70.953125 170.054688 71.410156 170.117188 71.652344 170.4375 C 73.003906 172.207031 74.6875 174.410156 75.078125 177.003906 C 75.402344 179.121094 74.835938 181.230469 74.335938 183.085938 L 72.652344 189.363281 C 72.566406 189.6875 72.269531 189.902344 71.949219 189.902344 Z M 71.949219 189.902344 " fill-opacity="1" fill-rule="nonzero"/><path fill="#000000" d="M 47.503906 198.359375 C 47.425781 198.359375 47.34375 198.347656 47.261719 198.316406 C 46.882812 198.183594 46.683594 197.765625 46.820312 197.386719 C 47.125 196.523438 47.011719 195.542969 46.890625 194.503906 C 46.863281 194.253906 46.832031 194.007812 46.808594 193.761719 C 46.625 191.777344 47.050781 190.328125 48.074219 189.453125 C 49.085938 188.589844 50.402344 188.535156 51.566406 188.484375 C 51.984375 188.46875 52.382812 188.453125 52.757812 188.402344 C 53.675781 188.28125 54.558594 187.925781 55.304688 187.375 C 55.628906 187.136719 56.085938 187.207031 56.324219 187.53125 C 56.5625 187.855469 56.492188 188.3125 56.167969 188.550781 C 55.222656 189.246094 54.109375 189.695312 52.949219 189.851562 C 52.507812 189.910156 52.058594 189.925781 51.625 189.945312 C 50.609375 189.988281 49.648438 190.027344 49.019531 190.566406 C 48.378906 191.113281 48.125 192.140625 48.261719 193.625 C 48.285156 193.859375 48.3125 194.097656 48.339844 194.335938 C 48.472656 195.496094 48.609375 196.695312 48.191406 197.875 C 48.085938 198.171875 47.804688 198.359375 47.503906 198.359375 Z M 47.503906 198.359375 " fill-opacity="1" fill-rule="nonzero"/><path fill="#000000" d="M 61.261719 198.996094 C 61.023438 198.996094 60.789062 198.882812 60.652344 198.667969 C 59.9375 197.582031 60.089844 196.023438 61.019531 194.878906 C 61.847656 193.855469 63.039062 193.34375 63.988281 193.015625 C 64.273438 192.914062 64.558594 192.824219 64.847656 192.730469 C 65.554688 192.507812 66.226562 192.292969 66.832031 191.964844 C 67.703125 191.5 68.289062 190.828125 68.441406 190.132812 C 68.527344 189.738281 68.914062 189.484375 69.308594 189.570312 C 69.699219 189.65625 69.953125 190.046875 69.867188 190.441406 C 69.535156 191.96875 68.253906 192.859375 67.519531 193.253906 C 66.796875 193.644531 66.027344 193.886719 65.289062 194.125 C 65.011719 194.210938 64.738281 194.296875 64.46875 194.394531 C 63.332031 194.789062 62.617188 195.222656 62.152344 195.796875 C 61.710938 196.339844 61.464844 197.25 61.867188 197.867188 C 62.089844 198.203125 61.996094 198.65625 61.660156 198.878906 C 61.535156 198.957031 61.398438 198.996094 61.261719 198.996094 Z M 61.261719 198.996094 " fill-opacity="1" fill-rule="nonzero"/><path fill="#000000" d="M 62.136719 179.175781 C 62.003906 179.175781 61.871094 179.140625 61.75 179.066406 C 61.324219 178.800781 60.667969 178.824219 60.089844 178.847656 C 58.589844 178.90625 57.128906 178.914062 55.757812 178.382812 C 54.363281 177.84375 52.914062 176.507812 52.835938 174.742188 C 52.816406 174.339844 53.125 174 53.527344 173.980469 C 53.925781 173.957031 54.273438 174.273438 54.289062 174.675781 C 54.339844 175.785156 55.328125 176.652344 56.28125 177.019531 C 57.394531 177.453125 58.640625 177.441406 60.035156 177.386719 C 60.78125 177.359375 61.714844 177.324219 62.523438 177.828125 C 62.863281 178.039062 62.96875 178.488281 62.753906 178.832031 C 62.617188 179.054688 62.378906 179.175781 62.136719 179.175781 Z M 62.136719 179.175781 " fill-opacity="1" fill-rule="nonzero"/><path fill="#000000" d="M 46.636719 225.699219 C 46.484375 225.699219 46.332031 225.691406 46.175781 225.675781 C 45.773438 225.640625 45.480469 225.289062 45.511719 224.886719 C 45.546875 224.484375 45.898438 224.191406 46.300781 224.222656 C 47.5 224.328125 48.683594 223.84375 49.9375 223.332031 C 51.226562 222.808594 52.558594 222.265625 54.015625 222.316406 C 54.652344 222.339844 55.253906 222.472656 55.835938 222.605469 C 56.507812 222.753906 57.144531 222.898438 57.753906 222.847656 C 58.746094 222.765625 59.785156 222.15625 60.84375 221.027344 C 61.164062 220.691406 61.460938 220.339844 61.78125 219.964844 C 62.386719 219.25 63.011719 218.511719 63.777344 217.890625 C 64.730469 217.121094 65.8125 216.597656 66.863281 216.09375 C 67.226562 215.917969 67.585938 215.742188 67.941406 215.558594 C 69.292969 214.855469 71.089844 213.367188 71.648438 212.183594 C 71.816406 211.820312 72.253906 211.664062 72.617188 211.835938 C 72.980469 212.007812 73.136719 212.441406 72.964844 212.808594 C 72.246094 214.339844 70.1875 216.035156 68.613281 216.851562 C 68.246094 217.042969 67.871094 217.226562 67.496094 217.40625 C 66.476562 217.898438 65.515625 218.363281 64.695312 219.027344 C 64.035156 219.5625 63.480469 220.21875 62.890625 220.910156 C 62.574219 221.28125 62.25 221.664062 61.90625 222.03125 C 60.570312 223.449219 59.25 224.191406 57.875 224.304688 C 57.042969 224.371094 56.269531 224.195312 55.519531 224.03125 C 54.976562 223.910156 54.464844 223.792969 53.964844 223.777344 C 52.808594 223.734375 51.683594 224.195312 50.488281 224.683594 C 49.265625 225.183594 48.007812 225.699219 46.636719 225.699219 Z M 46.636719 225.699219 " fill-opacity="1" fill-rule="nonzero"/><path fill="#000000" d="M 73.355469 223.816406 C 72.988281 223.816406 72.671875 223.539062 72.632812 223.164062 C 72.5 221.941406 72.824219 220.773438 73.195312 219.585938 L 73.230469 219.46875 C 73.546875 218.464844 73.84375 217.515625 73.808594 216.566406 C 73.769531 215.5625 72.652344 213.460938 72 213.15625 C 71.636719 212.988281 71.476562 212.554688 71.644531 212.1875 C 71.8125 211.824219 72.246094 211.664062 72.613281 211.832031 C 73.953125 212.453125 75.210938 215.183594 75.265625 216.507812 C 75.3125 217.710938 74.960938 218.828125 74.621094 219.90625 L 74.585938 220.023438 C 74.25 221.097656 73.980469 222.0625 74.082031 223.007812 C 74.125 223.410156 73.835938 223.769531 73.4375 223.8125 C 73.410156 223.816406 73.382812 223.816406 73.355469 223.816406 Z M 73.355469 223.816406 " fill-opacity="1" fill-rule="nonzero"/><path fill="#000000" d="M 72.304688 213.226562 C 71.996094 213.226562 71.710938 213.027344 71.613281 212.71875 C 71.429688 212.144531 69.527344 211.585938 68.507812 211.289062 C 67.8125 211.082031 67.210938 210.90625 66.773438 210.699219 C 66.472656 210.558594 66.167969 210.425781 65.859375 210.289062 C 64.828125 209.839844 63.757812 209.375 62.867188 208.574219 C 62.144531 207.929688 61.628906 207.144531 61.132812 206.386719 C 60.8125 205.902344 60.511719 205.441406 60.167969 205.03125 C 59.90625 204.71875 59.949219 204.261719 60.257812 204 C 60.566406 203.742188 61.027344 203.785156 61.285156 204.09375 C 61.683594 204.570312 62.019531 205.085938 62.347656 205.582031 C 62.816406 206.292969 63.257812 206.964844 63.839844 207.484375 C 64.554688 208.128906 65.472656 208.527344 66.441406 208.953125 C 66.761719 209.089844 67.082031 209.230469 67.394531 209.378906 C 67.730469 209.539062 68.308594 209.707031 68.917969 209.886719 C 70.632812 210.390625 72.582031 210.960938 73 212.273438 C 73.121094 212.65625 72.910156 213.066406 72.527344 213.191406 C 72.453125 213.214844 72.378906 213.226562 72.304688 213.226562 Z M 72.304688 213.226562 " fill-opacity="1" fill-rule="nonzero"/><path fill="#000000" d="M 63.789062 219.121094 C 63.746094 219.121094 63.699219 219.117188 63.652344 219.109375 C 61.125 218.628906 58.507812 218.132812 56.160156 216.824219 C 54.9375 216.144531 53.851562 215.269531 52.800781 214.425781 C 52.132812 213.886719 51.445312 213.332031 50.738281 212.847656 C 49.304688 211.855469 47.15625 210.773438 45.082031 211.257812 C 44.691406 211.347656 44.300781 211.105469 44.207031 210.710938 C 44.117188 210.320312 44.359375 209.925781 44.75 209.835938 C 47.34375 209.230469 49.886719 210.484375 51.566406 211.644531 C 52.316406 212.160156 53.027344 212.734375 53.714844 213.285156 C 54.765625 214.128906 55.753906 214.925781 56.871094 215.546875 C 59.011719 216.742188 61.511719 217.21875 63.925781 217.675781 C 64.320312 217.75 64.582031 218.132812 64.507812 218.527344 C 64.441406 218.878906 64.132812 219.121094 63.789062 219.121094 Z M 63.789062 219.121094 " fill-opacity="1" fill-rule="nonzero"/><path fill="#000000" d="M 67.878906 236.207031 C 67.816406 236.207031 67.753906 236.199219 67.6875 236.179688 C 67.300781 236.074219 67.070312 235.675781 67.175781 235.285156 C 67.789062 233.019531 67.484375 230.539062 66.347656 228.488281 C 66.210938 228.234375 66.058594 227.988281 65.910156 227.746094 C 65.453125 227 64.980469 226.226562 64.785156 225.300781 C 64.515625 224.03125 64.832031 222.816406 65.140625 221.640625 C 65.179688 221.492188 65.21875 221.34375 65.257812 221.199219 C 65.507812 220.195312 65.730469 218.925781 65.195312 218.007812 C 64.992188 217.660156 65.109375 217.210938 65.457031 217.007812 C 65.804688 216.804688 66.25 216.921875 66.453125 217.269531 C 67.257812 218.644531 66.992188 220.28125 66.667969 221.554688 C 66.632812 221.707031 66.589844 221.859375 66.550781 222.011719 C 66.273438 223.070312 66.011719 224.066406 66.210938 225 C 66.351562 225.679688 66.742188 226.3125 67.148438 226.980469 C 67.3125 227.246094 67.472656 227.511719 67.621094 227.777344 C 68.941406 230.160156 69.292969 233.035156 68.582031 235.667969 C 68.496094 235.992188 68.199219 236.207031 67.878906 236.207031 Z M 67.878906 236.207031 " fill-opacity="1" fill-rule="nonzero"/><path fill="#000000" d="M 69.695312 247.113281 C 69.480469 247.113281 69.265625 247.019531 69.121094 246.832031 C 68.871094 246.515625 68.929688 246.058594 69.246094 245.808594 C 71.378906 244.144531 73.796875 242.257812 76.695312 241.5625 C 77.453125 241.382812 78.21875 241.289062 78.960938 241.195312 C 79.871094 241.085938 80.730469 240.980469 81.546875 240.726562 C 84.351562 239.859375 87.242188 236.320312 87.390625 233.574219 C 87.414062 233.171875 87.753906 232.867188 88.15625 232.886719 C 88.558594 232.90625 88.867188 233.25 88.847656 233.652344 C 88.664062 237.03125 85.390625 241.066406 81.976562 242.121094 C 81.035156 242.414062 80.070312 242.53125 79.140625 242.644531 C 78.40625 242.734375 77.710938 242.820312 77.035156 242.984375 C 74.441406 243.605469 72.160156 245.386719 70.144531 246.960938 C 70.011719 247.0625 69.851562 247.113281 69.695312 247.113281 Z M 69.695312 247.113281 " fill-opacity="1" fill-rule="nonzero"/><path fill="#000000" d="M 88.117188 234.34375 C 87.855469 234.34375 87.605469 234.203125 87.472656 233.957031 C 86.898438 232.867188 85.363281 231.199219 84.3125 230.761719 C 83.492188 230.414062 82.515625 230.582031 81.480469 230.753906 C 80.453125 230.925781 79.390625 231.105469 78.3125 230.835938 C 77.921875 230.734375 77.6875 230.339844 77.785156 229.949219 C 77.882812 229.554688 78.28125 229.320312 78.671875 229.417969 C 79.449219 229.613281 80.316406 229.46875 81.238281 229.3125 C 82.433594 229.113281 83.667969 228.90625 84.875 229.414062 C 86.277344 230 88.046875 231.917969 88.761719 233.273438 C 88.949219 233.628906 88.8125 234.070312 88.457031 234.261719 C 88.351562 234.316406 88.234375 234.34375 88.117188 234.34375 Z M 88.117188 234.34375 " fill-opacity="1" fill-rule="nonzero"/><path fill="#000000" d="M 87.515625 245.066406 C 87.496094 245.066406 87.476562 245.066406 87.460938 245.0625 C 87.058594 245.03125 86.757812 244.679688 86.789062 244.277344 C 86.859375 243.332031 86.9375 242.351562 86.785156 241.445312 C 86.625 240.511719 86.226562 239.746094 85.65625 239.292969 C 85.34375 239.042969 85.289062 238.582031 85.539062 238.265625 C 85.792969 237.953125 86.25 237.898438 86.566406 238.152344 C 87.417969 238.828125 88.003906 239.914062 88.222656 241.203125 C 88.402344 242.285156 88.320312 243.355469 88.242188 244.390625 C 88.210938 244.773438 87.894531 245.066406 87.515625 245.066406 Z M 87.515625 245.066406 " fill-opacity="1" fill-rule="nonzero"/><path fill="#000000" d="M 79.734375 254.644531 C 79.625 254.644531 79.515625 254.621094 79.410156 254.570312 C 79.050781 254.390625 78.902344 253.953125 79.082031 253.59375 C 80.808594 250.085938 81.242188 245.898438 80.261719 242.109375 C 80.164062 241.71875 80.394531 241.320312 80.785156 241.222656 C 81.179688 241.121094 81.574219 241.355469 81.675781 241.746094 C 82.738281 245.867188 82.269531 250.421875 80.386719 254.238281 C 80.261719 254.496094 80.003906 254.644531 79.734375 254.644531 Z M 79.734375 254.644531 " fill-opacity="1" fill-rule="nonzero"/><path fill="#000000" d="M 139.234375 253.371094 C 139.175781 253.371094 139.121094 253.367188 139.0625 253.351562 C 138.671875 253.257812 138.429688 252.863281 138.523438 252.472656 C 139.125 249.960938 138.59375 247.019531 137.023438 244.183594 C 135.578125 241.578125 133.480469 239.339844 131.453125 237.179688 C 129.386719 234.976562 127.25 232.699219 124.898438 230.757812 C 124.636719 230.546875 124.558594 230.179688 124.707031 229.875 C 124.851562 229.574219 125.1875 229.410156 125.515625 229.484375 C 126.28125 229.652344 127.261719 229.445312 128.210938 229.242188 C 129 229.078125 129.8125 228.90625 130.59375 228.917969 C 132.285156 228.949219 133.761719 228.585938 134.875 227.863281 C 135.289062 227.59375 135.671875 227.269531 136.078125 226.925781 C 136.542969 226.527344 137.023438 226.117188 137.578125 225.78125 C 138.632812 225.136719 140.3125 224.707031 141.578125 225.621094 C 141.90625 225.855469 141.980469 226.3125 141.742188 226.636719 C 141.507812 226.964844 141.054688 227.039062 140.726562 226.804688 C 140.082031 226.34375 139.0625 226.582031 138.335938 227.027344 C 137.878906 227.304688 137.460938 227.660156 137.019531 228.035156 C 136.597656 228.398438 136.160156 228.769531 135.667969 229.089844 C 134.308594 229.96875 132.546875 230.414062 130.566406 230.378906 C 129.953125 230.367188 129.253906 230.515625 128.511719 230.671875 C 128.109375 230.757812 127.703125 230.84375 127.292969 230.90625 C 129.140625 232.582031 130.851562 234.40625 132.515625 236.179688 C 134.605469 238.40625 136.765625 240.710938 138.296875 243.476562 C 140.046875 246.632812 140.628906 249.945312 139.941406 252.8125 C 139.859375 253.148438 139.5625 253.371094 139.234375 253.371094 Z M 139.234375 253.371094 " fill-opacity="1" fill-rule="nonzero"/><path fill="#000000" d="M 123.601562 248.367188 C 123.566406 248.367188 123.53125 248.367188 123.5 248.359375 C 123.101562 248.304688 122.824219 247.9375 122.878906 247.539062 C 123.230469 244.984375 123.070312 242.316406 122.410156 239.828125 C 122.332031 239.539062 122.25 239.25 122.164062 238.960938 C 121.839844 237.828125 121.5 236.660156 121.535156 235.414062 C 121.578125 233.816406 123.324219 229.984375 125.171875 229.492188 C 125.5625 229.386719 125.960938 229.617188 126.066406 230.007812 C 126.167969 230.398438 125.9375 230.796875 125.550781 230.902344 C 124.746094 231.117188 123.03125 233.964844 122.992188 235.453125 C 122.964844 236.472656 123.257812 237.484375 123.566406 238.554688 C 123.652344 238.855469 123.738281 239.152344 123.816406 239.453125 C 124.527344 242.128906 124.703125 244.996094 124.320312 247.738281 C 124.269531 248.105469 123.957031 248.367188 123.601562 248.367188 Z M 123.601562 248.367188 " fill-opacity="1" fill-rule="nonzero"/><path fill="#000000" d="M 148.320312 241.144531 C 148.070312 241.144531 147.828125 241.019531 147.691406 240.785156 C 146.164062 238.195312 143.621094 236.285156 140.707031 235.550781 C 137.792969 234.816406 134.648438 235.289062 132.078125 236.847656 C 131.734375 237.054688 131.285156 236.945312 131.078125 236.601562 C 130.871094 236.253906 130.980469 235.804688 131.324219 235.597656 C 134.222656 233.839844 137.773438 233.304688 141.0625 234.132812 C 144.351562 234.964844 147.226562 237.117188 148.945312 240.042969 C 149.152344 240.390625 149.035156 240.839844 148.6875 241.042969 C 148.574219 241.113281 148.445312 241.144531 148.320312 241.144531 Z M 148.320312 241.144531 " fill-opacity="1" fill-rule="nonzero"/><path fill="#000000" d="M 146.675781 250.269531 C 146.390625 250.269531 146.121094 250.105469 146.003906 249.828125 C 145.425781 248.46875 144.390625 247.335938 143.09375 246.636719 C 141.796875 245.9375 140.285156 245.699219 138.835938 245.964844 C 138.4375 246.035156 138.058594 245.773438 137.988281 245.375 C 137.914062 244.980469 138.175781 244.597656 138.574219 244.527344 C 140.347656 244.203125 142.195312 244.496094 143.785156 245.351562 C 145.371094 246.207031 146.636719 247.59375 147.34375 249.253906 C 147.503906 249.625 147.332031 250.054688 146.960938 250.210938 C 146.867188 250.25 146.769531 250.269531 146.675781 250.269531 Z M 146.675781 250.269531 " fill-opacity="1" fill-rule="nonzero"/><path fill="#000000" d="M 158.46875 233.117188 C 158.320312 233.117188 158.171875 233.074219 158.042969 232.980469 C 155.304688 231.015625 153.828125 227.964844 152.402344 225.019531 C 151.296875 222.726562 150.152344 220.359375 148.429688 218.585938 C 146.25 216.339844 142.125 214.929688 138.628906 215.234375 C 138.222656 215.269531 137.875 214.972656 137.839844 214.570312 C 137.804688 214.167969 138.101562 213.816406 138.503906 213.78125 C 142.40625 213.441406 147.015625 215.035156 149.476562 217.570312 C 151.359375 219.511719 152.558594 221.988281 153.714844 224.382812 C 155.125 227.292969 156.453125 230.046875 158.894531 231.796875 C 159.21875 232.03125 159.296875 232.484375 159.0625 232.8125 C 158.917969 233.011719 158.695312 233.117188 158.46875 233.117188 Z M 158.46875 233.117188 " fill-opacity="1" fill-rule="nonzero"/><path fill="#000000" d="M 147.539062 217.289062 C 147.171875 217.289062 146.855469 217.011719 146.816406 216.640625 C 146.773438 216.238281 147.0625 215.878906 147.460938 215.832031 C 149.859375 215.570312 153.164062 215.082031 154.582031 214.566406 C 156.28125 213.949219 157.621094 212.929688 158.355469 211.699219 C 159.066406 210.507812 159.285156 209.089844 159.515625 207.585938 C 159.570312 207.21875 159.628906 206.851562 159.691406 206.492188 C 160.15625 203.835938 161.109375 202.082031 162.605469 201.136719 C 162.945312 200.921875 163.394531 201.023438 163.609375 201.363281 C 163.828125 201.703125 163.726562 202.15625 163.382812 202.371094 C 162.253906 203.085938 161.515625 204.515625 161.125 206.742188 C 161.066406 207.09375 161.011719 207.453125 160.957031 207.808594 C 160.714844 209.382812 160.464844 211.011719 159.605469 212.449219 C 158.445312 214.394531 156.503906 215.421875 155.078125 215.9375 C 153.09375 216.660156 148.515625 217.1875 147.621094 217.285156 C 147.59375 217.289062 147.566406 217.289062 147.539062 217.289062 Z M 147.539062 217.289062 " fill-opacity="1" fill-rule="nonzero"/><path fill="#000000" d="M 156.394531 226.660156 C 155.503906 226.660156 154.617188 226.578125 153.75 226.410156 C 153.355469 226.332031 153.097656 225.949219 153.175781 225.554688 C 153.25 225.15625 153.632812 224.898438 154.027344 224.976562 C 155.683594 225.296875 157.433594 225.273438 159.082031 224.910156 C 159.417969 224.835938 159.757812 224.746094 160.097656 224.65625 C 161.410156 224.316406 162.765625 223.960938 164.167969 224.300781 C 164.558594 224.398438 164.796875 224.792969 164.703125 225.183594 C 164.609375 225.574219 164.214844 225.816406 163.824219 225.722656 C 162.777344 225.46875 161.65625 225.761719 160.46875 226.070312 C 160.109375 226.164062 159.75 226.257812 159.394531 226.335938 C 158.414062 226.554688 157.402344 226.660156 156.394531 226.664062 Z M 156.394531 226.660156 " fill-opacity="1" fill-rule="nonzero"/><path fill="#000000" d="M 168.199219 214.421875 C 168.09375 214.421875 167.984375 214.398438 167.882812 214.351562 C 165.285156 213.09375 162.386719 212.382812 159.5 212.292969 C 159.097656 212.28125 158.78125 211.945312 158.792969 211.542969 C 158.804688 211.136719 159.136719 210.820312 159.546875 210.835938 C 162.632812 210.929688 165.734375 211.691406 168.515625 213.035156 C 168.878906 213.210938 169.03125 213.648438 168.855469 214.011719 C 168.730469 214.269531 168.46875 214.421875 168.199219 214.421875 Z M 168.199219 214.421875 " fill-opacity="1" fill-rule="nonzero"/><path fill="#000000" d="M 139.371094 214.527344 C 139.257812 214.527344 139.144531 214.503906 139.035156 214.445312 C 138.679688 214.261719 138.539062 213.820312 138.726562 213.460938 C 139.832031 211.324219 140.976562 209.117188 142.59375 207.21875 C 143.003906 206.742188 143.441406 206.289062 143.863281 205.847656 C 144.46875 205.214844 145.039062 204.617188 145.539062 203.957031 C 146.191406 203.085938 146.941406 201.757812 146.792969 200.363281 C 146.75 199.960938 147.039062 199.601562 147.441406 199.5625 C 147.84375 199.519531 148.199219 199.808594 148.242188 200.210938 C 148.441406 202.078125 147.515625 203.757812 146.703125 204.835938 C 146.152344 205.566406 145.523438 206.226562 144.910156 206.859375 C 144.503906 207.285156 144.085938 207.722656 143.703125 208.167969 C 142.191406 209.9375 141.085938 212.070312 140.019531 214.132812 C 139.890625 214.382812 139.636719 214.527344 139.371094 214.527344 Z M 139.371094 214.527344 " fill-opacity="1" fill-rule="nonzero"/><path fill="#000000" d="M 245.707031 299.402344 C 241.511719 299.402344 237.121094 297.355469 232.332031 293.175781 C 231.355469 292.328125 230.390625 291.429688 229.457031 290.5625 C 226.609375 287.914062 223.664062 285.175781 220.160156 283.539062 C 219.796875 283.371094 219.636719 282.9375 219.808594 282.570312 C 219.976562 282.203125 220.410156 282.046875 220.777344 282.214844 C 224.488281 283.949219 227.519531 286.765625 230.449219 289.492188 C 231.375 290.351562 232.332031 291.242188 233.289062 292.078125 C 238.253906 296.40625 242.691406 298.308594 246.855469 297.886719 C 248.964844 297.671875 250.925781 296.863281 253.003906 296.007812 C 254.144531 295.539062 255.324219 295.054688 256.527344 294.675781 C 259.929688 293.613281 264.445312 293.5625 266.914062 296.605469 C 267.167969 296.917969 267.121094 297.375 266.808594 297.628906 C 266.5 297.886719 266.039062 297.835938 265.785156 297.523438 C 263.773438 295.046875 259.910156 295.148438 256.964844 296.070312 C 255.820312 296.429688 254.667969 296.902344 253.558594 297.359375 C 251.476562 298.214844 249.324219 299.101562 247.003906 299.335938 C 246.574219 299.382812 246.140625 299.402344 245.707031 299.402344 Z M 245.707031 299.402344 " fill-opacity="1" fill-rule="nonzero"/><g clip-path="url(#562ad95df4)"><path fill="#000000" d="M 238.492188 334.972656 C 238.269531 334.972656 238.046875 334.871094 237.90625 334.675781 C 235.625 331.574219 233.460938 328.492188 232.078125 324.933594 C 230.511719 320.90625 230.296875 316.835938 231.476562 313.480469 C 231.925781 312.203125 232.570312 311.023438 233.191406 309.878906 C 233.828125 308.714844 234.425781 307.617188 234.835938 306.429688 C 235.941406 303.21875 235.515625 296.957031 233.328125 293.992188 C 233.089844 293.667969 233.15625 293.210938 233.480469 292.972656 C 233.804688 292.730469 234.261719 292.800781 234.5 293.125 C 236.980469 296.484375 237.457031 303.292969 236.214844 306.90625 C 235.765625 308.207031 235.109375 309.414062 234.472656 310.578125 C 233.847656 311.722656 233.261719 312.800781 232.851562 313.964844 C 231.789062 316.992188 231.996094 320.699219 233.4375 324.402344 C 234.757812 327.796875 236.859375 330.789062 239.078125 333.8125 C 239.316406 334.136719 239.25 334.59375 238.925781 334.832031 C 238.792969 334.929688 238.640625 334.972656 238.492188 334.972656 Z M 238.492188 334.972656 " fill-opacity="1" fill-rule="nonzero"/></g><path fill="#000000" d="M 216.410156 322.429688 C 216.226562 322.429688 216.042969 322.363281 215.902344 322.226562 C 213.753906 320.148438 211.320312 317.796875 209.863281 314.875 C 208.203125 311.542969 208.175781 307.851562 209.796875 305.242188 C 210.476562 304.15625 211.460938 303.175781 212.8125 302.25 C 213.929688 301.488281 215.132812 300.863281 216.300781 300.261719 C 217.753906 299.507812 219.125 298.796875 220.347656 297.839844 C 223.792969 295.125 225.574219 290.402344 224.777344 286.085938 C 224.707031 285.6875 224.96875 285.308594 225.363281 285.234375 C 225.757812 285.160156 226.140625 285.421875 226.210938 285.820312 C 227.105469 290.65625 225.109375 295.949219 221.246094 298.988281 C 219.917969 300.03125 218.417969 300.808594 216.96875 301.558594 C 215.84375 302.140625 214.675781 302.742188 213.636719 303.457031 C 212.453125 304.265625 211.605469 305.101562 211.035156 306.015625 C 209.414062 308.621094 210.039062 311.964844 211.167969 314.222656 C 212.511719 316.921875 214.75 319.082031 216.914062 321.175781 C 217.203125 321.453125 217.210938 321.917969 216.933594 322.207031 C 216.789062 322.355469 216.597656 322.429688 216.410156 322.429688 Z M 216.410156 322.429688 " fill-opacity="1" fill-rule="nonzero"/><path fill="#000000" d="M 252.59375 330.222656 C 252.539062 330.222656 252.480469 330.214844 252.425781 330.203125 C 252.03125 330.109375 251.792969 329.714844 251.886719 329.320312 C 252.296875 327.617188 251.621094 325.605469 250.082031 323.945312 C 248.839844 322.609375 247.207031 321.601562 245.625 320.632812 C 245.382812 320.480469 245.136719 320.332031 244.894531 320.179688 C 243.085938 319.054688 241.046875 317.675781 239.75 315.597656 C 239.300781 314.875 238.964844 314.105469 238.636719 313.359375 C 238.332031 312.65625 238.039062 311.988281 237.664062 311.375 C 236.832031 310.015625 236.140625 309.25 235.074219 309.367188 C 234.675781 309.410156 234.316406 309.121094 234.273438 308.71875 C 234.226562 308.316406 234.515625 307.957031 234.917969 307.914062 C 237.113281 307.675781 238.28125 309.585938 238.90625 310.609375 C 239.335938 311.3125 239.660156 312.054688 239.972656 312.773438 C 240.292969 313.503906 240.589844 314.191406 240.984375 314.820312 C 242.117188 316.636719 243.996094 317.898438 245.667969 318.941406 C 245.90625 319.089844 246.148438 319.238281 246.386719 319.386719 C 248.050781 320.410156 249.773438 321.46875 251.148438 322.949219 C 253.023438 324.972656 253.828125 327.480469 253.300781 329.664062 C 253.222656 329.996094 252.921875 330.222656 252.59375 330.222656 Z M 252.59375 330.222656 " fill-opacity="1" fill-rule="nonzero"/><path fill="#000000" d="M 226.121094 330.277344 C 225.785156 330.277344 225.484375 330.046875 225.410156 329.707031 C 224.644531 326.273438 224.675781 323.25 225.507812 320.714844 C 226.679688 317.128906 228.617188 314.972656 231.269531 314.300781 C 231.660156 314.203125 232.058594 314.4375 232.15625 314.828125 C 232.253906 315.21875 232.019531 315.617188 231.628906 315.714844 C 229.460938 316.265625 227.914062 318.050781 226.890625 321.167969 C 226.144531 323.453125 226.125 326.214844 226.832031 329.386719 C 226.921875 329.78125 226.671875 330.171875 226.28125 330.257812 C 226.226562 330.269531 226.171875 330.277344 226.121094 330.277344 Z M 226.121094 330.277344 " fill-opacity="1" fill-rule="nonzero"/><path fill="#000000" d="M 258.863281 318.769531 C 256.582031 318.769531 254.296875 318.042969 252.464844 316.691406 C 250.066406 314.925781 248.457031 312.097656 248.15625 309.132812 C 248.050781 308.066406 248.105469 307.007812 248.15625 305.980469 C 248.195312 305.234375 248.234375 304.527344 248.210938 303.8125 C 248.171875 302.46875 247.863281 300.644531 246.609375 299.589844 C 246.300781 299.328125 246.261719 298.867188 246.523438 298.558594 C 246.78125 298.25 247.242188 298.210938 247.546875 298.472656 C 249.214844 299.875 249.621094 302.128906 249.667969 303.769531 C 249.691406 304.542969 249.652344 305.3125 249.613281 306.054688 C 249.558594 307.070312 249.511719 308.03125 249.605469 308.984375 C 249.863281 311.546875 251.253906 313.988281 253.328125 315.515625 C 255.398438 317.042969 258.136719 317.644531 260.65625 317.128906 C 261.050781 317.046875 261.4375 317.304688 261.519531 317.699219 C 261.597656 318.09375 261.34375 318.480469 260.949219 318.558594 C 260.261719 318.699219 259.5625 318.769531 258.859375 318.769531 Z M 258.863281 318.769531 " fill-opacity="1" fill-rule="nonzero"/><path fill="#000000" d="M 266.027344 305.816406 C 265.820312 305.816406 265.613281 305.726562 265.46875 305.554688 C 264.386719 304.269531 262.890625 303.351562 261.25 302.976562 C 260.410156 302.785156 259.546875 302.730469 258.628906 302.675781 C 257.691406 302.617188 256.71875 302.554688 255.757812 302.335938 C 253.765625 301.875 251.578125 300.347656 251.492188 298.074219 C 251.476562 297.671875 251.792969 297.332031 252.191406 297.316406 C 252.59375 297.304688 252.933594 297.617188 252.949219 298.019531 C 253.003906 299.457031 254.570312 300.5625 256.085938 300.910156 C 256.929688 301.105469 257.796875 301.160156 258.71875 301.21875 C 259.652344 301.273438 260.621094 301.335938 261.574219 301.554688 C 263.519531 301.996094 265.300781 303.085938 266.585938 304.617188 C 266.84375 304.925781 266.804688 305.386719 266.496094 305.644531 C 266.359375 305.757812 266.195312 305.816406 266.027344 305.816406 Z M 266.027344 305.816406 " fill-opacity="1" fill-rule="nonzero"/><path fill="#000000" d="M 225.453125 286.621094 C 225.214844 286.621094 224.976562 286.5 224.839844 286.28125 C 224.621094 285.941406 224.722656 285.492188 225.0625 285.273438 C 227.242188 283.882812 229.496094 282.445312 231.257812 280.546875 C 233.167969 278.484375 234.195312 276.117188 234.15625 273.882812 C 234.132812 272.542969 233.738281 271.242188 233.324219 269.867188 C 233.195312 269.441406 233.066406 269.011719 232.949219 268.585938 C 231.355469 262.761719 231.855469 256.261719 234.332031 250.753906 C 234.496094 250.386719 234.929688 250.222656 235.296875 250.386719 C 235.664062 250.554688 235.828125 250.984375 235.660156 251.351562 C 233.324219 256.554688 232.847656 262.695312 234.355469 268.199219 C 234.46875 268.617188 234.597656 269.03125 234.722656 269.445312 C 235.144531 270.855469 235.585938 272.316406 235.613281 273.855469 C 235.660156 276.46875 234.492188 279.199219 232.324219 281.539062 C 230.4375 283.574219 228.101562 285.066406 225.84375 286.503906 C 225.722656 286.582031 225.589844 286.621094 225.453125 286.621094 Z M 225.453125 286.621094 " fill-opacity="1" fill-rule="nonzero"/><path fill="#000000" d="M 232.925781 293.003906 C 232.535156 293.003906 232.214844 292.691406 232.199219 292.296875 C 232.183594 291.894531 232.5 291.558594 232.902344 291.542969 C 235.429688 291.453125 237.601562 289.980469 239.898438 288.421875 C 240.757812 287.839844 241.644531 287.238281 242.550781 286.714844 C 247.613281 283.796875 253.921875 283.238281 259.421875 285.21875 C 259.800781 285.355469 259.996094 285.773438 259.859375 286.152344 C 259.726562 286.535156 259.308594 286.730469 258.929688 286.59375 C 253.828125 284.753906 247.976562 285.273438 243.277344 287.980469 C 242.417969 288.476562 241.550781 289.0625 240.714844 289.628906 C 238.347656 291.234375 235.902344 292.894531 232.953125 293.003906 C 232.945312 293.003906 232.9375 293.003906 232.925781 293.003906 Z M 232.925781 293.003906 " fill-opacity="1" fill-rule="nonzero"/><path fill="#000000" d="M 237.472656 276.855469 C 236.601562 276.855469 235.738281 276.777344 234.871094 276.625 C 234.472656 276.554688 234.207031 276.175781 234.277344 275.78125 C 234.347656 275.382812 234.722656 275.117188 235.121094 275.1875 C 238.269531 275.742188 241.421875 275.179688 244.761719 273.46875 C 245.722656 272.976562 246.667969 272.382812 247.578125 271.808594 C 248.675781 271.121094 249.808594 270.40625 251.015625 269.835938 C 253.78125 268.523438 256.464844 268.300781 258.585938 269.207031 C 258.953125 269.363281 259.125 269.792969 258.96875 270.164062 C 258.8125 270.535156 258.382812 270.707031 258.011719 270.550781 C 255.679688 269.554688 253.019531 270.5 251.640625 271.15625 C 250.511719 271.691406 249.414062 272.378906 248.355469 273.046875 C 247.414062 273.636719 246.441406 274.246094 245.425781 274.769531 C 242.699219 276.164062 240.078125 276.855469 237.472656 276.855469 Z M 237.472656 276.855469 " fill-opacity="1" fill-rule="nonzero"/><path fill="#000000" d="M 234.0625 269.628906 C 233.664062 269.628906 233.339844 269.308594 233.332031 268.910156 C 233.324219 268.507812 233.648438 268.175781 234.050781 268.167969 C 235.011719 268.152344 235.640625 267.449219 236.339844 266.316406 C 236.695312 265.746094 236.972656 265.128906 237.265625 264.472656 C 237.535156 263.867188 237.816406 263.238281 238.167969 262.636719 C 239.855469 259.765625 243.097656 257.910156 246.425781 257.910156 L 246.441406 257.910156 C 246.84375 257.910156 247.171875 258.238281 247.167969 258.640625 C 247.167969 259.042969 246.84375 259.371094 246.441406 259.371094 C 246.433594 259.371094 246.429688 259.371094 246.425781 259.371094 C 243.601562 259.371094 240.855469 260.941406 239.425781 263.378906 C 239.113281 263.910156 238.859375 264.472656 238.59375 265.070312 C 238.292969 265.738281 237.984375 266.433594 237.578125 267.085938 C 236.773438 268.390625 235.789062 269.601562 234.070312 269.628906 L 234.058594 269.628906 Z M 234.0625 269.628906 " fill-opacity="1" fill-rule="nonzero"/><path fill="#000000" d="M 197.6875 308.980469 C 197.566406 308.980469 197.441406 308.949219 197.328125 308.882812 C 196.976562 308.683594 196.855469 308.238281 197.054688 307.886719 C 198.695312 305.007812 201.300781 302.777344 204.398438 301.605469 C 207.492188 300.4375 210.921875 300.386719 214.050781 301.460938 C 214.433594 301.59375 214.632812 302.007812 214.503906 302.390625 C 214.371094 302.773438 213.957031 302.972656 213.578125 302.84375 C 210.808594 301.890625 207.648438 301.9375 204.910156 302.972656 C 202.171875 304.007812 199.769531 306.0625 198.320312 308.609375 C 198.1875 308.847656 197.941406 308.980469 197.6875 308.980469 Z M 197.6875 308.980469 " fill-opacity="1" fill-rule="nonzero"/><path fill="#000000" d="M 104.351562 217.289062 C 100.5 217.289062 97.367188 212.714844 97.367188 207.09375 C 97.367188 201.472656 100.5 196.898438 104.351562 196.898438 C 108.203125 196.898438 111.335938 201.472656 111.335938 207.09375 C 111.335938 212.714844 108.203125 217.289062 104.351562 217.289062 Z M 104.351562 198.359375 C 101.304688 198.359375 98.828125 202.277344 98.828125 207.09375 C 98.828125 211.910156 101.304688 215.828125 104.351562 215.828125 C 107.398438 215.828125 109.878906 211.910156 109.878906 207.09375 C 109.878906 202.277344 107.398438 198.359375 104.351562 198.359375 Z M 104.351562 198.359375 " fill-opacity="1" fill-rule="nonzero"/></svg>