<svg xmlns="http://www.w3.org/2000/svg" xmlns:xlink="http://www.w3.org/1999/xlink" width="500" zoomAndPan="magnify" viewBox="0 0 375 374.999991" height="500" preserveAspectRatio="xMidYMid meet" version="1.0"><defs><clipPath id="11ad2fee23"><path d="M 37 42 L 344.652344 42 L 344.652344 332.988281 L 37 332.988281 Z M 37 42 " clip-rule="nonzero"/></clipPath></defs><rect x="-37.5" width="450" fill="#ffffff" y="-37.499999" height="449.999989" fill-opacity="1"/><rect x="-37.5" width="450" fill="#ffffff" y="-37.499999" height="449.999989" fill-opacity="1"/><g clip-path="url(#11ad2fee23)"><path fill="#000000" d="M 301.222656 160.378906 C 301.222656 161.683594 300.164062 162.746094 298.855469 162.746094 L 268.902344 162.746094 C 266.328125 162.746094 264.246094 164.832031 264.246094 167.402344 L 264.246094 197.351562 C 264.246094 198.65625 263.179688 199.722656 261.875 199.722656 L 238.949219 199.722656 C 237.644531 199.722656 236.578125 198.65625 236.578125 197.351562 L 236.578125 167.402344 C 236.578125 164.832031 234.492188 162.746094 231.917969 162.746094 L 201.96875 162.746094 C 200.660156 162.746094 199.597656 161.683594 199.597656 160.378906 L 199.597656 137.457031 C 199.597656 136.15625 200.660156 135.089844 201.96875 135.089844 L 231.917969 135.089844 C 234.492188 135.089844 236.578125 133.007812 236.578125 130.429688 L 236.578125 100.488281 C 236.578125 99.179688 237.644531 98.121094 238.949219 98.121094 L 261.875 98.121094 C 263.179688 98.121094 264.246094 99.179688 264.246094 100.488281 L 264.246094 130.429688 C 264.246094 133.007812 266.328125 135.089844 268.902344 135.089844 L 298.855469 135.089844 C 300.164062 135.089844 301.222656 136.15625 301.222656 137.457031 Z M 298.855469 125.769531 L 273.5625 125.769531 L 273.5625 100.484375 C 273.5625 94.042969 268.316406 88.800781 261.875 88.800781 L 238.949219 88.800781 C 232.503906 88.800781 227.261719 94.046875 227.261719 100.484375 L 227.261719 125.769531 L 201.96875 125.769531 C 195.519531 125.769531 190.277344 131.011719 190.277344 137.457031 L 190.277344 160.375 C 190.277344 166.816406 195.519531 172.058594 201.96875 172.058594 L 227.261719 172.058594 L 227.261719 197.351562 C 227.261719 203.792969 232.503906 209.035156 238.949219 209.035156 L 261.875 209.035156 C 268.316406 209.035156 273.5625 203.792969 273.5625 197.351562 L 273.5625 172.058594 L 298.855469 172.058594 C 305.300781 172.058594 310.542969 166.816406 310.542969 160.375 L 310.542969 137.457031 C 310.546875 131.011719 305.300781 125.769531 298.855469 125.769531 Z M 116.046875 170.753906 C 117.824219 159.160156 131.402344 153.667969 140.742188 160.769531 C 142.789062 162.328125 143.183594 165.253906 141.625 167.296875 C 140.070312 169.347656 137.140625 169.746094 135.097656 168.1875 C 131.382812 165.351562 125.976562 167.503906 125.257812 172.160156 C 124.859375 174.734375 122.460938 176.453125 119.945312 176.0625 C 117.40625 175.667969 115.660156 173.296875 116.046875 170.753906 Z M 96.5625 183.753906 C 92.835938 180.917969 87.4375 183.101562 86.726562 187.730469 C 86.332031 190.296875 83.9375 192.019531 81.417969 191.632812 C 78.871094 191.246094 77.125 188.867188 77.515625 186.328125 C 79.289062 174.730469 92.867188 169.238281 102.210938 176.34375 C 104.257812 177.902344 104.652344 180.824219 103.09375 182.871094 C 101.535156 184.917969 98.609375 185.316406 96.5625 183.753906 Z M 295.746094 220.472656 C 321.25 187.566406 335.296875 153.230469 335.296875 123.789062 C 335.296875 83.859375 302.804688 51.375 262.867188 51.375 C 242.019531 51.375 222.167969 60.375 208.398438 76.070312 C 206.542969 78.191406 203.246094 78.1875 201.398438 76.070312 C 187.632812 60.375 167.78125 51.375 146.925781 51.375 C 115.171875 51.375 87.636719 71.832031 78.070312 101.242188 L 79.628906 100.589844 C 113.304688 86.980469 150.84375 100.992188 163.308594 131.832031 C 167.835938 143.023438 168.609375 155.179688 165.570312 167.132812 C 171.714844 176.773438 173.59375 188.320312 171.105469 199.574219 C 183.589844 199.636719 194.109375 200.578125 203.050781 209.402344 C 215.757812 221.941406 224.15625 232.757812 231.402344 247.730469 C 236.078125 257.386719 236.726562 267.441406 233.277344 276.8125 C 232.824219 278.027344 232.300781 279.226562 231.726562 280.40625 C 254.980469 264.972656 277.5625 243.929688 295.746094 220.472656 Z M 208.765625 321.34375 C 208.132812 322.933594 206.625 323.808594 204.929688 323.566406 L 204.242188 323.46875 C 202.324219 323.199219 200.953125 321.414062 201.179688 319.492188 L 201.84375 313.855469 C 202.359375 309.542969 200.355469 305.484375 196.628906 303.257812 C 191.1875 300.023438 186.976562 295.945312 183.761719 290.800781 C 183.761719 290.800781 183.761719 290.800781 183.753906 290.800781 C 180.609375 285.773438 178.460938 279.667969 177.363281 272.636719 C 175.628906 261.527344 185.164062 254.585938 195.671875 255.105469 C 198.289062 255.234375 200.917969 255.648438 203.503906 256.335938 C 205.988281 257.011719 208.542969 255.53125 209.207031 253.046875 C 209.871094 250.566406 208.390625 248 205.90625 247.339844 C 202.695312 246.480469 199.402344 245.957031 196.140625 245.800781 C 179.589844 244.976562 165.507812 257.191406 168.152344 274.078125 C 168.621094 277.046875 169.261719 279.886719 170.054688 282.59375 C 161.199219 276.5625 153.710938 268.464844 147.667969 258.398438 C 153.433594 256.695312 159.519531 254.261719 165.84375 251.113281 C 168.148438 249.972656 169.089844 247.175781 167.945312 244.875 C 166.796875 242.570312 164.003906 241.632812 161.695312 242.773438 C 143.234375 251.941406 121.589844 257.636719 105.429688 243.476562 C 130.722656 246.527344 157.703125 232.277344 168.003906 208.925781 C 171.761719 208.828125 175.613281 208.917969 179.363281 209.167969 C 186.808594 209.65625 192.253906 211.839844 196.507812 216.035156 C 208.417969 227.789062 216.265625 237.828125 223.015625 251.789062 C 231.871094 270.082031 220.257812 282.789062 213.289062 288.34375 C 209.882812 285.511719 205.917969 283.175781 203.515625 279.5 C 201.652344 276.65625 200.570312 273.445312 200.199219 269.675781 C 199.941406 267.117188 197.660156 265.246094 195.097656 265.496094 C 192.539062 265.75 190.671875 268.03125 190.925781 270.589844 C 191.441406 275.816406 193.054688 280.523438 195.71875 284.601562 C 199.964844 291.097656 205.753906 293.472656 209.515625 297.53125 C 211.242188 299.390625 212.160156 301.339844 212.507812 303.863281 C 213.230469 309.175781 211.023438 315.679688 208.765625 321.34375 Z M 74.9375 212.015625 C 78.761719 221.464844 86.730469 228.632812 97.378906 232.1875 C 119.902344 239.71875 147.375 228.613281 158.339844 207.550781 C 163.519531 197.59375 164.273438 186.90625 160.449219 177.457031 C 159.484375 175.058594 158.226562 172.773438 156.722656 170.675781 C 155.890625 169.515625 155.644531 168.027344 156.039062 166.65625 C 159.144531 156.054688 158.675781 145.21875 154.671875 135.324219 C 144.238281 109.519531 112.6875 97.804688 84.015625 108.894531 C 78.757812 119.195312 76.25 131.886719 81.429688 137.378906 C 84.335938 140.460938 91.109375 141.941406 94.394531 138.660156 C 96.972656 136.085938 96.613281 130.132812 91.472656 129.851562 C 88.90625 129.707031 86.933594 127.515625 87.078125 124.945312 C 87.21875 122.375 89.421875 120.40625 91.984375 120.546875 C 105.238281 121.28125 109.230469 137.007812 100.980469 145.253906 C 93.925781 152.304688 81.214844 150.722656 74.648438 143.769531 C 68.011719 136.742188 68.246094 125.777344 71.3125 115.546875 C 50.367188 129.851562 40.8125 155.46875 49.804688 177.707031 C 53.808594 187.601562 61 195.726562 70.601562 201.1875 C 71.84375 201.898438 72.695312 203.136719 72.90625 204.550781 C 73.289062 207.109375 73.972656 209.617188 74.9375 212.015625 Z M 262.867188 42.058594 C 241.050781 42.058594 220.199219 50.789062 204.902344 66.175781 C 189.601562 50.789062 168.742188 42.058594 146.925781 42.058594 C 107.941406 42.058594 74.585938 69.382812 66.84375 107.324219 C 41.816406 123.941406 30.394531 154.550781 41.167969 181.199219 C 45.691406 192.390625 53.59375 201.671875 64.082031 208.152344 C 64.59375 210.664062 65.339844 213.125 66.300781 215.507812 C 70.546875 226.003906 78.703125 234.246094 89.546875 239.121094 C 101.101562 256.71875 117.429688 263.929688 138.144531 260.59375 C 147.570312 277.398438 160.507812 289.625 176.648438 296.96875 C 180.53125 302.757812 185.636719 307.5625 191.855469 311.261719 C 192.421875 311.597656 192.667969 312.101562 192.59375 312.753906 L 191.921875 318.394531 C 191.101562 325.308594 196.042969 331.722656 202.945312 332.699219 L 205.453125 332.921875 C 210.671875 332.921875 215.4375 329.761719 217.421875 324.792969 C 220.675781 316.632812 223.847656 306.679688 220.601562 298.019531 C 250.261719 281.792969 280.125 255.835938 303.113281 226.171875 C 329.875 191.644531 344.613281 155.289062 344.613281 123.789062 C 344.613281 78.722656 307.945312 42.058594 262.867188 42.058594 Z M 262.867188 42.058594 " fill-opacity="1" fill-rule="evenodd"/></g></svg>