<svg xmlns="http://www.w3.org/2000/svg" xmlns:xlink="http://www.w3.org/1999/xlink" width="500" zoomAndPan="magnify" viewBox="0 0 375 374.999991" height="500" preserveAspectRatio="xMidYMid meet" version="1.0"><defs><clipPath id="895eef25f2"><path d="M 30.402344 41.988281 L 344.652344 41.988281 L 344.652344 332.988281 L 30.402344 332.988281 Z M 30.402344 41.988281 " clip-rule="nonzero"/></clipPath><clipPath id="c780a06d14"><path d="M 0.402344 1 L 308 1 L 308 291.988281 L 0.402344 291.988281 Z M 0.402344 1 " clip-rule="nonzero"/></clipPath><clipPath id="132fca2a77"><rect x="0" width="315" y="0" height="292"/></clipPath></defs><rect x="-37.5" width="450" fill="#ffffff" y="-37.499999" height="449.999989" fill-opacity="1"/><rect x="-37.5" width="450" fill="#ffffff" y="-37.499999" height="449.999989" fill-opacity="1"/><g clip-path="url(#895eef25f2)"><g transform="matrix(1, 0, 0, 1, 30, 41)"><g clip-path="url(#132fca2a77)"><g clip-path="url(#c780a06d14)"><path fill="#000000" d="M 43.773438 119.378906 C 43.773438 120.683594 44.835938 121.746094 46.144531 121.746094 L 76.097656 121.746094 C 78.667969 121.746094 80.753906 123.832031 80.753906 126.402344 L 80.753906 156.351562 C 80.753906 157.65625 81.820312 158.722656 83.125 158.722656 L 106.046875 158.722656 C 107.355469 158.722656 108.421875 157.65625 108.421875 156.351562 L 108.421875 126.402344 C 108.421875 123.832031 110.507812 121.746094 113.082031 121.746094 L 143.03125 121.746094 C 144.339844 121.746094 145.402344 120.683594 145.402344 119.378906 L 145.402344 96.457031 C 145.402344 95.15625 144.339844 94.089844 143.03125 94.089844 L 113.082031 94.089844 C 110.507812 94.089844 108.421875 92.007812 108.421875 89.429688 L 108.421875 59.488281 C 108.421875 58.179688 107.355469 57.121094 106.046875 57.121094 L 83.125 57.121094 C 81.820312 57.121094 80.753906 58.179688 80.753906 59.488281 L 80.753906 89.429688 C 80.753906 92.007812 78.667969 94.089844 76.097656 94.089844 L 46.144531 94.089844 C 44.835938 94.089844 43.773438 95.15625 43.773438 96.457031 Z M 46.144531 84.769531 L 71.4375 84.769531 L 71.4375 59.484375 C 71.4375 53.042969 76.679688 47.800781 83.125 47.800781 L 106.046875 47.800781 C 112.496094 47.800781 117.738281 53.046875 117.738281 59.484375 L 117.738281 84.769531 L 143.03125 84.769531 C 149.476562 84.769531 154.722656 90.011719 154.722656 96.457031 L 154.722656 119.375 C 154.722656 125.816406 149.476562 131.058594 143.03125 131.058594 L 117.738281 131.058594 L 117.738281 156.351562 C 117.738281 162.792969 112.496094 168.035156 106.046875 168.035156 L 83.125 168.035156 C 76.679688 168.035156 71.4375 162.792969 71.4375 156.351562 L 71.4375 131.058594 L 46.144531 131.058594 C 39.699219 131.058594 34.453125 125.816406 34.453125 119.375 L 34.453125 96.457031 C 34.453125 90.011719 39.699219 84.769531 46.144531 84.769531 Z M 228.953125 129.753906 C 227.175781 118.160156 213.597656 112.667969 204.257812 119.769531 C 202.210938 121.328125 201.8125 124.253906 203.371094 126.296875 C 204.929688 128.347656 207.855469 128.746094 209.902344 127.1875 C 213.617188 124.351562 219.023438 126.503906 219.742188 131.160156 C 220.136719 133.734375 222.535156 135.453125 225.050781 135.0625 C 227.59375 134.667969 229.339844 132.296875 228.953125 129.753906 Z M 248.4375 142.753906 C 252.164062 139.917969 257.5625 142.101562 258.273438 146.730469 C 258.664062 149.296875 261.0625 151.019531 263.582031 150.632812 C 266.128906 150.246094 267.875 147.867188 267.484375 145.328125 C 265.710938 133.730469 252.128906 128.238281 242.789062 135.34375 C 240.742188 136.902344 240.347656 139.824219 241.90625 141.871094 C 243.464844 143.917969 246.386719 144.316406 248.4375 142.753906 Z M 49.253906 179.472656 C 23.75 146.566406 9.703125 112.230469 9.703125 82.789062 C 9.703125 42.859375 42.195312 10.375 82.128906 10.375 C 102.980469 10.375 122.832031 19.375 136.601562 35.070312 C 138.457031 37.191406 141.753906 37.1875 143.601562 35.070312 C 157.367188 19.375 177.214844 10.375 198.074219 10.375 C 229.824219 10.375 257.359375 30.832031 266.929688 60.242188 L 265.371094 59.589844 C 231.695312 45.980469 194.152344 59.992188 181.691406 90.832031 C 177.164062 102.023438 176.390625 114.179688 179.429688 126.132812 C 173.285156 135.773438 171.402344 147.320312 173.894531 158.574219 C 161.410156 158.636719 150.890625 159.578125 141.949219 168.402344 C 129.242188 180.941406 120.84375 191.757812 113.597656 206.730469 C 108.917969 216.386719 108.273438 226.441406 111.722656 235.8125 C 112.175781 237.027344 112.699219 238.226562 113.273438 239.40625 C 90.019531 223.972656 67.433594 202.929688 49.253906 179.472656 Z M 136.234375 280.34375 C 136.863281 281.933594 138.375 282.808594 140.070312 282.566406 L 140.753906 282.46875 C 142.675781 282.199219 144.046875 280.414062 143.820312 278.492188 L 143.152344 272.855469 C 142.636719 268.542969 144.644531 264.484375 148.371094 262.257812 C 153.8125 259.023438 158.023438 254.945312 161.238281 249.800781 C 161.238281 249.800781 161.238281 249.800781 161.246094 249.800781 C 164.390625 244.773438 166.539062 238.667969 167.636719 231.636719 C 169.371094 220.527344 159.835938 213.585938 149.328125 214.105469 C 146.710938 214.234375 144.082031 214.648438 141.496094 215.335938 C 139.007812 216.011719 136.457031 214.53125 135.792969 212.046875 C 135.125 209.566406 136.605469 207 139.089844 206.339844 C 142.300781 205.480469 145.59375 204.957031 148.855469 204.800781 C 165.410156 203.976562 179.488281 216.191406 176.84375 233.078125 C 176.378906 236.046875 175.738281 238.886719 174.941406 241.59375 C 183.800781 235.5625 191.289062 227.464844 197.332031 217.398438 C 191.566406 215.695312 185.476562 213.261719 179.15625 210.113281 C 176.847656 208.972656 175.910156 206.175781 177.054688 203.875 C 178.199219 201.570312 180.996094 200.632812 183.300781 201.773438 C 201.765625 210.941406 223.410156 216.636719 239.570312 202.476562 C 214.277344 205.527344 187.292969 191.277344 176.996094 167.925781 C 173.238281 167.828125 169.386719 167.917969 165.636719 168.167969 C 158.1875 168.65625 152.742188 170.839844 148.492188 175.035156 C 136.582031 186.789062 128.730469 196.828125 121.984375 210.789062 C 113.128906 229.082031 124.742188 241.789062 131.710938 247.34375 C 135.117188 244.511719 139.078125 242.175781 141.484375 238.5 C 143.34375 235.65625 144.429688 232.445312 144.796875 228.675781 C 145.058594 226.117188 147.339844 224.246094 149.898438 224.496094 C 152.460938 224.75 154.328125 227.03125 154.074219 229.589844 C 153.558594 234.816406 151.945312 239.523438 149.277344 243.601562 C 145.03125 250.097656 139.246094 252.472656 135.484375 256.53125 C 135.480469 256.53125 135.480469 256.53125 135.480469 256.53125 C 133.757812 258.390625 132.839844 260.339844 132.492188 262.863281 C 131.765625 268.175781 133.976562 274.679688 136.234375 280.34375 Z M 270.058594 171.015625 C 266.238281 180.464844 258.269531 187.632812 247.621094 191.1875 C 225.097656 198.71875 197.621094 187.613281 186.660156 166.550781 C 181.480469 156.59375 180.726562 145.90625 184.546875 136.457031 C 185.515625 134.058594 186.773438 131.773438 188.273438 129.675781 C 189.109375 128.515625 189.355469 127.027344 188.957031 125.65625 C 185.851562 115.054688 186.324219 104.21875 190.328125 94.324219 C 200.761719 68.519531 232.308594 56.804688 260.984375 67.894531 C 266.242188 78.195312 268.75 90.886719 263.570312 96.378906 C 260.660156 99.460938 253.890625 100.941406 250.605469 97.660156 C 248.027344 95.085938 248.386719 89.132812 253.527344 88.851562 C 256.09375 88.707031 258.0625 86.515625 257.921875 83.945312 C 257.78125 81.375 255.578125 79.40625 253.015625 79.546875 C 239.757812 80.28125 235.769531 96.007812 244.019531 104.253906 C 251.070312 111.304688 263.785156 109.722656 270.347656 102.769531 C 276.984375 95.742188 276.753906 84.777344 273.6875 74.546875 C 294.632812 88.851562 304.183594 114.46875 295.195312 136.707031 C 291.191406 146.601562 284 154.726562 274.394531 160.1875 C 273.15625 160.898438 272.304688 162.136719 272.09375 163.550781 C 271.710938 166.109375 271.027344 168.617188 270.058594 171.015625 Z M 82.128906 1.058594 C 103.949219 1.058594 124.796875 9.789062 140.097656 25.175781 C 155.398438 9.789062 176.253906 1.058594 198.074219 1.058594 C 237.058594 1.058594 270.410156 28.382812 278.15625 66.324219 C 303.183594 82.941406 314.605469 113.550781 303.828125 140.199219 C 299.308594 151.390625 291.40625 160.671875 280.917969 167.152344 C 280.40625 169.664062 279.65625 172.125 278.695312 174.507812 C 274.453125 185.003906 266.296875 193.246094 255.453125 198.121094 C 243.894531 215.71875 227.566406 222.929688 206.851562 219.59375 C 197.425781 236.398438 184.492188 248.625 168.351562 255.96875 C 164.46875 261.757812 159.363281 266.5625 153.144531 270.261719 C 152.578125 270.597656 152.328125 271.101562 152.40625 271.753906 L 153.078125 277.394531 C 153.894531 284.308594 148.957031 290.722656 142.050781 291.699219 L 139.546875 291.921875 C 134.328125 291.921875 129.5625 288.761719 127.578125 283.792969 C 124.324219 275.632812 121.148438 265.679688 124.398438 257.019531 C 94.734375 240.792969 64.871094 214.835938 41.882812 185.171875 C 15.121094 150.644531 0.386719 114.289062 0.386719 82.789062 C 0.386719 37.722656 37.054688 1.058594 82.128906 1.058594 Z M 82.128906 1.058594 " fill-opacity="1" fill-rule="evenodd"/></g></g></g></g></svg>