<svg xmlns="http://www.w3.org/2000/svg" xmlns:xlink="http://www.w3.org/1999/xlink" width="500" zoomAndPan="magnify" viewBox="0 0 375 374.999991" height="500" preserveAspectRatio="xMidYMid meet" version="1.0"><defs><clipPath id="dcd0cf3502"><path d="M 46 39.519531 L 330.203125 39.519531 L 330.203125 335.769531 L 46 335.769531 Z M 46 39.519531 " clip-rule="nonzero"/></clipPath></defs><rect x="-37.5" width="450" fill="#ffffff" y="-37.499999" height="449.999989" fill-opacity="1"/><rect x="-37.5" width="450" fill="#ffffff" y="-37.499999" height="449.999989" fill-opacity="1"/><g clip-path="url(#dcd0cf3502)"><path fill="#000000" d="M 330.136719 142.898438 C 330.136719 124.394531 322.992188 107.042969 310.015625 94.046875 C 294.625 78.613281 276.125 71.652344 256.515625 73.914062 C 240.171875 75.800781 223.363281 84.261719 208.8125 97.855469 C 190.195312 80.460938 168.402344 71.835938 148.039062 73.785156 C 140.792969 53.820312 121.664062 39.519531 99.261719 39.519531 C 70.664062 39.519531 47.398438 62.839844 47.398438 91.496094 C 47.398438 116.101562 64.542969 136.765625 87.488281 142.121094 C 87.289062 160.714844 94.507812 178.636719 107.597656 191.753906 L 147.710938 231.957031 L 125.53125 226.34375 C 119.03125 224.703125 112.746094 225.488281 106.847656 228.675781 L 85.046875 240.488281 C 81.296875 238.242188 76.46875 238.035156 72.421875 240.378906 L 52.375 252.042969 C 46.457031 255.480469 44.433594 263.113281 47.863281 269.058594 L 82.925781 329.589844 C 85.234375 333.554688 89.417969 335.769531 93.703125 335.769531 C 95.8125 335.769531 97.945312 335.234375 99.894531 334.105469 C 99.894531 334.105469 99.898438 334.101562 99.902344 334.101562 L 119.957031 322.433594 C 124.941406 319.515625 127.144531 313.632812 125.660156 308.3125 L 131.011719 305.199219 C 133.929688 303.503906 136.949219 303.042969 140.238281 303.792969 L 204.703125 318.621094 C 206.855469 319.117188 208.976562 319.363281 211.058594 319.363281 C 215.84375 319.363281 220.429688 318.058594 224.75 315.460938 L 294.121094 273.984375 C 304.574219 267.738281 308.007812 254.136719 301.773438 243.65625 C 295.53125 233.203125 281.960938 229.769531 271.519531 236.007812 L 257.488281 244.398438 L 310.015625 191.753906 C 322.992188 178.757812 330.136719 161.40625 330.136719 142.898438 Z M 55.484375 91.496094 C 55.484375 67.304688 75.121094 47.625 99.261719 47.625 C 123.402344 47.625 143.054688 67.304688 143.054688 91.496094 C 143.054688 115.691406 123.410156 135.371094 99.261719 135.371094 C 75.113281 135.371094 55.484375 115.691406 55.484375 91.496094 Z M 115.890625 315.433594 L 95.847656 327.09375 C 93.777344 328.289062 91.113281 327.574219 89.910156 325.515625 L 54.859375 265 C 53.660156 262.921875 54.367188 260.25 56.433594 259.050781 L 76.472656 247.390625 C 77.15625 246.996094 77.90625 246.808594 78.644531 246.808594 C 80.144531 246.808594 81.605469 247.582031 82.410156 248.96875 L 117.464844 309.488281 C 118.664062 311.558594 117.953125 314.226562 115.890625 315.433594 Z M 275.660156 242.96875 C 282.273438 239.011719 290.878906 241.191406 294.832031 247.8125 C 296.730469 251.007812 297.269531 254.773438 296.351562 258.417969 C 295.433594 262.0625 293.167969 265.121094 289.980469 267.023438 L 220.597656 308.507812 C 216.179688 311.164062 211.570312 311.890625 206.511719 310.726562 L 142.039062 295.898438 C 136.734375 294.683594 131.65625 295.457031 126.953125 298.195312 L 121.953125 301.101562 L 90.480469 246.761719 L 110.6875 235.804688 C 114.808594 233.578125 119.015625 233.054688 123.554688 234.199219 L 159.789062 243.371094 C 159.804688 243.375 159.816406 243.378906 159.832031 243.382812 L 202.910156 254.289062 C 206.6875 255.25 209.824219 257.691406 211.734375 261.164062 C 213.640625 264.621094 214.035156 268.5625 212.839844 272.257812 C 212.839844 272.261719 212.839844 272.261719 212.839844 272.265625 C 212.839844 272.269531 212.835938 272.269531 212.835938 272.269531 C 210.589844 279.304688 203.214844 283.394531 196.039062 281.585938 L 154.0625 270.957031 C 151.894531 270.40625 149.699219 271.722656 149.152344 273.890625 C 148.605469 276.058594 149.917969 278.261719 152.082031 278.8125 L 194.0625 289.441406 C 195.867188 289.898438 197.679688 290.117188 199.46875 290.117188 C 208.355469 290.117188 216.597656 284.710938 219.992188 276.246094 L 233.847656 267.964844 C 233.855469 267.960938 233.863281 267.957031 233.871094 267.953125 Z M 229.152344 261.335938 L 221.484375 265.917969 C 221.199219 262.910156 220.300781 259.949219 218.8125 257.246094 C 215.851562 251.871094 210.777344 247.929688 204.894531 246.433594 L 163.011719 235.832031 L 113.3125 186.023438 C 102.027344 174.714844 95.695312 159.355469 95.574219 143.339844 C 96.792969 143.429688 98.023438 143.476562 99.261719 143.476562 C 127.867188 143.476562 151.140625 120.160156 151.140625 91.5 C 151.140625 88.164062 150.820312 84.898438 150.21875 81.738281 C 168.824219 80.476562 188.894531 89.269531 205.957031 106.355469 C 207.535156 107.933594 210.09375 107.933594 211.671875 106.351562 C 225.566406 92.429688 241.820312 83.765625 257.441406 81.964844 C 274.507812 79.996094 290.714844 86.15625 304.300781 99.777344 C 315.746094 111.242188 322.054688 126.558594 322.054688 142.902344 C 322.054688 159.242188 315.746094 174.558594 304.296875 186.027344 Z M 248.285156 110.007812 C 236.53125 113.175781 227.113281 121.359375 222.324219 132.332031 C 221.195312 131.96875 220.023438 131.777344 218.820312 131.753906 C 212.03125 124.265625 205.90625 124.570312 202.746094 125.492188 C 197.949219 126.894531 194.144531 131.242188 192.085938 137.375 C 185.363281 132.613281 178.953125 130.632812 172.96875 131.476562 C 166.542969 132.382812 160.78125 136.492188 155.816406 143.703125 C 141.882812 144.042969 135.105469 150.59375 134.578125 157.234375 C 134.054688 163.863281 139.660156 172.359375 156.613281 175.988281 C 153.855469 183.578125 153.472656 191.851562 155.582031 199.78125 C 160.3125 217.464844 176.328125 229.160156 193.792969 229.15625 C 197.171875 229.15625 200.605469 228.71875 204.023438 227.800781 C 208.304688 226.644531 212.335938 224.800781 216.003906 222.316406 C 227.507812 215.773438 234.664062 207.726562 240.980469 200.625 C 243.683594 197.585938 246.238281 194.714844 248.789062 192.402344 C 252.015625 189.480469 255.539062 188.050781 259.894531 187.902344 C 262.945312 187.789062 265.929688 187.339844 268.761719 186.570312 C 289.824219 180.914062 302.367188 159.140625 296.722656 138.03125 C 291.082031 116.925781 269.351562 104.355469 248.285156 110.007812 Z M 266.65625 178.746094 C 264.40625 179.359375 262.03125 179.714844 259.605469 179.804688 C 253.421875 180.015625 247.960938 182.234375 243.367188 186.390625 C 240.492188 188.996094 237.796875 192.023438 234.945312 195.230469 C 229.019531 201.894531 222.300781 209.445312 211.882812 215.34375 C 211.785156 215.402344 211.6875 215.460938 211.59375 215.523438 C 208.636719 217.546875 205.382812 219.042969 201.925781 219.976562 C 185.167969 224.472656 167.882812 214.476562 163.390625 197.6875 C 161.335938 189.960938 162.253906 181.824219 165.972656 174.777344 C 165.976562 174.769531 165.980469 174.761719 165.984375 174.753906 C 166.003906 174.71875 166.027344 174.683594 166.046875 174.644531 C 169.035156 168.65625 173.644531 164.230469 180.132812 161.117188 C 182.148438 160.152344 183 157.734375 182.035156 155.714844 C 181.074219 153.699219 178.65625 152.84375 176.644531 153.808594 C 169.417969 157.273438 164.027344 162.078125 160.230469 168.441406 C 147.050781 166.078125 142.40625 160.824219 142.640625 157.875 C 142.878906 154.871094 147.964844 151.792969 156.96875 151.792969 C 157.273438 151.792969 157.589844 151.796875 157.90625 151.804688 C 159.3125 151.835938 160.667969 151.117188 161.425781 149.902344 C 165.335938 143.632812 169.601562 140.132812 174.097656 139.496094 C 178.789062 138.835938 184.308594 141.15625 190.507812 146.390625 C 190.210938 158.234375 194.976562 174.171875 209.386719 185.441406 C 210.125 186.019531 211.003906 186.296875 211.871094 186.296875 C 213.074219 186.296875 214.265625 185.761719 215.0625 184.738281 C 216.433594 182.972656 216.121094 180.429688 214.359375 179.050781 C 201.683594 169.144531 197.980469 154.589844 198.65625 145.140625 C 198.65625 145.117188 198.65625 145.09375 198.65625 145.070312 C 198.65625 145.066406 198.660156 145.066406 198.660156 145.0625 C 199.332031 138.921875 201.882812 134.183594 205.007812 133.269531 C 206.855469 132.734375 209.15625 133.683594 211.554688 135.90625 C 208.019531 140.164062 206.277344 144.59375 206.375 149.105469 C 206.507812 155.007812 209.820312 160.867188 216.222656 166.523438 C 216.992188 167.199219 217.945312 167.535156 218.894531 167.535156 C 220.011719 167.535156 221.128906 167.070312 221.929688 166.160156 C 223.402344 164.484375 223.242188 161.921875 221.566406 160.441406 C 216.929688 156.347656 214.539062 152.472656 214.460938 148.925781 C 214.394531 146.054688 215.875 143.011719 218.851562 139.871094 C 219.910156 139.945312 220.871094 140.382812 221.863281 141.234375 C 222.902344 142.128906 224.320312 142.433594 225.636719 142.042969 C 226.949219 141.65625 227.976562 140.628906 228.367188 139.316406 C 231.515625 128.726562 239.746094 120.695312 250.378906 117.832031 C 267.144531 113.335938 284.425781 123.335938 288.914062 140.125 C 293.40625 156.917969 283.425781 174.242188 266.65625 178.746094 Z M 114.546875 119.363281 L 114.546875 106.816406 L 127.066406 106.816406 C 129.300781 106.816406 131.109375 105.003906 131.109375 102.765625 L 131.109375 80.230469 C 131.109375 77.992188 129.300781 76.179688 127.066406 76.179688 L 114.546875 76.179688 L 114.546875 63.632812 C 114.546875 61.394531 112.738281 59.578125 110.503906 59.578125 L 88.035156 59.578125 C 85.800781 59.578125 83.992188 61.394531 83.992188 63.632812 L 83.992188 76.179688 L 71.472656 76.179688 C 69.238281 76.179688 67.429688 77.992188 67.429688 80.230469 L 67.429688 102.765625 C 67.429688 105.003906 69.238281 106.816406 71.472656 106.816406 L 83.992188 106.816406 L 83.992188 119.363281 C 83.992188 121.601562 85.800781 123.414062 88.035156 123.414062 L 110.503906 123.414062 C 112.738281 123.414062 114.546875 121.601562 114.546875 119.363281 Z M 106.460938 102.765625 L 106.460938 115.3125 L 92.078125 115.3125 L 92.078125 102.765625 C 92.078125 100.527344 90.265625 98.714844 88.035156 98.714844 L 75.515625 98.714844 L 75.515625 84.28125 L 88.035156 84.28125 C 90.265625 84.28125 92.078125 82.46875 92.078125 80.230469 L 92.078125 67.683594 L 106.460938 67.683594 L 106.460938 80.230469 C 106.460938 82.46875 108.273438 84.28125 110.503906 84.28125 L 123.023438 84.28125 L 123.023438 98.714844 L 110.503906 98.714844 C 108.273438 98.714844 106.460938 100.527344 106.460938 102.765625 Z M 106.460938 102.765625 " fill-opacity="1" fill-rule="nonzero"/></g></svg>