<svg xmlns="http://www.w3.org/2000/svg" xmlns:xlink="http://www.w3.org/1999/xlink" width="500" zoomAndPan="magnify" viewBox="0 0 375 374.999991" height="500" preserveAspectRatio="xMidYMid meet" version="1.0"><defs><clipPath id="10c5b72265"><path d="M 44.453125 39.519531 L 330.203125 39.519531 L 330.203125 335.769531 L 44.453125 335.769531 Z M 44.453125 39.519531 " clip-rule="nonzero"/></clipPath><clipPath id="160be5ab86"><path d="M 0.792969 0.519531 L 285 0.519531 L 285 296.769531 L 0.792969 296.769531 Z M 0.792969 0.519531 " clip-rule="nonzero"/></clipPath><clipPath id="cc8024f4e4"><rect x="0" width="287" y="0" height="297"/></clipPath></defs><rect x="-37.5" width="450" fill="#ffffff" y="-37.499999" height="449.999989" fill-opacity="1"/><rect x="-37.5" width="450" fill="#ffffff" y="-37.499999" height="449.999989" fill-opacity="1"/><g clip-path="url(#10c5b72265)"><g transform="matrix(1, 0, 0, 1, 44, 39)"><g clip-path="url(#cc8024f4e4)"><g clip-path="url(#160be5ab86)"><path fill="#000000" d="M 0.859375 103.898438 C 0.859375 85.394531 8.003906 68.042969 20.980469 55.046875 C 36.371094 39.613281 54.871094 32.652344 74.480469 34.914062 C 90.824219 36.800781 107.636719 45.261719 122.183594 58.855469 C 140.800781 41.460938 162.59375 32.835938 182.960938 34.785156 C 190.203125 14.820312 209.335938 0.519531 231.734375 0.519531 C 260.332031 0.519531 283.597656 23.839844 283.597656 52.496094 C 283.597656 77.101562 266.453125 97.765625 243.507812 103.121094 C 243.710938 121.714844 236.492188 139.636719 223.402344 152.753906 L 183.285156 192.957031 L 205.464844 187.34375 C 211.964844 185.703125 218.25 186.488281 224.152344 189.675781 L 245.949219 201.488281 C 249.703125 199.242188 254.53125 199.035156 258.574219 201.378906 L 278.621094 213.042969 C 284.539062 216.480469 286.5625 224.113281 283.132812 230.058594 L 248.074219 290.589844 C 245.761719 294.554688 241.582031 296.769531 237.292969 296.769531 C 235.1875 296.769531 233.050781 296.234375 231.105469 295.105469 C 231.101562 295.105469 231.097656 295.101562 231.097656 295.101562 L 211.039062 283.433594 C 206.054688 280.515625 203.855469 274.632812 205.335938 269.3125 L 199.984375 266.199219 C 197.066406 264.503906 194.046875 264.042969 190.761719 264.792969 L 126.296875 279.621094 C 124.140625 280.117188 122.019531 280.363281 119.9375 280.363281 C 115.152344 280.363281 110.570312 279.058594 106.25 276.460938 L 36.875 234.984375 C 26.425781 228.738281 22.992188 215.136719 29.226562 204.65625 C 35.464844 194.203125 49.035156 190.769531 59.476562 197.007812 L 73.511719 205.398438 L 20.984375 152.753906 C 8.003906 139.757812 0.859375 122.40625 0.859375 103.898438 Z M 275.515625 52.496094 C 275.515625 28.304688 255.875 8.625 231.734375 8.625 C 207.597656 8.625 187.941406 28.304688 187.941406 52.496094 C 187.941406 76.691406 207.585938 96.371094 231.734375 96.371094 C 255.882812 96.371094 275.515625 76.691406 275.515625 52.496094 Z M 215.109375 276.433594 L 235.152344 288.09375 C 237.21875 289.289062 239.882812 288.574219 241.085938 286.515625 L 276.136719 226 C 277.335938 223.921875 276.632812 221.25 274.566406 220.050781 L 254.523438 208.390625 C 253.839844 207.996094 253.089844 207.808594 252.351562 207.808594 C 250.851562 207.808594 249.390625 208.582031 248.585938 209.96875 L 213.53125 270.488281 C 212.332031 272.558594 213.046875 275.226562 215.109375 276.433594 Z M 55.335938 203.96875 C 48.722656 200.011719 40.121094 202.191406 36.167969 208.8125 C 34.265625 212.007812 33.726562 215.773438 34.644531 219.417969 C 35.566406 223.0625 37.828125 226.121094 41.015625 228.023438 L 110.402344 269.507812 C 114.816406 272.164062 119.425781 272.890625 124.484375 271.726562 L 188.957031 256.898438 C 194.261719 255.683594 199.339844 256.457031 204.042969 259.195312 L 209.042969 262.101562 L 240.515625 207.761719 L 220.308594 196.804688 C 216.191406 194.578125 211.980469 194.054688 207.441406 195.199219 L 171.207031 204.371094 C 171.195312 204.375 171.179688 204.378906 171.167969 204.382812 L 128.085938 215.289062 C 124.308594 216.25 121.175781 218.691406 119.261719 222.164062 C 117.355469 225.621094 116.964844 229.5625 118.15625 233.257812 C 118.15625 233.261719 118.15625 233.261719 118.160156 233.265625 C 118.160156 233.269531 118.160156 233.269531 118.160156 233.269531 C 120.40625 240.304688 127.785156 244.394531 134.957031 242.585938 L 176.933594 231.957031 C 179.101562 231.40625 181.296875 232.722656 181.84375 234.890625 C 182.390625 237.058594 181.078125 239.261719 178.914062 239.8125 L 136.933594 250.441406 C 135.128906 250.898438 133.316406 251.117188 131.527344 251.117188 C 122.640625 251.117188 114.398438 245.710938 111.007812 237.246094 L 97.152344 228.964844 C 97.144531 228.960938 97.132812 228.957031 97.125 228.953125 Z M 101.847656 222.335938 L 109.511719 226.917969 C 109.796875 223.910156 110.695312 220.949219 112.183594 218.246094 C 115.148438 212.871094 120.21875 208.929688 126.101562 207.433594 L 167.984375 196.832031 L 217.683594 147.023438 C 228.96875 135.714844 235.304688 120.355469 235.421875 104.339844 C 234.203125 104.429688 232.976562 104.476562 231.734375 104.476562 C 203.128906 104.476562 179.855469 81.160156 179.855469 52.5 C 179.855469 49.164062 180.175781 45.898438 180.777344 42.738281 C 162.175781 41.476562 142.101562 50.269531 125.039062 67.355469 C 123.460938 68.933594 120.902344 68.933594 119.324219 67.351562 C 105.429688 53.429688 89.175781 44.765625 73.554688 42.964844 C 56.488281 40.996094 40.285156 47.15625 26.699219 60.777344 C 15.25 72.242188 8.945312 87.558594 8.945312 103.902344 C 8.945312 120.242188 15.25 135.558594 26.699219 147.027344 Z M 82.710938 71.007812 C 94.464844 74.175781 103.882812 82.359375 108.671875 93.332031 C 109.804688 92.96875 110.972656 92.777344 112.175781 92.753906 C 118.964844 85.265625 125.089844 85.570312 128.25 86.492188 C 133.046875 87.894531 136.851562 92.242188 138.910156 98.375 C 145.632812 93.613281 152.042969 91.632812 158.027344 92.476562 C 164.453125 93.382812 170.21875 97.492188 175.183594 104.703125 C 189.113281 105.042969 195.890625 111.59375 196.417969 118.234375 C 196.945312 124.863281 191.339844 133.359375 174.386719 136.988281 C 177.144531 144.578125 177.523438 152.851562 175.414062 160.78125 C 170.6875 178.464844 154.667969 190.160156 137.203125 190.15625 C 133.824219 190.15625 130.390625 189.71875 126.972656 188.800781 C 122.691406 187.644531 118.660156 185.800781 114.992188 183.316406 C 103.492188 176.773438 96.335938 168.726562 90.015625 161.625 C 87.3125 158.585938 84.761719 155.714844 82.207031 153.402344 C 78.980469 150.480469 75.457031 149.050781 71.105469 148.902344 C 68.054688 148.789062 65.066406 148.339844 62.234375 147.570312 C 41.171875 141.914062 28.628906 120.140625 34.273438 99.03125 C 39.914062 77.925781 61.644531 65.355469 82.710938 71.007812 Z M 64.339844 139.746094 C 66.589844 140.359375 68.96875 140.714844 71.390625 140.804688 C 77.574219 141.015625 83.035156 143.234375 87.628906 147.390625 C 90.503906 149.996094 93.199219 153.023438 96.050781 156.230469 C 101.976562 162.894531 108.695312 170.445312 119.113281 176.34375 C 119.214844 176.402344 119.308594 176.460938 119.402344 176.523438 C 122.359375 178.546875 125.617188 180.042969 129.070312 180.976562 C 145.828125 185.472656 163.117188 175.476562 167.605469 158.6875 C 169.660156 150.960938 168.746094 142.824219 165.023438 135.777344 C 165.019531 135.769531 165.019531 135.761719 165.015625 135.753906 C 164.992188 135.71875 164.96875 135.683594 164.949219 135.644531 C 161.960938 129.65625 157.355469 125.230469 150.863281 122.117188 C 148.847656 121.152344 148 118.734375 148.960938 116.714844 C 149.925781 114.699219 152.339844 113.84375 154.351562 114.808594 C 161.578125 118.273438 166.972656 123.078125 170.765625 129.441406 C 183.945312 127.078125 188.59375 121.824219 188.359375 118.875 C 188.121094 115.871094 183.03125 112.792969 174.03125 112.792969 C 173.722656 112.792969 173.410156 112.796875 173.09375 112.804688 C 171.683594 112.835938 170.328125 112.117188 169.570312 110.902344 C 165.660156 104.632812 161.398438 101.132812 156.898438 100.496094 C 152.207031 99.835938 146.691406 102.15625 140.488281 107.390625 C 140.785156 119.234375 136.023438 135.171875 121.609375 146.441406 C 120.871094 147.019531 119.996094 147.296875 119.125 147.296875 C 117.921875 147.296875 116.734375 146.761719 115.9375 145.738281 C 114.5625 143.972656 114.875 141.429688 116.636719 140.050781 C 129.3125 130.144531 133.019531 115.589844 132.339844 106.140625 C 132.339844 106.117188 132.339844 106.09375 132.339844 106.070312 C 132.339844 106.066406 132.339844 106.066406 132.339844 106.0625 C 131.667969 99.921875 129.113281 95.183594 125.988281 94.269531 C 124.140625 93.734375 121.839844 94.683594 119.441406 96.90625 C 122.980469 101.164062 124.722656 105.59375 124.621094 110.105469 C 124.488281 116.007812 121.175781 121.867188 114.773438 127.523438 C 114.007812 128.199219 113.054688 128.535156 112.105469 128.535156 C 110.984375 128.535156 109.867188 128.070312 109.070312 127.160156 C 107.59375 125.484375 107.753906 122.921875 109.429688 121.441406 C 114.066406 117.347656 116.457031 113.472656 116.539062 109.925781 C 116.601562 107.054688 115.121094 104.011719 112.144531 100.871094 C 111.089844 100.945312 110.125 101.382812 109.132812 102.234375 C 108.09375 103.128906 106.675781 103.433594 105.363281 103.042969 C 104.050781 102.65625 103.023438 101.628906 102.632812 100.316406 C 99.484375 89.726562 91.253906 81.695312 80.617188 78.832031 C 63.851562 74.335938 46.570312 84.335938 42.082031 101.125 C 37.59375 117.917969 47.574219 135.242188 64.34375 139.746094 Z M 216.449219 80.363281 L 216.449219 67.816406 L 203.929688 67.816406 C 201.699219 67.816406 199.886719 66.003906 199.886719 63.765625 L 199.886719 41.230469 C 199.886719 38.992188 201.699219 37.179688 203.929688 37.179688 L 216.449219 37.179688 L 216.449219 24.632812 C 216.449219 22.394531 218.261719 20.578125 220.492188 20.578125 L 242.960938 20.578125 C 245.195312 20.578125 247.003906 22.394531 247.003906 24.632812 L 247.003906 37.179688 L 259.523438 37.179688 C 261.757812 37.179688 263.566406 38.992188 263.566406 41.230469 L 263.566406 63.765625 C 263.566406 66.003906 261.757812 67.816406 259.523438 67.816406 L 247.003906 67.816406 L 247.003906 80.363281 C 247.003906 82.601562 245.195312 84.414062 242.960938 84.414062 L 220.492188 84.414062 C 218.261719 84.414062 216.449219 82.601562 216.449219 80.363281 Z M 224.535156 63.765625 L 224.535156 76.3125 L 238.917969 76.3125 L 238.917969 63.765625 C 238.917969 61.527344 240.730469 59.714844 242.960938 59.714844 L 255.484375 59.714844 L 255.484375 45.28125 L 242.960938 45.28125 C 240.730469 45.28125 238.917969 43.46875 238.917969 41.230469 L 238.917969 28.683594 L 224.535156 28.683594 L 224.535156 41.230469 C 224.535156 43.46875 222.726562 45.28125 220.492188 45.28125 L 207.972656 45.28125 L 207.972656 59.714844 L 220.492188 59.714844 C 222.726562 59.714844 224.535156 61.527344 224.535156 63.765625 Z M 224.535156 63.765625 " fill-opacity="1" fill-rule="nonzero"/></g></g></g></g></svg>