<svg xmlns="http://www.w3.org/2000/svg" xmlns:xlink="http://www.w3.org/1999/xlink" width="500" zoomAndPan="magnify" viewBox="0 0 375 374.999991" height="500" preserveAspectRatio="xMidYMid meet" version="1.0"><defs><clipPath id="93768b3b59"><path d="M 37.765625 67.832031 L 242.191406 67.832031 L 242.191406 307.082031 L 37.765625 307.082031 Z M 37.765625 67.832031 " clip-rule="nonzero"/></clipPath></defs><rect x="-37.5" width="450" fill="#ffffff" y="-37.499999" height="449.999989" fill-opacity="1"/><rect x="-37.5" width="450" fill="#ffffff" y="-37.499999" height="449.999989" fill-opacity="1"/><path fill="#000000" d="M 104.617188 194.953125 C 104.617188 193.4375 103.386719 192.210938 101.871094 192.210938 C 100.355469 192.210938 99.125 193.4375 99.125 194.953125 C 99.125 200.164062 96.019531 204.398438 92.195312 204.398438 C 88.433594 204.398438 85.375 200.164062 85.375 194.953125 C 85.375 190.144531 83.273438 186.671875 81.238281 183.316406 C 78.941406 179.523438 76.570312 175.601562 76.570312 168.933594 C 76.570312 162.519531 80.222656 156.980469 86.113281 154.472656 C 91.988281 151.972656 98.457031 153.140625 103.011719 157.515625 C 104.097656 158.566406 105.835938 158.53125 106.894531 157.441406 C 107.945312 156.351562 107.910156 154.613281 106.816406 153.5625 C 100.660156 147.632812 91.90625 146.050781 83.960938 149.421875 C 76.015625 152.800781 71.078125 160.277344 71.078125 168.933594 C 71.078125 177.136719 74.109375 182.136719 76.542969 186.15625 C 78.40625 189.238281 79.882812 191.671875 79.882812 194.953125 C 79.882812 203.328125 85.289062 209.886719 92.195312 209.886719 C 99.160156 209.886719 104.617188 203.328125 104.617188 194.953125 " fill-opacity="1" fill-rule="nonzero"/><path fill="#000000" d="M 158.957031 258.429688 C 124.914062 243.527344 104 217.867188 103.792969 217.605469 C 102.839844 216.421875 101.109375 216.238281 99.933594 217.191406 C 98.75 218.140625 98.5625 219.867188 99.515625 221.046875 C 100.390625 222.140625 121.429688 247.996094 156.753906 263.457031 C 157.113281 263.617188 157.484375 263.6875 157.855469 263.6875 C 158.910156 263.6875 159.917969 263.074219 160.367188 262.042969 C 160.976562 260.652344 160.34375 259.035156 158.957031 258.429688 " fill-opacity="1" fill-rule="nonzero"/><g clip-path="url(#93768b3b59)"><path fill="#000000" d="M 230.300781 177.722656 C 219.875 163.53125 219.875 163.53125 219.824219 151.953125 C 219.8125 149.777344 219.804688 147.230469 219.734375 144.152344 C 218.8125 112.472656 201.757812 87.40625 172.9375 75.382812 C 138.308594 60.894531 95.867188 67.667969 67.3125 92.230469 C 42.089844 113.933594 32.359375 145.214844 40.671875 178.253906 C 45.753906 193.535156 51.160156 205.0625 55.921875 215.230469 C 68.085938 241.1875 75.433594 256.859375 61.636719 301.523438 C 61.1875 302.972656 62.003906 304.507812 63.453125 304.957031 C 64.90625 305.394531 66.433594 304.589844 66.882812 303.144531 C 81.304688 256.449219 73.183594 239.125 60.890625 212.902344 C 56.191406 202.871094 50.863281 191.5 45.9375 176.722656 C 38.210938 145.96875 47.300781 116.691406 70.890625 96.394531 C 97.902344 73.15625 138.0625 66.742188 170.820312 80.445312 C 197.5625 91.605469 213.394531 114.882812 214.242188 144.292969 C 214.316406 147.316406 214.328125 149.828125 214.335938 151.972656 C 214.390625 165.339844 214.828125 165.929688 225.875 180.976562 C 227.847656 183.65625 230.171875 186.824219 232.914062 190.621094 C 236.441406 195.5625 237.488281 199.90625 236.03125 203.53125 C 233.570312 209.648438 224.824219 212.515625 222.789062 212.898438 C 221.976562 213.050781 221.273438 213.5625 220.882812 214.289062 C 220.488281 215.019531 220.441406 215.886719 220.761719 216.648438 C 221.984375 219.589844 221.859375 222.859375 220.441406 224.976562 C 219.492188 226.402344 218.109375 227.125 216.339844 227.125 C 215.332031 227.125 214.414062 227.671875 213.929688 228.550781 C 213.449219 229.429688 213.484375 230.5 214.023438 231.34375 C 218.601562 238.515625 217.855469 239.535156 216.375 241.5625 C 214.742188 243.785156 212.519531 246.828125 212.835938 253.808594 C 213.195312 262.574219 209.132812 267.9375 201.089844 269.324219 C 197.058594 270.023438 192.597656 269.839844 188.261719 269.667969 C 180.078125 269.332031 171.617188 268.996094 166.347656 274.886719 C 161.546875 280.253906 160.367188 289.765625 162.644531 304.832031 C 162.847656 306.1875 164.019531 307.167969 165.351562 307.167969 C 165.492188 307.167969 165.625 307.15625 165.769531 307.132812 C 167.265625 306.90625 168.296875 305.507812 168.070312 304.011719 C 166.082031 290.875 166.859375 282.546875 170.441406 278.550781 C 173.980469 274.589844 180.496094 274.851562 188.046875 275.152344 C 192.652344 275.335938 197.414062 275.527344 202.023438 274.738281 C 212.695312 272.894531 218.792969 264.988281 218.320312 253.570312 C 218.089844 248.507812 219.464844 246.628906 220.796875 244.808594 C 223.511719 241.105469 224.171875 238.195312 220.648438 231.738281 C 222.390625 230.972656 223.882812 229.714844 225.007812 228.027344 C 226.949219 225.125 227.542969 221.273438 226.742188 217.476562 C 231.308594 215.898438 238.464844 212.191406 241.125 205.578125 C 243.328125 200.101562 242.066406 193.996094 237.375 187.421875 C 234.613281 183.597656 232.28125 180.417969 230.300781 177.722656 " fill-opacity="1" fill-rule="nonzero"/></g><path fill="#000000" d="M 251.582031 204.203125 C 250.507812 205.269531 250.496094 207.007812 251.5625 208.085938 C 260.261719 216.871094 260.261719 231.246094 251.554688 240.136719 C 250.492188 241.222656 250.511719 242.960938 251.59375 244.019531 C 252.128906 244.542969 252.824219 244.800781 253.515625 244.800781 C 254.226562 244.800781 254.9375 244.527344 255.476562 243.980469 C 266.265625 232.960938 266.265625 215.125 255.464844 204.222656 C 254.394531 203.144531 252.660156 203.132812 251.582031 204.203125 " fill-opacity="1" fill-rule="nonzero"/><path fill="#000000" d="M 273.984375 181.472656 C 272.902344 182.535156 272.894531 184.273438 273.957031 185.355469 C 295.03125 206.742188 295.03125 241.460938 273.957031 262.746094 C 272.894531 263.820312 272.902344 265.558594 273.980469 266.625 C 274.511719 267.15625 275.214844 267.421875 275.910156 267.421875 C 276.617188 267.421875 277.324219 267.148438 277.859375 266.605469 C 301.035156 243.199219 301.035156 205.019531 277.867188 181.5 C 276.804688 180.417969 275.054688 180.40625 273.984375 181.472656 " fill-opacity="1" fill-rule="nonzero"/><path fill="#000000" d="M 300.363281 158.878906 C 299.289062 157.800781 297.558594 157.789062 296.476562 158.855469 C 295.402344 159.925781 295.394531 161.660156 296.460938 162.738281 C 329.933594 196.550781 329.933594 251.554688 296.460938 285.363281 C 295.394531 286.441406 295.402344 288.175781 296.476562 289.246094 C 297.011719 289.773438 297.714844 290.039062 298.410156 290.039062 C 299.121094 290.039062 299.824219 289.765625 300.363281 289.222656 C 335.945312 253.289062 335.945312 194.816406 300.363281 158.878906 " fill-opacity="1" fill-rule="nonzero"/></svg>